Russolo-24ptMedium.ufo
<glyph name="quotedbl" format="2">
  <advance width="520"/>
  <unicode hex="0022"/>
  <note>
quotedbl
</note>
  <outline>
    <contour>
      <point x="324" y="854" type="line"/>
      <point x="364" y="854" type="line"/>
      <point x="378" y="1354" type="line"/>
      <point x="306" y="1354" type="line"/>
    </contour>
    <contour>
      <point x="158" y="854" type="line"/>
      <point x="196" y="854" type="line"/>
      <point x="214" y="1354" type="line"/>
      <point x="142" y="1354" type="line"/>
    </contour>
  </outline>
</glyph>
<glyph name="numbersign" format="2">
  <advance width="1334"/>
  <unicode hex="0023"/>
  <note>
numbersign
</note>
  <outline>
    <contour>
      <point x="709" y="0" type="line"/>
      <point x="819" y="0" type="line"/>
      <point x="1109" y="1430" type="line"/>
      <point x="999" y="1430" type="line"/>
    </contour>
    <contour>
      <point x="93" y="489" type="line"/>
      <point x="1143" y="489" type="line"/>
      <point x="1143" y="525" type="line"/>
      <point x="93" y="525" type="line"/>
    </contour>
    <contour>
      <point x="215" y="0" type="line"/>
      <point x="325" y="0" type="line"/>
      <point x="615" y="1430" type="line"/>
      <point x="505" y="1430" type="line"/>
    </contour>
    <contour>
      <point x="192" y="928" type="line"/>
      <point x="1242" y="928" type="line"/>
      <point x="1242" y="964" type="line"/>
      <point x="192" y="964" type="line"/>
    </contour>
  </outline>
</glyph>
<glyph name="ampersand" format="2">
  <advance width="1296"/>
  <unicode hex="0026"/>
  <note>
ampersand
</note>
  <guideline x="785" y="1442" angle="270"/>
  <outline>
    <contour>
      <point x="613" y="-28" type="curve" smooth="yes"/>
      <point x="689" y="-28"/>
      <point x="835" y="-18"/>
      <point x="881" y="9" type="curve"/>
      <point x="843" y="51" type="line"/>
      <point x="787" y="10"/>
      <point x="630" y="8"/>
      <point x="607" y="8" type="curve" smooth="yes"/>
      <point x="398" y="8"/>
      <point x="341" y="202"/>
      <point x="341" y="384" type="curve" smooth="yes"/>
      <point x="341" y="560"/>
      <point x="417" y="764"/>
      <point x="623" y="764" type="curve"/>
      <point x="627" y="800" type="line"/>
      <point x="441" y="800"/>
      <point x="419" y="1012"/>
      <point x="419" y="1100" type="curve" smooth="yes"/>
      <point x="419" y="1290"/>
      <point x="521" y="1424"/>
      <point x="643" y="1424" type="curve" smooth="yes"/>
      <point x="785" y="1424" type="line"/>
      <point x="785" y="1460" type="line"/>
      <point x="639" y="1460" type="line" smooth="yes"/>
      <point x="389" y="1460"/>
      <point x="231" y="1356"/>
      <point x="231" y="1100" type="curve" smooth="yes"/>
      <point x="231" y="1024"/>
      <point x="245" y="828"/>
      <point x="405" y="786" type="curve"/>
      <point x="235" y="758"/>
      <point x="133" y="564"/>
      <point x="133" y="378" type="curve" smooth="yes"/>
      <point x="133" y="98"/>
      <point x="345" y="-28"/>
    </contour>
    <contour>
      <point x="987" y="-27" type="curve" smooth="yes"/>
      <point x="1072" y="-27"/>
      <point x="1128" y="-18"/>
      <point x="1184" y="0" type="curve"/>
      <point x="1184" y="59" type="line"/>
      <point x="1129" y="28"/>
      <point x="1100" y="17"/>
      <point x="1035" y="17" type="curve" smooth="yes"/>
      <point x="1014" y="17"/>
      <point x="987" y="37"/>
      <point x="987" y="117" type="curve" smooth="yes"/>
      <point x="987" y="764" type="line"/>
      <point x="1127" y="764" type="line"/>
      <point x="1127" y="800" type="line"/>
      <point x="987" y="800" type="line"/>
      <point x="987" y="1122" type="line"/>
      <point x="947" y="1122" type="line"/>
      <point x="947" y="878"/>
      <point x="755" y="800"/>
      <point x="643" y="800" type="curve" smooth="yes"/>
      <point x="627" y="800" type="line"/>
      <point x="623" y="764" type="line"/>
      <point x="785" y="764" type="line"/>
      <point x="785" y="193" type="line" smooth="yes"/>
      <point x="785" y="70"/>
      <point x="858" y="-27"/>
    </contour>
  </outline>
</glyph>
<glyph name="parenleft" format="2">
  <advance width="516"/>
  <unicode hex="0028"/>
  <note>
parenleft
</note>
  <outline>
    <contour>
      <point x="412" y="-418" type="curve"/>
      <point x="442" y="-384" type="line"/>
      <point x="292" y="-116"/>
      <point x="230" y="191"/>
      <point x="230" y="550" type="curve" smooth="yes"/>
      <point x="230" y="903"/>
      <point x="290" y="1198"/>
      <point x="442" y="1490" type="curve"/>
      <point x="412" y="1518" type="line"/>
      <point x="216" y="1242"/>
      <point x="100" y="919"/>
      <point x="100" y="550" type="curve" smooth="yes"/>
      <point x="100" y="187"/>
      <point x="212" y="-118"/>
    </contour>
  </outline>
</glyph>
<glyph name="parenright" format="2">
  <advance width="516"/>
  <unicode hex="0029"/>
  <note>
parenright
</note>
  <outline>
    <contour>
      <point x="104" y="-418" type="line"/>
      <point x="304" y="-118"/>
      <point x="416" y="187"/>
      <point x="416" y="550" type="curve" smooth="yes"/>
      <point x="416" y="919"/>
      <point x="300" y="1242"/>
      <point x="104" y="1518" type="curve"/>
      <point x="74" y="1490" type="line"/>
      <point x="226" y="1198"/>
      <point x="286" y="903"/>
      <point x="286" y="550" type="curve" smooth="yes"/>
      <point x="286" y="191"/>
      <point x="224" y="-116"/>
      <point x="74" y="-384" type="curve"/>
    </contour>
  </outline>
</glyph>
<glyph name="asterisk" format="2">
  <advance width="754"/>
  <unicode hex="002A"/>
  <note>
asterisk
</note>
  <guideline x="-212" y="379" angle="0"/>
  <outline>
    <contour>
      <point x="380" y="1148" type="line"/>
      <point x="481" y="1206"/>
      <point x="570" y="1217"/>
      <point x="595" y="1232" type="curve" smooth="yes"/>
      <point x="617" y="1245"/>
      <point x="603" y="1276"/>
      <point x="629" y="1291" type="curve"/>
      <point x="621" y="1304" type="line"/>
      <point x="596" y="1289"/>
      <point x="570" y="1312"/>
      <point x="554" y="1303" type="curve" smooth="yes"/>
      <point x="531" y="1290"/>
      <point x="474" y="1219"/>
      <point x="373" y="1161" type="curve"/>
    </contour>
    <contour>
      <point x="132" y="1004" type="line"/>
      <point x="157" y="1019"/>
      <point x="184" y="995"/>
      <point x="200" y="1004" type="curve" smooth="yes"/>
      <point x="231" y="1022"/>
      <point x="279" y="1089"/>
      <point x="380" y="1148" type="curve"/>
      <point x="373" y="1161" type="line"/>
      <point x="272" y="1102"/>
      <point x="199" y="1097"/>
      <point x="159" y="1075" type="curve" smooth="yes"/>
      <point x="157" y="1074"/>
      <point x="150" y="1032"/>
      <point x="124" y="1017" type="curve"/>
    </contour>
    <contour>
      <point x="369" y="867" type="curve"/>
      <point x="383" y="867" type="line"/>
      <point x="383" y="896"/>
      <point x="418" y="911"/>
      <point x="418" y="925" type="curve" smooth="yes"/>
      <point x="418" y="961"/>
      <point x="383" y="1037"/>
      <point x="383" y="1153" type="curve"/>
      <point x="369" y="1153" type="line"/>
      <point x="369" y="1037"/>
      <point x="336" y="961"/>
      <point x="336" y="925" type="curve" smooth="yes"/>
      <point x="336" y="911"/>
      <point x="369" y="896"/>
    </contour>
    <contour>
      <point x="373" y="1147" type="curve"/>
      <point x="381" y="1160" type="line"/>
      <point x="280" y="1219"/>
      <point x="220" y="1291"/>
      <point x="199" y="1303" type="curve" smooth="yes"/>
      <point x="178" y="1315"/>
      <point x="158" y="1289"/>
      <point x="132" y="1304" type="curve"/>
      <point x="125" y="1291" type="line"/>
      <point x="150" y="1276"/>
      <point x="147" y="1239"/>
      <point x="158" y="1232" type="curve" smooth="yes"/>
      <point x="181" y="1218"/>
      <point x="272" y="1206"/>
    </contour>
    <contour>
      <point x="554" y="1004" type="curve" smooth="yes"/>
      <point x="568" y="996"/>
      <point x="596" y="1019"/>
      <point x="621" y="1004" type="curve"/>
      <point x="629" y="1017" type="line"/>
      <point x="604" y="1032"/>
      <point x="616" y="1062"/>
      <point x="595" y="1074" type="curve" smooth="yes"/>
      <point x="559" y="1095"/>
      <point x="482" y="1102"/>
      <point x="381" y="1160" type="curve"/>
      <point x="373" y="1147" type="line"/>
      <point x="474" y="1089"/>
      <point x="513" y="1028"/>
    </contour>
    <contour>
      <point x="369" y="1153" type="curve"/>
      <point x="384" y="1153" type="line"/>
      <point x="384" y="1270"/>
      <point x="418" y="1346"/>
      <point x="418" y="1382" type="curve" smooth="yes"/>
      <point x="418" y="1395"/>
      <point x="384" y="1411"/>
      <point x="384" y="1440" type="curve"/>
      <point x="369" y="1440" type="line"/>
      <point x="369" y="1411"/>
      <point x="336" y="1395"/>
      <point x="336" y="1382" type="curve" smooth="yes"/>
      <point x="336" y="1346"/>
      <point x="369" y="1270"/>
    </contour>
  </outline>
</glyph>
<glyph name="comma" format="2">
  <advance width="518"/>
  <unicode hex="002C"/>
  <note>
comma
</note>
  <outline>
    <contour>
      <point x="137" y="-153" type="curve"/>
      <point x="271" y="-153" type="line"/>
      <point x="324" y="-51"/>
      <point x="363" y="43"/>
      <point x="388" y="136" type="curve"/>
      <point x="224" y="136" type="line"/>
      <point x="193" y="63"/>
      <point x="153" y="-64"/>
    </contour>
  </outline>
</glyph>
<glyph name="period" format="2">
  <advance width="483"/>
  <unicode hex="002E"/>
  <note>
period
</note>
  <outline>
    <contour>
      <point x="241" y="-26" type="curve" smooth="yes"/>
      <point x="303" y="-26"/>
      <point x="351" y="20"/>
      <point x="351" y="84" type="curve" smooth="yes"/>
      <point x="351" y="150"/>
      <point x="301" y="192"/>
      <point x="241" y="192" type="curve" smooth="yes"/>
      <point x="181" y="192"/>
      <point x="131" y="150"/>
      <point x="131" y="84" type="curve" smooth="yes"/>
      <point x="131" y="20"/>
      <point x="179" y="-26"/>
    </contour>
  </outline>
</glyph>
<glyph name="slash" format="2">
  <advance width="630"/>
  <unicode hex="002F"/>
  <note>
slash
</note>
  <outline>
    <contour>
      <point x="38" y="-404" type="line"/>
      <point x="118" y="-404" type="line"/>
      <point x="592" y="1496" type="line"/>
      <point x="512" y="1496" type="line"/>
    </contour>
  </outline>
</glyph>
<glyph name="zero" format="2">
  <advance width="1188"/>
  <unicode hex="0030"/>
  <note>
zero
</note>
  <anchor x="594" y="710" name="center"/>
  <outline>
    <contour>
      <point x="594" y="-38" type="curve" smooth="yes"/>
      <point x="930" y="-38"/>
      <point x="1104" y="350"/>
      <point x="1104" y="710" type="curve" smooth="yes"/>
      <point x="1104" y="1089"/>
      <point x="905" y="1460"/>
      <point x="594" y="1460" type="curve" smooth="yes"/>
      <point x="276" y="1460"/>
      <point x="84" y="1087"/>
      <point x="84" y="710" type="curve" smooth="yes"/>
      <point x="84" y="353"/>
      <point x="257" y="-38"/>
    </contour>
    <contour>
      <point x="594" y="-8" type="curve" smooth="yes"/>
      <point x="383" y="-8"/>
      <point x="290" y="277"/>
      <point x="290" y="710" type="curve" smooth="yes"/>
      <point x="290" y="1143"/>
      <point x="382" y="1430"/>
      <point x="594" y="1430" type="curve" smooth="yes"/>
      <point x="804" y="1430"/>
      <point x="898" y="1143"/>
      <point x="898" y="710" type="curve" smooth="yes"/>
      <point x="898" y="277"/>
      <point x="805" y="-8"/>
    </contour>
  </outline>
</glyph>
<glyph name="two" format="2">
  <advance width="1057"/>
  <unicode hex="0032"/>
  <note>
two
</note>
  <outline>
    <contour>
      <point x="47" y="0" type="line"/>
      <point x="949" y="0" type="line"/>
      <point x="949" y="172" type="line"/>
      <point x="224" y="172" type="line"/>
      <point x="228" y="125" type="line"/>
      <point x="384" y="272"/>
      <point x="524" y="390"/>
      <point x="746" y="627" type="curve" smooth="yes"/>
      <point x="828" y="714"/>
      <point x="973" y="874"/>
      <point x="973" y="1102" type="curve" smooth="yes"/>
      <point x="973" y="1404"/>
      <point x="726" y="1460"/>
      <point x="563" y="1460" type="curve" smooth="yes"/>
      <point x="288" y="1460"/>
      <point x="91" y="1302"/>
      <point x="91" y="1032" type="curve" smooth="yes"/>
      <point x="91" y="1028"/>
      <point x="91" y="1010"/>
      <point x="93" y="994" type="curve"/>
      <point x="293" y="994" type="line"/>
      <point x="293" y="1010" type="line" smooth="yes"/>
      <point x="293" y="1200"/>
      <point x="377" y="1428"/>
      <point x="535" y="1428" type="curve" smooth="yes"/>
      <point x="649" y="1428"/>
      <point x="765" y="1319"/>
      <point x="765" y="1094" type="curve" smooth="yes"/>
      <point x="765" y="825"/>
      <point x="596" y="620"/>
      <point x="370" y="365" type="curve" smooth="yes"/>
    </contour>
  </outline>
</glyph>
<glyph name="four" format="2">
  <advance width="974"/>
  <unicode hex="0034"/>
  <note>
four
</note>
  <outline>
    <contour>
      <point x="600" y="0" type="line"/>
      <point x="766" y="0" type="line"/>
      <point x="766" y="441" type="line"/>
      <point x="673" y="348" type="line"/>
      <point x="934" y="348" type="line"/>
      <point x="934" y="514" type="line"/>
      <point x="673" y="514" type="line"/>
      <point x="766" y="421" type="line"/>
      <point x="766" y="914" type="line"/>
      <point x="600" y="914" type="line"/>
      <point x="600" y="421" type="line"/>
      <point x="693" y="514" type="line"/>
      <point x="162" y="514" type="line"/>
      <point x="195" y="464" type="line"/>
      <point x="360" y="782"/>
      <point x="530" y="1062"/>
      <point x="646" y="1444" type="curve"/>
      <point x="574" y="1444" type="line"/>
      <point x="495" y="1120"/>
      <point x="294" y="788"/>
      <point x="26" y="348" type="curve"/>
      <point x="693" y="348" type="line"/>
      <point x="600" y="441" type="line"/>
    </contour>
  </outline>
</glyph>
<glyph name="five" format="2">
  <advance width="951"/>
  <unicode hex="0035"/>
  <note>
five
</note>
  <outline>
    <contour>
      <point x="340" y="-27" type="curve" smooth="yes"/>
      <point x="662" y="-27"/>
      <point x="868" y="162"/>
      <point x="868" y="451" type="curve" smooth="yes"/>
      <point x="868" y="723"/>
      <point x="707" y="867"/>
      <point x="408" y="867" type="curve" smooth="yes"/>
      <point x="299" y="867"/>
      <point x="176" y="848"/>
      <point x="148" y="786" type="curve"/>
      <point x="171" y="803" type="line"/>
      <point x="302" y="1314" type="line"/>
      <point x="245" y="1224" type="line"/>
      <point x="824" y="1224" type="line"/>
      <point x="824" y="1430" type="line"/>
      <point x="264" y="1430" type="line"/>
      <point x="106" y="753" type="line"/>
      <point x="138" y="747" type="line"/>
      <point x="178" y="803"/>
      <point x="234" y="831"/>
      <point x="326" y="831" type="curve" smooth="yes"/>
      <point x="534" y="831"/>
      <point x="662" y="675"/>
      <point x="662" y="451" type="curve" smooth="yes"/>
      <point x="662" y="287"/>
      <point x="588" y="9"/>
      <point x="344" y="9" type="curve" smooth="yes"/>
      <point x="261" y="9"/>
      <point x="174" y="41"/>
      <point x="60" y="121" type="curve"/>
      <point x="43" y="78" type="line"/>
      <point x="146" y="-4"/>
      <point x="227" y="-27"/>
    </contour>
  </outline>
</glyph>
<glyph name="seven" format="2">
  <advance width="941"/>
  <unicode hex="0037"/>
  <note>
seven
</note>
  <outline>
    <contour>
      <point x="256" y="-1" type="curve"/>
      <point x="348" y="-1" type="line"/>
      <point x="416" y="488"/>
      <point x="567" y="860"/>
      <point x="915" y="1416" type="curve"/>
      <point x="39" y="1416" type="line"/>
      <point x="39" y="1230" type="line"/>
      <point x="780" y="1230" type="line"/>
      <point x="752" y="1323" type="line"/>
      <point x="466" y="829"/>
      <point x="324" y="474"/>
    </contour>
  </outline>
</glyph>
<glyph name="nine" format="2">
  <advance width="1060"/>
  <unicode hex="0039"/>
  <note>
nine
</note>
  <outline>
    <contour>
      <point x="186" y="-56" type="line"/>
      <point x="348" y="-30"/>
      <point x="556" y="72"/>
      <point x="692" y="190" type="curve" smooth="yes"/>
      <point x="740" y="232"/>
      <point x="803" y="296"/>
      <point x="858" y="398" type="curve" smooth="yes"/>
      <point x="941" y="552"/>
      <point x="980" y="745"/>
      <point x="980" y="918" type="curve" smooth="yes"/>
      <point x="980" y="1285"/>
      <point x="805" y="1446"/>
      <point x="542" y="1446" type="curve" smooth="yes"/>
      <point x="209" y="1446"/>
      <point x="60" y="1219"/>
      <point x="60" y="988" type="curve" smooth="yes"/>
      <point x="60" y="735"/>
      <point x="234" y="526"/>
      <point x="508" y="526" type="curve" smooth="yes"/>
      <point x="674" y="526"/>
      <point x="770" y="599"/>
      <point x="825" y="706" type="curve"/>
      <point x="817" y="735" type="line"/>
      <point x="764" y="530"/>
      <point x="705" y="398"/>
      <point x="620" y="290" type="curve" smooth="yes"/>
      <point x="530" y="176"/>
      <point x="374" y="46"/>
      <point x="186" y="10" type="curve"/>
    </contour>
    <contour>
      <point x="508" y="562" type="curve" smooth="yes"/>
      <point x="339" y="562"/>
      <point x="266" y="814"/>
      <point x="266" y="992" type="curve" smooth="yes"/>
      <point x="266" y="1178"/>
      <point x="343" y="1410"/>
      <point x="520" y="1410" type="curve" smooth="yes"/>
      <point x="691" y="1410"/>
      <point x="774" y="1195"/>
      <point x="774" y="992" type="curve" smooth="yes"/>
      <point x="774" y="787"/>
      <point x="691" y="562"/>
    </contour>
  </outline>
</glyph>
<glyph name="greater" format="2">
  <advance width="1050"/>
  <unicode hex="003E"/>
  <note>
greater
</note>
  <outline>
    <contour>
      <point x="118" y="262" type="line"/>
      <point x="908" y="632" type="line"/>
      <point x="908" y="734" type="line"/>
      <point x="118" y="1104" type="line"/>
      <point x="117" y="1010" type="line"/>
      <point x="818" y="684" type="line"/>
      <point x="117" y="356" type="line"/>
    </contour>
  </outline>
</glyph>
<glyph name="at" format="2">
  <advance width="1672"/>
  <unicode hex="0040"/>
  <note>
at
</note>
  <outline>
    <contour>
      <point x="883" y="-30" type="curve" smooth="yes"/>
      <point x="1157" y="-30"/>
      <point x="1399" y="120"/>
      <point x="1527" y="342" type="curve"/>
      <point x="1485" y="342" type="line"/>
      <point x="1359" y="140"/>
      <point x="1137" y="6"/>
      <point x="883" y="6" type="curve" smooth="yes"/>
      <point x="491" y="6"/>
      <point x="173" y="324"/>
      <point x="173" y="716" type="curve" smooth="yes"/>
      <point x="173" y="1106"/>
      <point x="491" y="1424"/>
      <point x="883" y="1424" type="curve" smooth="yes"/>
      <point x="1228" y="1424"/>
      <point x="1487" y="1180"/>
      <point x="1487" y="842" type="curve" smooth="yes"/>
      <point x="1487" y="722"/>
      <point x="1451" y="614"/>
      <point x="1399" y="538" type="curve" smooth="yes"/>
      <point x="1361" y="482"/>
      <point x="1251" y="350"/>
      <point x="1191" y="350" type="curve" smooth="yes"/>
      <point x="1133" y="350"/>
      <point x="1113" y="384"/>
      <point x="1107" y="414" type="curve"/>
      <point x="1273" y="1080" type="line"/>
      <point x="1103" y="1080" type="line"/>
      <point x="1065" y="924" type="line"/>
      <point x="1047" y="1054"/>
      <point x="989" y="1102"/>
      <point x="879" y="1102" type="curve" smooth="yes"/>
      <point x="601" y="1102"/>
      <point x="407" y="792"/>
      <point x="407" y="556" type="curve" smooth="yes"/>
      <point x="407" y="386"/>
      <point x="507" y="274"/>
      <point x="679" y="274" type="curve" smooth="yes"/>
      <point x="795" y="274"/>
      <point x="865" y="324"/>
      <point x="951" y="454" type="curve"/>
      <point x="971" y="366"/>
      <point x="1015" y="288"/>
      <point x="1109" y="288" type="curve" smooth="yes"/>
      <point x="1169" y="288"/>
      <point x="1239" y="322"/>
      <point x="1300" y="369" type="curve" smooth="yes"/>
      <point x="1383" y="434"/>
      <point x="1432" y="513"/>
      <point x="1457" y="560" type="curve" smooth="yes"/>
      <point x="1493" y="628"/>
      <point x="1523" y="718"/>
      <point x="1523" y="838" type="curve" smooth="yes"/>
      <point x="1523" y="1206"/>
      <point x="1262" y="1460"/>
      <point x="883" y="1460" type="curve" smooth="yes"/>
      <point x="471" y="1460"/>
      <point x="137" y="1126"/>
      <point x="137" y="716" type="curve" smooth="yes"/>
      <point x="137" y="304"/>
      <point x="471" y="-30"/>
    </contour>
    <contour>
      <point x="717" y="314" type="curve" smooth="yes"/>
      <point x="615" y="314"/>
      <point x="581" y="420"/>
      <point x="581" y="538" type="curve" smooth="yes"/>
      <point x="581" y="774"/>
      <point x="721" y="1066"/>
      <point x="899" y="1066" type="curve" smooth="yes"/>
      <point x="995" y="1066"/>
      <point x="1031" y="974"/>
      <point x="1031" y="860" type="curve" smooth="yes"/>
      <point x="1031" y="644"/>
      <point x="901" y="314"/>
    </contour>
  </outline>
</glyph>
<glyph name="B" format="2">
  <advance width="1236"/>
  <unicode hex="0042"/>
  <note>
B
</note>
  <anchor x="654" y="0" name="bottom"/>
  <anchor x="654" y="1430" name="top"/>
  <outline>
    <contour>
      <point x="175" y="0" type="line"/>
      <point x="567" y="0" type="line" smooth="yes"/>
      <point x="911" y="0"/>
      <point x="1133" y="80"/>
      <point x="1133" y="406" type="curve" smooth="yes"/>
      <point x="1133" y="670"/>
      <point x="987" y="732"/>
      <point x="819" y="756" type="curve"/>
      <point x="819" y="760" type="line"/>
      <point x="957" y="798"/>
      <point x="1071" y="856"/>
      <point x="1071" y="1054" type="curve" smooth="yes"/>
      <point x="1071" y="1312"/>
      <point x="877" y="1430"/>
      <point x="567" y="1430" type="curve" smooth="yes"/>
      <point x="175" y="1430" type="line"/>
    </contour>
    <contour>
      <point x="381" y="13" type="line"/>
      <point x="381" y="748" type="line"/>
      <point x="288" y="740" type="line"/>
      <point x="617" y="740" type="line" smooth="yes"/>
      <point x="831" y="740"/>
      <point x="915" y="570"/>
      <point x="915" y="406" type="curve" smooth="yes"/>
      <point x="915" y="208"/>
      <point x="791" y="36"/>
      <point x="567" y="36" type="curve" smooth="yes"/>
      <point x="288" y="36" type="line"/>
    </contour>
    <contour>
      <point x="381" y="767" type="line"/>
      <point x="381" y="1417" type="line"/>
      <point x="288" y="1394" type="line"/>
      <point x="567" y="1394" type="line" smooth="yes"/>
      <point x="823" y="1394"/>
      <point x="853" y="1154"/>
      <point x="853" y="1034" type="curve" smooth="yes"/>
      <point x="853" y="888"/>
      <point x="809" y="776"/>
      <point x="567" y="776" type="curve" smooth="yes"/>
      <point x="288" y="776" type="line"/>
    </contour>
  </outline>
</glyph>
<glyph name="C" format="2">
  <advance width="1455"/>
  <unicode hex="0043"/>
  <note>
C
</note>
  <anchor x="746" y="-10" name="bottom"/>
  <anchor x="790" y="1430" name="top"/>
  <outline>
    <contour>
      <point x="795" y="-26" type="curve" smooth="yes"/>
      <point x="1040" y="-26"/>
      <point x="1256" y="106"/>
      <point x="1376" y="318" type="curve"/>
      <point x="1196" y="318" type="line"/>
      <point x="1115" y="120"/>
      <point x="971" y="4"/>
      <point x="789" y="4" type="curve" smooth="yes"/>
      <point x="504" y="4"/>
      <point x="314" y="288"/>
      <point x="314" y="715" type="curve" smooth="yes"/>
      <point x="314" y="1141"/>
      <point x="504" y="1430"/>
      <point x="790" y="1430" type="curve" smooth="yes"/>
      <point x="970" y="1430"/>
      <point x="1114" y="1314"/>
      <point x="1192" y="1118" type="curve"/>
      <point x="1370" y="1118" type="line"/>
      <point x="1265" y="1312"/>
      <point x="1019" y="1460"/>
      <point x="788" y="1460" type="curve" smooth="yes"/>
      <point x="407" y="1460"/>
      <point x="102" y="1117"/>
      <point x="102" y="718" type="curve" smooth="yes"/>
      <point x="102" y="300"/>
      <point x="388" y="-26"/>
    </contour>
  </outline>
</glyph>
<glyph name="D" format="2">
  <advance width="1500"/>
  <unicode hex="0044"/>
  <note>
D
</note>
  <anchor x="776" y="0" name="bottom"/>
  <anchor x="290" y="715" name="center"/>
  <anchor x="776" y="1430" name="top"/>
  <outline>
    <contour>
      <point x="175" y="0" type="line"/>
      <point x="559" y="0" type="line" smooth="yes"/>
      <point x="839" y="0"/>
      <point x="1013" y="34"/>
      <point x="1145" y="134" type="curve" smooth="yes"/>
      <point x="1311" y="260"/>
      <point x="1395" y="459"/>
      <point x="1395" y="712" type="curve" smooth="yes"/>
      <point x="1395" y="935"/>
      <point x="1330" y="1134"/>
      <point x="1175" y="1272" type="curve" smooth="yes"/>
      <point x="997" y="1430"/>
      <point x="779" y="1430"/>
      <point x="497" y="1430" type="curve" smooth="yes"/>
      <point x="175" y="1430" type="line"/>
    </contour>
    <contour>
      <point x="389" y="13" type="line"/>
      <point x="389" y="1417" type="line"/>
      <point x="296" y="1394" type="line"/>
      <point x="503" y="1394" type="line" smooth="yes"/>
      <point x="1026" y="1394"/>
      <point x="1159" y="1124"/>
      <point x="1159" y="719" type="curve" smooth="yes"/>
      <point x="1159" y="252"/>
      <point x="982" y="36"/>
      <point x="503" y="36" type="curve" smooth="yes"/>
      <point x="296" y="36" type="line"/>
    </contour>
  </outline>
</glyph>
<glyph name="E" format="2">
  <advance width="1120"/>
  <unicode hex="0045"/>
  <note>
E
</note>
  <anchor x="586" y="0" name="bottom"/>
  <anchor x="914" y="0" name="ogonek"/>
  <anchor x="586" y="1430" name="top"/>
  <anchor x="71" y="1430" name="topleft"/>
  <outline>
    <contour>
      <point x="175" y="0" type="line"/>
      <point x="1025" y="0" type="line"/>
      <point x="1025" y="36" type="line"/>
      <point x="288" y="36" type="line"/>
      <point x="381" y="23" type="line"/>
      <point x="381" y="725" type="line"/>
      <point x="288" y="710" type="line"/>
      <point x="1025" y="710" type="line"/>
      <point x="1025" y="746" type="line"/>
      <point x="288" y="746" type="line"/>
      <point x="381" y="733" type="line"/>
      <point x="381" y="1417" type="line"/>
      <point x="288" y="1394" type="line"/>
      <point x="1025" y="1394" type="line"/>
      <point x="1025" y="1430" type="line"/>
      <point x="175" y="1430" type="line"/>
    </contour>
  </outline>
</glyph>
<glyph name="F" format="2">
  <advance width="1046"/>
  <unicode hex="0046"/>
  <note>
F
</note>
  <anchor x="557" y="0" name="bottom"/>
  <anchor x="557" y="1430" name="top"/>
  <outline>
    <contour>
      <point x="175" y="0" type="line"/>
      <point x="381" y="0" type="line"/>
      <point x="381" y="735" type="line"/>
      <point x="288" y="712" type="line"/>
      <point x="965" y="712" type="line"/>
      <point x="965" y="746" type="line"/>
      <point x="288" y="746" type="line"/>
      <point x="381" y="723" type="line"/>
      <point x="381" y="1417" type="line"/>
      <point x="288" y="1394" type="line"/>
      <point x="965" y="1394" type="line"/>
      <point x="965" y="1430" type="line"/>
      <point x="175" y="1430" type="line"/>
    </contour>
  </outline>
</glyph>
<glyph name="H" format="2">
  <advance width="1522"/>
  <unicode hex="0048"/>
  <note>
H
</note>
  <anchor x="761" y="0" name="bottom"/>
  <anchor x="761" y="715" name="center"/>
  <anchor x="761" y="1430" name="top"/>
  <anchor x="71" y="1430" name="topleft"/>
  <outline>
    <contour>
      <point x="175" y="0" type="line"/>
      <point x="381" y="0" type="line"/>
      <point x="381" y="737" type="line"/>
      <point x="288" y="714" type="line"/>
      <point x="1234" y="714" type="line"/>
      <point x="1141" y="737" type="line"/>
      <point x="1141" y="0" type="line"/>
      <point x="1347" y="0" type="line"/>
      <point x="1347" y="1430" type="line"/>
      <point x="1141" y="1430" type="line"/>
      <point x="1141" y="727" type="line"/>
      <point x="1234" y="750" type="line"/>
      <point x="288" y="750" type="line"/>
      <point x="381" y="727" type="line"/>
      <point x="381" y="1430" type="line"/>
      <point x="175" y="1430" type="line"/>
    </contour>
  </outline>
</glyph>
<glyph name="I" format="2">
  <advance width="556"/>
  <unicode hex="0049"/>
  <note>
I
</note>
  <anchor x="278" y="0" name="bottom"/>
  <anchor x="287" y="0" name="ogonek"/>
  <anchor x="278" y="1430" name="top"/>
  <anchor x="24" y="1430" name="topleft"/>
  <outline>
    <contour>
      <point x="175" y="0" type="line"/>
      <point x="381" y="0" type="line"/>
      <point x="381" y="1430" type="line"/>
      <point x="175" y="1430" type="line"/>
    </contour>
  </outline>
</glyph>
<glyph name="J" format="2">
  <advance width="873"/>
  <unicode hex="004A"/>
  <note>
J
</note>
  <anchor x="462" y="0" name="bottom"/>
  <anchor x="462" y="1430" name="top"/>
  <outline>
    <contour>
      <point x="77" y="-24" type="line"/>
      <point x="142" y="-112"/>
      <point x="276" y="-152"/>
      <point x="372" y="-152" type="curve" smooth="yes"/>
      <point x="581" y="-152"/>
      <point x="707" y="42"/>
      <point x="707" y="374" type="curve" smooth="yes"/>
      <point x="707" y="1430" type="line"/>
      <point x="501" y="1430" type="line"/>
      <point x="501" y="336" type="line" smooth="yes"/>
      <point x="501" y="-46"/>
      <point x="488" y="-98"/>
      <point x="393" y="-98" type="curve" smooth="yes"/>
      <point x="265" y="-98"/>
      <point x="158" y="-5"/>
      <point x="77" y="134" type="curve"/>
    </contour>
  </outline>
</glyph>
<glyph name="M" format="2">
  <advance width="1664"/>
  <unicode hex="004D"/>
  <note>
M
</note>
  <anchor x="832" y="0" name="bottom"/>
  <anchor x="832" y="1430" name="top"/>
  <outline>
    <contour>
      <point x="175" y="0" type="line"/>
      <point x="211" y="0" type="line"/>
      <point x="211" y="1357" type="line"/>
      <point x="190" y="1353" type="line"/>
      <point x="741" y="58" type="line"/>
      <point x="1304" y="1390" type="line"/>
      <point x="1283" y="1393" type="line"/>
      <point x="1283" y="0" type="line"/>
      <point x="1489" y="0" type="line"/>
      <point x="1489" y="1430" type="line"/>
      <point x="1283" y="1430" type="line"/>
      <point x="819" y="340" type="line"/>
      <point x="846" y="333" type="line"/>
      <point x="381" y="1430" type="line"/>
      <point x="175" y="1430" type="line"/>
    </contour>
  </outline>
</glyph>
<glyph name="N" format="2">
  <advance width="1404"/>
  <unicode hex="004E"/>
  <note>
N
</note>
  <anchor x="702" y="0" name="bottom"/>
  <anchor x="702" y="1430" name="top"/>
  <outline>
    <contour>
      <point x="175" y="0" type="line"/>
      <point x="207" y="0" type="line"/>
      <point x="207" y="1255" type="line"/>
      <point x="188" y="1185" type="line"/>
      <point x="1134" y="0" type="line"/>
      <point x="1229" y="0" type="line"/>
      <point x="1229" y="1430" type="line"/>
      <point x="1197" y="1430" type="line"/>
      <point x="1197" y="179" type="line"/>
      <point x="1219" y="245" type="line"/>
      <point x="274" y="1430" type="line"/>
      <point x="175" y="1430" type="line"/>
    </contour>
  </outline>
</glyph>
<glyph name="P" format="2">
  <advance width="1118"/>
  <unicode hex="0050"/>
  <note>
P
</note>
  <anchor x="559" y="0" name="bottom"/>
  <anchor x="559" y="1430" name="top"/>
  <outline>
    <contour>
      <point x="175" y="0" type="line"/>
      <point x="381" y="0" type="line"/>
      <point x="381" y="655" type="line"/>
      <point x="288" y="642" type="line"/>
      <point x="523" y="642" type="line" smooth="yes"/>
      <point x="733" y="642"/>
      <point x="809" y="654"/>
      <point x="883" y="714" type="curve" smooth="yes"/>
      <point x="969" y="784"/>
      <point x="1029" y="898"/>
      <point x="1029" y="1036" type="curve" smooth="yes"/>
      <point x="1029" y="1169"/>
      <point x="974" y="1288"/>
      <point x="883" y="1358" type="curve" smooth="yes"/>
      <point x="815" y="1410"/>
      <point x="733" y="1430"/>
      <point x="523" y="1430" type="curve" smooth="yes"/>
      <point x="175" y="1430" type="line"/>
    </contour>
    <contour>
      <point x="381" y="665" type="line"/>
      <point x="381" y="1417" type="line"/>
      <point x="288" y="1394" type="line"/>
      <point x="475" y="1394" type="line" smooth="yes"/>
      <point x="761" y="1394"/>
      <point x="811" y="1208"/>
      <point x="811" y="1026" type="curve" smooth="yes"/>
      <point x="811" y="856"/>
      <point x="767" y="678"/>
      <point x="475" y="678" type="curve" smooth="yes"/>
      <point x="288" y="678" type="line"/>
    </contour>
  </outline>
</glyph>
<glyph name="Q" format="2">
  <advance width="1578"/>
  <unicode hex="0051"/>
  <note>
Q
</note>
  <anchor x="757" y="0" name="bottom"/>
  <anchor x="757" y="1430" name="top"/>
  <anchor x="789" y="715" name="center"/>
  <anchor x="932" y="0" name="ogonek"/>
  <anchor x="51" y="1430" name="topleft"/>
  <anchor x="1527" y="1430" name="topright"/>
  <outline>
    <contour>
      <point x="1033" y="-408" type="curve" smooth="yes"/>
      <point x="1118" y="-408"/>
      <point x="1156" y="-394"/>
      <point x="1156" y="-350" type="curve"/>
      <point x="1123" y="-350"/>
      <point x="1089" y="-350"/>
      <point x="1056" y="-350" type="curve" smooth="yes"/>
      <point x="914" y="-350"/>
      <point x="842" y="-272"/>
      <point x="842" y="-196" type="curve" smooth="yes"/>
      <point x="842" y="-8" type="line"/>
      <point x="648" y="-8" type="line"/>
      <point x="648" y="-182" type="line" smooth="yes"/>
      <point x="648" y="-290"/>
      <point x="713" y="-342"/>
      <point x="793" y="-371" type="curve" smooth="yes"/>
      <point x="862" y="-396"/>
      <point x="954" y="-408"/>
    </contour>
    <component base="O"/>
  </outline>
</glyph>
<glyph name="R" format="2">
  <advance width="1232"/>
  <unicode hex="0052"/>
  <note>
R
</note>
  <anchor x="616" y="0" name="bottom"/>
  <anchor x="616" y="1430" name="top"/>
  <outline>
    <contour>
      <point x="175" y="0" type="line"/>
      <point x="381" y="0" type="line"/>
      <point x="381" y="733" type="line"/>
      <point x="288" y="720" type="line"/>
      <point x="517" y="720" type="line"/>
      <point x="740" y="742" type="line"/>
      <point x="935" y="735"/>
      <point x="1071" y="854"/>
      <point x="1071" y="1072" type="curve" smooth="yes"/>
      <point x="1071" y="1319"/>
      <point x="896" y="1430"/>
      <point x="567" y="1430" type="curve" smooth="yes"/>
      <point x="175" y="1430" type="line"/>
    </contour>
    <contour>
      <point x="288" y="756" type="line"/>
      <point x="381" y="743" type="line"/>
      <point x="381" y="1407" type="line"/>
      <point x="288" y="1394" type="line"/>
      <point x="567" y="1394" type="line" smooth="yes"/>
      <point x="823" y="1394"/>
      <point x="853" y="1218"/>
      <point x="853" y="1076" type="curve" smooth="yes"/>
      <point x="853" y="903"/>
      <point x="809" y="756"/>
      <point x="567" y="756" type="curve" smooth="yes"/>
    </contour>
    <contour>
      <point x="517" y="720" type="line"/>
      <point x="648" y="720"/>
      <point x="716" y="702"/>
      <point x="766" y="597" type="curve" smooth="yes"/>
      <point x="792" y="542"/>
      <point x="801" y="507"/>
      <point x="865" y="219" type="curve" smooth="yes"/>
      <point x="887" y="120"/>
      <point x="900" y="61"/>
      <point x="915" y="0" type="curve"/>
      <point x="1137" y="0" type="line"/>
      <point x="1118" y="68"/>
      <point x="1096" y="159"/>
      <point x="1072" y="267" type="curve" smooth="yes"/>
      <point x="1003" y="577"/>
      <point x="989" y="623"/>
      <point x="939" y="675" type="curve" smooth="yes"/>
      <point x="898" y="717"/>
      <point x="836" y="737"/>
      <point x="741" y="743" type="curve"/>
    </contour>
  </outline>
</glyph>
<glyph name="S" format="2">
  <advance width="1162"/>
  <unicode hex="0053"/>
  <note>
S
</note>
  <anchor x="582" y="0" name="bottom"/>
  <anchor x="556" y="1430" name="top"/>
  <outline>
    <contour>
      <point x="584" y="-26" type="curve" smooth="yes"/>
      <point x="910" y="-26"/>
      <point x="1066" y="152"/>
      <point x="1066" y="416" type="curve" smooth="yes"/>
      <point x="1066" y="698"/>
      <point x="889" y="788"/>
      <point x="608" y="876" type="curve" smooth="yes"/>
      <point x="455" y="924"/>
      <point x="292" y="966"/>
      <point x="292" y="1147" type="curve" smooth="yes"/>
      <point x="292" y="1293"/>
      <point x="399" y="1434"/>
      <point x="539" y="1434" type="curve" smooth="yes"/>
      <point x="687" y="1434"/>
      <point x="834" y="1278"/>
      <point x="846" y="1120" type="curve"/>
      <point x="998" y="1120" type="line"/>
      <point x="952" y="1368"/>
      <point x="756" y="1464"/>
      <point x="556" y="1464" type="curve" smooth="yes"/>
      <point x="236" y="1464"/>
      <point x="134" y="1218"/>
      <point x="134" y="1060" type="curve" smooth="yes"/>
      <point x="134" y="865"/>
      <point x="289" y="774"/>
      <point x="548" y="682" type="curve" smooth="yes"/>
      <point x="747" y="611"/>
      <point x="922" y="571"/>
      <point x="922" y="358" type="curve" smooth="yes"/>
      <point x="922" y="172"/>
      <point x="788" y="10"/>
      <point x="598" y="10" type="curve" smooth="yes"/>
      <point x="390" y="10"/>
      <point x="279" y="206"/>
      <point x="258" y="420" type="curve"/>
      <point x="96" y="420" type="line"/>
      <point x="130" y="54"/>
      <point x="366" y="-26"/>
    </contour>
  </outline>
</glyph>
<glyph name="T" format="2">
  <advance width="1194"/>
  <unicode hex="0054"/>
  <note>
T
</note>
  <anchor x="598" y="0" name="bottom"/>
  <anchor x="598" y="716" name="center"/>
  <anchor x="598" y="1430" name="top"/>
  <outline>
    <contour>
      <point x="496" y="0" type="line"/>
      <point x="702" y="0" type="line"/>
      <point x="702" y="1417" type="line"/>
      <point x="609" y="1394" type="line"/>
      <point x="1126" y="1394" type="line"/>
      <point x="1126" y="1430" type="line"/>
      <point x="68" y="1430" type="line"/>
      <point x="68" y="1394" type="line"/>
      <point x="589" y="1394" type="line"/>
      <point x="496" y="1417" type="line"/>
    </contour>
  </outline>
</glyph>
<glyph name="V" format="2">
  <advance width="1352"/>
  <unicode hex="0056"/>
  <note>
V
</note>
  <anchor x="677" y="0" name="bottom"/>
  <anchor x="677" y="1430" name="top"/>
  <outline>
    <contour>
      <point x="677" y="-56" type="line"/>
      <point x="1279" y="1430" type="line"/>
      <point x="1245" y="1430" type="line"/>
      <point x="740" y="182" type="line"/>
      <point x="785" y="242" type="line"/>
      <point x="311" y="1430" type="line"/>
      <point x="73" y="1430" type="line"/>
    </contour>
  </outline>
</glyph>
<glyph name="W" format="2">
  <advance width="1926"/>
  <unicode hex="0057"/>
  <note>
W
</note>
  <anchor x="973" y="0" name="bottom"/>
  <anchor x="973" y="1430" name="top"/>
  <outline>
    <contour>
      <point x="1309" y="-56" type="line"/>
      <point x="1851" y="1430" type="line"/>
      <point x="1817" y="1430" type="line"/>
      <point x="1376" y="181" type="line"/>
      <point x="1414" y="249" type="line"/>
      <point x="943" y="1430" type="line"/>
      <point x="705" y="1430" type="line"/>
    </contour>
    <contour>
      <point x="677" y="-56" type="line"/>
      <point x="1016" y="873" type="line"/>
      <point x="1002" y="911" type="line"/>
      <point x="744" y="181" type="line"/>
      <point x="782" y="249" type="line"/>
      <point x="311" y="1430" type="line"/>
      <point x="73" y="1430" type="line"/>
    </contour>
    <contour>
      <point x="1053" y="873" type="line"/>
      <point x="1256" y="1430" type="line"/>
      <point x="1222" y="1430" type="line"/>
      <point x="1039" y="911" type="line"/>
    </contour>
  </outline>
</glyph>
<glyph name="X" format="2">
  <advance width="1276"/>
  <unicode hex="0058"/>
  <note>
X
</note>
  <anchor x="638" y="0" name="bottom"/>
  <anchor x="638" y="1430" name="top"/>
  <outline>
    <contour>
      <point x="951" y="0" type="line"/>
      <point x="1207" y="0" type="line"/>
      <point x="335" y="1430" type="line"/>
      <point x="79" y="1430" type="line"/>
    </contour>
    <contour>
      <point x="99" y="0" type="line"/>
      <point x="147" y="0" type="line"/>
      <point x="615" y="750" type="line"/>
      <point x="586" y="781" type="line"/>
    </contour>
    <contour>
      <point x="632" y="760" type="line"/>
      <point x="1056" y="1440" type="line"/>
      <point x="1008" y="1440" type="line"/>
      <point x="603" y="791" type="line"/>
    </contour>
  </outline>
</glyph>
<glyph name="Y" format="2">
  <advance width="1096"/>
  <unicode hex="0059"/>
  <note>
Y
</note>
  <anchor x="548" y="0" name="bottom"/>
  <anchor x="464" y="1430" name="top"/>
  <anchor x="-88" y="1430" name="topleft"/>
  <outline>
    <contour>
      <point x="446" y="0" type="line"/>
      <point x="652" y="0" type="line"/>
      <point x="652" y="610" type="line"/>
      <point x="1024" y="1430" type="line"/>
      <point x="982" y="1430" type="line"/>
      <point x="612" y="618" type="line"/>
      <point x="666" y="667" type="line"/>
      <point x="314" y="1430" type="line"/>
      <point x="72" y="1430" type="line"/>
      <point x="446" y="608" type="line"/>
    </contour>
  </outline>
</glyph>
<glyph name="bracketleft" format="2">
  <advance width="559"/>
  <unicode hex="005B"/>
  <note>
bracketleft
</note>
  <outline>
    <contour>
      <point x="170" y="-402" type="line"/>
      <point x="486" y="-402" type="line"/>
      <point x="486" y="-332" type="line"/>
      <point x="240" y="-332" type="line"/>
      <point x="240" y="1392" type="line"/>
      <point x="486" y="1392" type="line"/>
      <point x="486" y="1462" type="line"/>
      <point x="170" y="1462" type="line"/>
    </contour>
  </outline>
</glyph>
<glyph name="bracketright" format="2">
  <advance width="559"/>
  <unicode hex="005D"/>
  <note>
bracketright
</note>
  <outline>
    <contour>
      <point x="73" y="-402" type="line"/>
      <point x="389" y="-402" type="line"/>
      <point x="389" y="1462" type="line"/>
      <point x="73" y="1462" type="line"/>
      <point x="73" y="1392" type="line"/>
      <point x="319" y="1392" type="line"/>
      <point x="319" y="-332" type="line"/>
      <point x="73" y="-332" type="line"/>
    </contour>
  </outline>
</glyph>
<glyph name="asciicircum" format="2">
  <advance width="1016"/>
  <unicode hex="005E"/>
  <note>
asciicircum
</note>
  <outline>
    <contour>
      <point x="121" y="846" type="line"/>
      <point x="231" y="846" type="line"/>
      <point x="530" y="1379" type="line"/>
      <point x="483" y="1379" type="line"/>
      <point x="785" y="846" type="line"/>
      <point x="895" y="846" type="line"/>
      <point x="567" y="1430" type="line"/>
      <point x="449" y="1430" type="line"/>
    </contour>
  </outline>
</glyph>
<glyph name="underscore" format="2">
  <advance width="1366"/>
  <unicode hex="005F"/>
  <note>
underscore
</note>
  <outline>
    <contour>
      <point x="83" y="-434" type="line"/>
      <point x="1283" y="-434" type="line"/>
      <point x="1283" y="-364" type="line"/>
      <point x="83" y="-364" type="line"/>
    </contour>
  </outline>
</glyph>
<glyph name="b" format="2">
  <advance width="1144"/>
  <unicode hex="0062"/>
  <note>
b
</note>
  <anchor x="590" y="0" name="bottom"/>
  <anchor x="590" y="1514" name="top"/>
  <outline>
    <contour>
      <point x="654" y="-46" type="curve" smooth="yes"/>
      <point x="912" y="-46"/>
      <point x="1072" y="154"/>
      <point x="1072" y="445" type="curve" smooth="yes"/>
      <point x="1072" y="731"/>
      <point x="916" y="940"/>
      <point x="660" y="940" type="curve" smooth="yes"/>
      <point x="467" y="940"/>
      <point x="357" y="822"/>
      <point x="315" y="643" type="curve"/>
      <point x="344" y="633" type="line"/>
      <point x="344" y="1514" type="line"/>
      <point x="142" y="1514" type="line"/>
      <point x="142" y="0" type="line"/>
      <point x="340" y="0" type="line"/>
      <point x="340" y="255" type="line"/>
      <point x="310" y="243" type="line"/>
      <point x="351" y="81"/>
      <point x="448" y="-46"/>
    </contour>
    <contour>
      <point x="623" y="-4" type="curve" smooth="yes"/>
      <point x="426" y="-4"/>
      <point x="330" y="234"/>
      <point x="330" y="442" type="curve" smooth="yes"/>
      <point x="330" y="658"/>
      <point x="434" y="898"/>
      <point x="628" y="898" type="curve" smooth="yes"/>
      <point x="809" y="898"/>
      <point x="866" y="691"/>
      <point x="866" y="450" type="curve" smooth="yes"/>
      <point x="866" y="248"/>
      <point x="826" y="-4"/>
    </contour>
  </outline>
</glyph>
<glyph name="c" format="2">
  <advance width="909"/>
  <unicode hex="0063"/>
  <note>
c
</note>
  <anchor x="499" y="-10" name="bottom"/>
  <anchor x="529" y="914" name="top"/>
  <outline>
    <contour>
      <point x="536" y="-46" type="curve" smooth="yes"/>
      <point x="648" y="-46"/>
      <point x="750" y="-14"/>
      <point x="832" y="34" type="curve"/>
      <point x="832" y="212" type="line"/>
      <point x="763" y="72"/>
      <point x="650" y="-4"/>
      <point x="552" y="-4" type="curve" smooth="yes"/>
      <point x="372" y="-4"/>
      <point x="276" y="249"/>
      <point x="276" y="444" type="curve" smooth="yes"/>
      <point x="276" y="636"/>
      <point x="370" y="898"/>
      <point x="563" y="898" type="curve" smooth="yes"/>
      <point x="661" y="898"/>
      <point x="752" y="831"/>
      <point x="816" y="700" type="curve"/>
      <point x="816" y="864" type="line"/>
      <point x="723" y="909"/>
      <point x="633" y="940"/>
      <point x="532" y="940" type="curve" smooth="yes"/>
      <point x="267" y="940"/>
      <point x="72" y="724"/>
      <point x="72" y="435" type="curve" smooth="yes"/>
      <point x="72" y="154"/>
      <point x="256" y="-46"/>
    </contour>
  </outline>
</glyph>
<glyph name="d" format="2">
  <advance width="1144"/>
  <unicode hex="0064"/>
  <note>
d
</note>
  <anchor x="523" y="0" name="bottom"/>
  <anchor x="895" y="1267" name="center"/>
  <anchor x="583" y="1514" name="top"/>
  <anchor x="1120" y="1514" name="topright"/>
  <outline>
    <contour>
      <point x="490" y="-46" type="curve" smooth="yes"/>
      <point x="696" y="-46"/>
      <point x="793" y="81"/>
      <point x="834" y="243" type="curve"/>
      <point x="804" y="255" type="line"/>
      <point x="804" y="0" type="line"/>
      <point x="1002" y="0" type="line"/>
      <point x="1002" y="1514" type="line"/>
      <point x="800" y="1514" type="line"/>
      <point x="800" y="633" type="line"/>
      <point x="829" y="643" type="line"/>
      <point x="787" y="822"/>
      <point x="677" y="940"/>
      <point x="484" y="940" type="curve" smooth="yes"/>
      <point x="228" y="940"/>
      <point x="72" y="731"/>
      <point x="72" y="445" type="curve" smooth="yes"/>
      <point x="72" y="154"/>
      <point x="232" y="-46"/>
    </contour>
    <contour>
      <point x="521" y="-4" type="curve" smooth="yes"/>
      <point x="318" y="-4"/>
      <point x="278" y="248"/>
      <point x="278" y="450" type="curve" smooth="yes"/>
      <point x="278" y="691"/>
      <point x="335" y="898"/>
      <point x="516" y="898" type="curve" smooth="yes"/>
      <point x="710" y="898"/>
      <point x="814" y="658"/>
      <point x="814" y="442" type="curve" smooth="yes"/>
      <point x="814" y="234"/>
      <point x="718" y="-4"/>
    </contour>
  </outline>
</glyph>
<glyph name="e" format="2">
  <advance width="1034"/>
  <unicode hex="0065"/>
  <note>
e
</note>
  <anchor x="523" y="0" name="bottom"/>
  <anchor x="689" y="0" name="ogonek"/>
  <anchor x="523" y="914" name="top"/>
  <outline>
    <contour>
      <point x="534" y="-46" type="curve" smooth="yes"/>
      <point x="757" y="-46"/>
      <point x="873" y="80"/>
      <point x="948" y="270" type="curve"/>
      <point x="872" y="270" type="line"/>
      <point x="841" y="128"/>
      <point x="679" y="-4"/>
      <point x="543" y="-4" type="curve" smooth="yes"/>
      <point x="352" y="-4"/>
      <point x="278" y="259"/>
      <point x="278" y="442" type="curve" smooth="yes"/>
      <point x="278" y="646"/>
      <point x="369" y="898"/>
      <point x="534" y="898" type="curve" smooth="yes"/>
      <point x="687" y="898"/>
      <point x="740" y="682"/>
      <point x="768" y="504" type="curve"/>
      <point x="974" y="504" type="line"/>
      <point x="938" y="771"/>
      <point x="775" y="940"/>
      <point x="528" y="940" type="curve" smooth="yes"/>
      <point x="260" y="940"/>
      <point x="72" y="742"/>
      <point x="72" y="444" type="curve" smooth="yes"/>
      <point x="72" y="150"/>
      <point x="256" y="-46"/>
    </contour>
    <contour>
      <point x="180" y="504" type="line"/>
      <point x="950" y="504" type="line"/>
      <point x="947" y="540" type="line"/>
      <point x="183" y="540" type="line"/>
    </contour>
  </outline>
</glyph>
<glyph name="f" format="2">
  <advance width="632"/>
  <unicode hex="0066"/>
  <note>
f
</note>
  <anchor x="316" y="0" name="bottom"/>
  <anchor x="316" y="1514" name="top"/>
  <outline>
    <contour>
      <point x="209" y="0" type="line"/>
      <point x="411" y="0" type="line"/>
      <point x="411" y="1152" type="line" smooth="yes"/>
      <point x="411" y="1266"/>
      <point x="413" y="1481"/>
      <point x="461" y="1520" type="curve"/>
      <point x="526" y="1518"/>
      <point x="584" y="1484"/>
      <point x="584" y="1399" type="curve" smooth="yes"/>
      <point x="584" y="1369"/>
      <point x="577" y="1320"/>
      <point x="569" y="1289" type="curve"/>
      <point x="676" y="1289" type="line"/>
      <point x="681" y="1324"/>
      <point x="684" y="1353"/>
      <point x="684" y="1376" type="curve" smooth="yes"/>
      <point x="684" y="1480"/>
      <point x="608" y="1564"/>
      <point x="458" y="1564" type="curve" smooth="yes"/>
      <point x="271" y="1564"/>
      <point x="209" y="1435"/>
      <point x="209" y="1152" type="curve" smooth="yes"/>
    </contour>
    <contour>
      <point x="35" y="874" type="line"/>
      <point x="597" y="874" type="line"/>
      <point x="597" y="914" type="line"/>
      <point x="35" y="914" type="line"/>
    </contour>
  </outline>
</glyph>
<glyph name="g" format="2">
  <advance width="1144"/>
  <unicode hex="0067"/>
  <note>
g
</note>
  <anchor x="566" y="-526" name="bottom"/>
  <anchor x="536" y="914" name="top"/>
  <outline>
    <contour>
      <point x="501" y="-556" type="curve" smooth="yes"/>
      <point x="812" y="-556"/>
      <point x="1005" y="-342"/>
      <point x="1005" y="86" type="curve" smooth="yes"/>
      <point x="1005" y="914" type="line"/>
      <point x="803" y="914" type="line"/>
      <point x="803" y="640" type="line"/>
      <point x="825" y="671" type="line"/>
      <point x="778" y="834"/>
      <point x="670" y="940"/>
      <point x="487" y="940" type="curve" smooth="yes"/>
      <point x="231" y="940"/>
      <point x="75" y="731"/>
      <point x="75" y="445" type="curve" smooth="yes"/>
      <point x="75" y="154"/>
      <point x="235" y="-46"/>
      <point x="493" y="-46" type="curve" smooth="yes"/>
      <point x="686" y="-46"/>
      <point x="783" y="65"/>
      <point x="828" y="212" type="curve"/>
      <point x="807" y="248" type="line"/>
      <point x="807" y="20" type="line" smooth="yes"/>
      <point x="807" y="-370"/>
      <point x="639" y="-514"/>
      <point x="476" y="-514" type="curve" smooth="yes"/>
      <point x="321" y="-514"/>
      <point x="179" y="-384"/>
      <point x="165" y="-214" type="curve"/>
      <point x="75" y="-214" type="line"/>
      <point x="123" y="-442"/>
      <point x="274" y="-556"/>
    </contour>
    <contour>
      <point x="524" y="-4" type="curve" smooth="yes"/>
      <point x="321" y="-4"/>
      <point x="281" y="248"/>
      <point x="281" y="450" type="curve" smooth="yes"/>
      <point x="281" y="691"/>
      <point x="338" y="898"/>
      <point x="519" y="898" type="curve" smooth="yes"/>
      <point x="713" y="898"/>
      <point x="817" y="658"/>
      <point x="817" y="442" type="curve" smooth="yes"/>
      <point x="817" y="234"/>
      <point x="721" y="-4"/>
    </contour>
  </outline>
</glyph>
<glyph name="h" format="2">
  <advance width="1111"/>
  <unicode hex="0068"/>
  <note>
h
</note>
  <anchor x="556" y="0" name="bottom"/>
  <anchor x="246" y="1289" name="center"/>
  <anchor x="556" y="1514" name="top"/>
  <outline>
    <contour>
      <point x="142" y="0" type="line"/>
      <point x="344" y="0" type="line"/>
      <point x="344" y="462" type="line" smooth="yes"/>
      <point x="344" y="708"/>
      <point x="469" y="894"/>
      <point x="634" y="894" type="curve" smooth="yes"/>
      <point x="749" y="894"/>
      <point x="798" y="788"/>
      <point x="798" y="536" type="curve" smooth="yes"/>
      <point x="798" y="0" type="line"/>
      <point x="1000" y="0" type="line"/>
      <point x="1000" y="598" type="line" smooth="yes"/>
      <point x="1000" y="809"/>
      <point x="872" y="940"/>
      <point x="664" y="940" type="curve" smooth="yes"/>
      <point x="495" y="940"/>
      <point x="375" y="848"/>
      <point x="318" y="676" type="curve"/>
      <point x="342" y="647" type="line"/>
      <point x="344" y="1514" type="line"/>
      <point x="142" y="1514" type="line"/>
    </contour>
  </outline>
</glyph>
<glyph name="k" format="2">
  <advance width="949"/>
  <unicode hex="006B"/>
  <note>
k
</note>
  <guideline x="549" y="686" angle="49.4608"/>
  <anchor x="478" y="0" name="bottom"/>
  <anchor x="478" y="1514" name="top"/>
  <outline>
    <contour>
      <point x="142" y="0" type="line"/>
      <point x="344" y="0" type="line"/>
      <point x="344" y="1514" type="line"/>
      <point x="142" y="1514" type="line"/>
    </contour>
    <contour>
      <point x="700" y="0" type="line"/>
      <point x="914" y="0" type="line"/>
      <point x="481" y="557" type="line"/>
      <point x="361" y="420" type="line"/>
    </contour>
    <contour>
      <point x="281" y="290" type="line"/>
      <point x="814" y="914" type="line"/>
      <point x="744" y="914" type="line"/>
      <point x="260" y="348" type="line"/>
    </contour>
  </outline>
</glyph>
<glyph name="l" format="2">
  <advance width="486"/>
  <unicode hex="006C"/>
  <note>
l
</note>
  <anchor x="243" y="0" name="bottom"/>
  <anchor x="243" y="777" name="center"/>
  <anchor x="511" y="783" name="dot"/>
  <anchor x="333" y="1514" name="top"/>
  <anchor x="463" y="1494" name="topright"/>
  <outline>
    <contour>
      <point x="142" y="0" type="line"/>
      <point x="344" y="0" type="line"/>
      <point x="344" y="1514" type="line"/>
      <point x="142" y="1514" type="line"/>
    </contour>
  </outline>
</glyph>
<glyph name="m" format="2">
  <advance width="1698"/>
  <unicode hex="006D"/>
  <note>
m
</note>
  <anchor x="851" y="0" name="bottom"/>
  <anchor x="851" y="914" name="top"/>
  <outline>
    <contour>
      <point x="129" y="0" type="line"/>
      <point x="331" y="0" type="line"/>
      <point x="331" y="462" type="line" smooth="yes"/>
      <point x="331" y="646"/>
      <point x="409" y="898"/>
      <point x="583" y="898" type="curve" smooth="yes"/>
      <point x="735" y="898"/>
      <point x="779" y="708"/>
      <point x="779" y="526" type="curve" smooth="yes"/>
      <point x="779" y="0" type="line"/>
      <point x="981" y="0" type="line"/>
      <point x="981" y="462" type="line" smooth="yes"/>
      <point x="981" y="658"/>
      <point x="1033" y="884"/>
      <point x="1205" y="884" type="curve" smooth="yes"/>
      <point x="1357" y="884"/>
      <point x="1385" y="708"/>
      <point x="1385" y="526" type="curve" smooth="yes"/>
      <point x="1385" y="0" type="line"/>
      <point x="1587" y="0" type="line"/>
      <point x="1587" y="608" type="line" smooth="yes"/>
      <point x="1587" y="808"/>
      <point x="1461" y="940"/>
      <point x="1262" y="940" type="curve" smooth="yes"/>
      <point x="1090" y="940"/>
      <point x="993" y="841"/>
      <point x="907" y="683" type="curve"/>
      <point x="964" y="684" type="line"/>
      <point x="924" y="835"/>
      <point x="810" y="940"/>
      <point x="643" y="940" type="curve" smooth="yes"/>
      <point x="485" y="940"/>
      <point x="375" y="845"/>
      <point x="299" y="697" type="curve"/>
      <point x="333" y="663" type="line"/>
      <point x="333" y="914" type="line"/>
      <point x="129" y="914" type="line"/>
    </contour>
  </outline>
</glyph>
<glyph name="n" format="2">
  <advance width="1098"/>
  <unicode hex="006E"/>
  <note>
n
</note>
  <anchor x="549" y="0" name="bottom"/>
  <anchor x="589" y="914" name="top"/>
  <outline>
    <contour>
      <point x="129" y="0" type="line"/>
      <point x="331" y="0" type="line"/>
      <point x="331" y="462" type="line" smooth="yes"/>
      <point x="331" y="708"/>
      <point x="456" y="894"/>
      <point x="621" y="894" type="curve" smooth="yes"/>
      <point x="736" y="894"/>
      <point x="785" y="788"/>
      <point x="785" y="536" type="curve" smooth="yes"/>
      <point x="785" y="0" type="line"/>
      <point x="987" y="0" type="line"/>
      <point x="987" y="598" type="line" smooth="yes"/>
      <point x="987" y="809"/>
      <point x="859" y="940"/>
      <point x="651" y="940" type="curve" smooth="yes"/>
      <point x="482" y="940"/>
      <point x="362" y="848"/>
      <point x="305" y="676" type="curve"/>
      <point x="329" y="647" type="line"/>
      <point x="331" y="914" type="line"/>
      <point x="129" y="914" type="line"/>
    </contour>
  </outline>
</glyph>
<glyph name="o" format="2">
  <advance width="1069"/>
  <unicode hex="006F"/>
  <note>
o
</note>
  <anchor x="535" y="0" name="bottom"/>
  <anchor x="535" y="457" name="center"/>
  <anchor x="702" y="0" name="ogonek"/>
  <anchor x="535" y="914" name="top"/>
  <anchor x="1024" y="914" name="topright"/>
  <outline>
    <contour>
      <point x="535" y="-46" type="curve" smooth="yes"/>
      <point x="813" y="-46"/>
      <point x="997" y="150"/>
      <point x="997" y="444" type="curve" smooth="yes"/>
      <point x="997" y="742"/>
      <point x="813" y="940"/>
      <point x="535" y="940" type="curve" smooth="yes"/>
      <point x="257" y="940"/>
      <point x="72" y="742"/>
      <point x="72" y="444" type="curve" smooth="yes"/>
      <point x="72" y="150"/>
      <point x="257" y="-46"/>
    </contour>
    <contour>
      <point x="535" y="-4" type="curve" smooth="yes"/>
      <point x="358" y="-4"/>
      <point x="280" y="256"/>
      <point x="280" y="444" type="curve" smooth="yes"/>
      <point x="280" y="632"/>
      <point x="358" y="898"/>
      <point x="535" y="898" type="curve" smooth="yes"/>
      <point x="712" y="898"/>
      <point x="792" y="632"/>
      <point x="792" y="444" type="curve" smooth="yes"/>
      <point x="792" y="256"/>
      <point x="712" y="-4"/>
    </contour>
  </outline>
</glyph>
<glyph name="p" format="2">
  <advance width="1143"/>
  <unicode hex="0070"/>
  <note>
p
</note>
  <anchor x="557" y="0" name="bottom"/>
  <anchor x="557" y="914" name="top"/>
  <outline>
    <contour>
      <point x="141" y="-530" type="line"/>
      <point x="343" y="-530" type="line"/>
      <point x="343" y="281" type="line"/>
      <point x="314" y="271" type="line"/>
      <point x="356" y="92"/>
      <point x="466" y="-26"/>
      <point x="659" y="-26" type="curve" smooth="yes"/>
      <point x="915" y="-26"/>
      <point x="1071" y="183"/>
      <point x="1071" y="469" type="curve" smooth="yes"/>
      <point x="1071" y="760"/>
      <point x="911" y="960"/>
      <point x="653" y="960" type="curve" smooth="yes"/>
      <point x="447" y="960"/>
      <point x="350" y="833"/>
      <point x="309" y="671" type="curve"/>
      <point x="339" y="659" type="line"/>
      <point x="339" y="914" type="line"/>
      <point x="141" y="914" type="line"/>
    </contour>
    <contour>
      <point x="627" y="16" type="curve" smooth="yes"/>
      <point x="433" y="16"/>
      <point x="329" y="256"/>
      <point x="329" y="472" type="curve" smooth="yes"/>
      <point x="329" y="680"/>
      <point x="425" y="918"/>
      <point x="622" y="918" type="curve" smooth="yes"/>
      <point x="825" y="918"/>
      <point x="865" y="666"/>
      <point x="865" y="464" type="curve" smooth="yes"/>
      <point x="865" y="223"/>
      <point x="808" y="16"/>
    </contour>
  </outline>
</glyph>
<glyph name="q" format="2">
  <advance width="1129"/>
  <unicode hex="0071"/>
  <note>
q
</note>
  <anchor x="564" y="0" name="bottom"/>
  <anchor x="564" y="914" name="top"/>
  <outline>
    <contour>
      <point x="800" y="-530" type="line"/>
      <point x="1002" y="-530" type="line"/>
      <point x="1002" y="914" type="line"/>
      <point x="804" y="914" type="line"/>
      <point x="804" y="659" type="line"/>
      <point x="834" y="671" type="line"/>
      <point x="793" y="833"/>
      <point x="696" y="960"/>
      <point x="490" y="960" type="curve" smooth="yes"/>
      <point x="232" y="960"/>
      <point x="72" y="760"/>
      <point x="72" y="469" type="curve" smooth="yes"/>
      <point x="72" y="183"/>
      <point x="228" y="-26"/>
      <point x="484" y="-26" type="curve" smooth="yes"/>
      <point x="677" y="-26"/>
      <point x="787" y="92"/>
      <point x="829" y="271" type="curve"/>
      <point x="800" y="281" type="line"/>
    </contour>
    <contour>
      <point x="516" y="16" type="curve" smooth="yes"/>
      <point x="335" y="16"/>
      <point x="278" y="223"/>
      <point x="278" y="464" type="curve" smooth="yes"/>
      <point x="278" y="666"/>
      <point x="318" y="918"/>
      <point x="521" y="918" type="curve" smooth="yes"/>
      <point x="718" y="918"/>
      <point x="814" y="680"/>
      <point x="814" y="472" type="curve" smooth="yes"/>
      <point x="814" y="256"/>
      <point x="710" y="16"/>
    </contour>
  </outline>
</glyph>
<glyph name="t" format="2">
  <advance width="621"/>
  <unicode hex="0074"/>
  <note>
t
</note>
  <guideline x="520" y="894" angle="270"/>
  <anchor x="347" y="-10" name="bottom"/>
  <anchor x="297" y="607" name="center"/>
  <anchor x="297" y="914" name="top"/>
  <anchor x="556" y="1314" name="topright"/>
  <outline>
    <contour>
      <point x="379" y="-27" type="curve" smooth="yes"/>
      <point x="464" y="-27"/>
      <point x="520" y="-18"/>
      <point x="576" y="0" type="curve"/>
      <point x="576" y="59" type="line"/>
      <point x="521" y="28"/>
      <point x="492" y="17"/>
      <point x="427" y="17" type="curve" smooth="yes"/>
      <point x="406" y="17"/>
      <point x="379" y="37"/>
      <point x="379" y="117" type="curve" smooth="yes"/>
      <point x="379" y="874" type="line"/>
      <point x="519" y="874" type="line"/>
      <point x="519" y="914" type="line"/>
      <point x="379" y="914" type="line"/>
      <point x="379" y="1236" type="line"/>
      <point x="339" y="1236" type="line"/>
      <point x="339" y="992"/>
      <point x="147" y="914"/>
      <point x="35" y="914" type="curve"/>
      <point x="35" y="874" type="line"/>
      <point x="177" y="874" type="line"/>
      <point x="177" y="193" type="line" smooth="yes"/>
      <point x="177" y="90"/>
      <point x="234" y="-27"/>
    </contour>
  </outline>
</glyph>
<glyph name="v" format="2">
  <advance width="954"/>
  <unicode hex="0076"/>
  <note>
v
</note>
  <anchor x="478" y="0" name="bottom"/>
  <anchor x="478" y="914" name="top"/>
  <outline>
    <contour>
      <point x="464" y="-45" type="line"/>
      <point x="482" y="-45" type="line"/>
      <point x="914" y="914" type="line"/>
      <point x="868" y="914" type="line"/>
      <point x="518" y="139" type="line"/>
      <point x="571" y="189" type="line"/>
      <point x="250" y="914" type="line"/>
      <point x="41" y="914" type="line"/>
    </contour>
  </outline>
</glyph>
<glyph name="w" format="2">
  <advance width="1522"/>
  <unicode hex="0077"/>
  <note>
w
</note>
  <anchor x="761" y="0" name="bottom"/>
  <anchor x="761" y="914" name="top"/>
  <outline>
    <contour>
      <point x="1035" y="-17" type="line"/>
      <point x="1053" y="-17" type="line"/>
      <point x="1482" y="914" type="line"/>
      <point x="1434" y="914" type="line"/>
      <point x="1089" y="167" type="line"/>
      <point x="1139" y="224" type="line"/>
      <point x="829" y="914" type="line"/>
      <point x="616" y="914" type="line"/>
    </contour>
    <contour>
      <point x="459" y="-17" type="line"/>
      <point x="477" y="-17" type="line"/>
      <point x="765" y="622" type="line"/>
      <point x="741" y="674" type="line"/>
      <point x="513" y="166" type="line"/>
      <point x="565" y="221" type="line"/>
      <point x="253" y="914" type="line"/>
      <point x="40" y="914" type="line"/>
    </contour>
    <contour>
      <point x="868" y="778" type="line"/>
      <point x="929" y="914" type="line"/>
      <point x="883" y="914" type="line"/>
      <point x="834" y="802" type="line"/>
    </contour>
  </outline>
</glyph>
<glyph name="x" format="2">
  <advance width="891"/>
  <unicode hex="0078"/>
  <note>
x
</note>
  <guideline x="247" y="259" angle="52"/>
  <anchor x="413" y="0" name="bottom"/>
  <anchor x="413" y="914" name="top"/>
  <outline>
    <contour>
      <point x="612" y="0" type="line"/>
      <point x="844" y="0" type="line"/>
      <point x="284" y="914" type="line"/>
      <point x="52" y="914" type="line"/>
    </contour>
    <contour>
      <point x="60" y="0" type="line"/>
      <point x="112" y="0" type="line"/>
      <point x="391" y="378" type="line"/>
      <point x="370" y="414" type="line"/>
    </contour>
    <contour>
      <point x="525" y="517" type="line"/>
      <point x="819" y="914" type="line"/>
      <point x="771" y="914" type="line"/>
      <point x="502" y="552" type="line"/>
    </contour>
  </outline>
</glyph>
<glyph name="y" format="2">
  <advance width="890"/>
  <unicode hex="0079"/>
  <note>
y
</note>
  <guideline x="226" y="-97" angle="250.777"/>
  <guideline x="249" y="-100" angle="250.777"/>
  <anchor x="691" y="0" name="bottom"/>
  <anchor x="491" y="914" name="top"/>
  <outline>
    <contour>
      <point x="233" y="-548" type="curve" smooth="yes"/>
      <point x="321" y="-548"/>
      <point x="351" y="-490"/>
      <point x="383" y="-410" type="curve"/>
      <point x="479" y="-134"/>
      <point x="576" y="142"/>
      <point x="672" y="418" type="curve"/>
      <point x="845" y="914" type="line"/>
      <point x="797" y="914" type="line"/>
      <point x="524" y="134" type="line"/>
      <point x="570" y="187" type="line"/>
      <point x="249" y="914" type="line"/>
      <point x="41" y="914" type="line"/>
      <point x="478" y="-77" type="line"/>
      <point x="494" y="46" type="line"/>
      <point x="357" y="-346" type="line" smooth="yes"/>
      <point x="325" y="-438"/>
      <point x="297" y="-508"/>
      <point x="238" y="-508" type="curve" smooth="yes"/>
      <point x="209" y="-508"/>
      <point x="163" y="-492"/>
      <point x="159" y="-442" type="curve"/>
      <point x="88" y="-442" type="line"/>
      <point x="107" y="-507"/>
      <point x="145" y="-548"/>
    </contour>
  </outline>
</glyph>
<glyph name="z" format="2">
  <advance width="894"/>
  <unicode hex="007A"/>
  <note>
z
</note>
  <anchor x="447" y="0" name="bottom"/>
  <anchor x="447" y="457" name="center"/>
  <anchor x="447" y="914" name="top"/>
  <outline>
    <contour>
      <point x="48" y="0" type="line"/>
      <point x="826" y="0" type="line"/>
      <point x="826" y="42" type="line"/>
      <point x="225" y="42" type="line"/>
      <point x="309" y="27" type="line"/>
      <point x="842" y="914" type="line"/>
      <point x="80" y="914" type="line"/>
      <point x="80" y="872" type="line"/>
      <point x="665" y="872" type="line"/>
      <point x="585" y="893" type="line"/>
    </contour>
  </outline>
</glyph>
<glyph name="braceleft" format="2">
  <advance width="569"/>
  <unicode hex="007B"/>
  <note>
braceleft
</note>
  <outline>
    <contour>
      <point x="496" y="-402" type="curve"/>
      <point x="496" y="-332" type="line"/>
      <point x="316" y="-332"/>
      <point x="250" y="-212"/>
      <point x="250" y="8" type="curve" smooth="yes"/>
      <point x="250" y="330" type="line" smooth="yes"/>
      <point x="250" y="400"/>
      <point x="190" y="450"/>
      <point x="150" y="478" type="curve"/>
      <point x="190" y="508"/>
      <point x="250" y="556"/>
      <point x="250" y="626" type="curve" smooth="yes"/>
      <point x="250" y="1052" type="line" smooth="yes"/>
      <point x="250" y="1272"/>
      <point x="316" y="1392"/>
      <point x="496" y="1392" type="curve"/>
      <point x="496" y="1462" type="line"/>
      <point x="292" y="1462"/>
      <point x="180" y="1322"/>
      <point x="180" y="1122" type="curve" smooth="yes"/>
      <point x="180" y="626" type="line" smooth="yes"/>
      <point x="180" y="556"/>
      <point x="120" y="508"/>
      <point x="80" y="478" type="curve"/>
      <point x="120" y="448"/>
      <point x="180" y="400"/>
      <point x="180" y="330" type="curve" smooth="yes"/>
      <point x="180" y="-62" type="line" smooth="yes"/>
      <point x="180" y="-262"/>
      <point x="290" y="-402"/>
    </contour>
  </outline>
</glyph>
<glyph name="bar" format="2">
  <advance width="614"/>
  <unicode hex="007C"/>
  <note>
bar
</note>
  <outline>
    <contour>
      <point x="217" y="-300" type="line"/>
      <point x="397" y="-300" type="line"/>
      <point x="397" y="1664" type="line"/>
      <point x="217" y="1664" type="line"/>
    </contour>
  </outline>
</glyph>
<glyph name="braceright" format="2">
  <advance width="569"/>
  <unicode hex="007D"/>
  <note>
braceright
</note>
  <outline>
    <contour>
      <point x="73" y="-402" type="line"/>
      <point x="279" y="-402"/>
      <point x="389" y="-262"/>
      <point x="389" y="-62" type="curve" smooth="yes"/>
      <point x="389" y="330" type="line" smooth="yes"/>
      <point x="389" y="400"/>
      <point x="449" y="448"/>
      <point x="489" y="478" type="curve"/>
      <point x="449" y="508"/>
      <point x="389" y="556"/>
      <point x="389" y="626" type="curve" smooth="yes"/>
      <point x="389" y="1122" type="line" smooth="yes"/>
      <point x="389" y="1322"/>
      <point x="277" y="1462"/>
      <point x="73" y="1462" type="curve"/>
      <point x="73" y="1392" type="line"/>
      <point x="253" y="1392"/>
      <point x="319" y="1272"/>
      <point x="319" y="1052" type="curve" smooth="yes"/>
      <point x="319" y="626" type="line" smooth="yes"/>
      <point x="319" y="556"/>
      <point x="379" y="508"/>
      <point x="419" y="478" type="curve"/>
      <point x="379" y="450"/>
      <point x="319" y="400"/>
      <point x="319" y="330" type="curve" smooth="yes"/>
      <point x="319" y="8" type="line" smooth="yes"/>
      <point x="319" y="-212"/>
      <point x="253" y="-332"/>
      <point x="73" y="-332" type="curve"/>
    </contour>
  </outline>
</glyph>
<glyph name="asciitilde" format="2">
  <advance width="1180"/>
  <unicode hex="007E"/>
  <note>
asciitilde
</note>
  <outline>
    <contour>
      <point x="767" y="604" type="curve" smooth="yes"/>
      <point x="863" y="604"/>
      <point x="966" y="686"/>
      <point x="1051" y="750" type="curve"/>
      <point x="1002" y="822" type="line"/>
      <point x="902" y="750"/>
      <point x="817" y="720"/>
      <point x="767" y="720" type="curve" smooth="yes"/>
      <point x="710" y="720"/>
      <point x="639" y="765"/>
      <point x="599" y="788" type="curve" smooth="yes"/>
      <point x="485" y="853"/>
      <point x="428" y="854"/>
      <point x="417" y="854" type="curve" smooth="yes"/>
      <point x="311" y="854"/>
      <point x="212" y="764"/>
      <point x="126" y="700" type="curve"/>
      <point x="182" y="634" type="line"/>
      <point x="283" y="706"/>
      <point x="364" y="738"/>
      <point x="416" y="738" type="curve" smooth="yes"/>
      <point x="472" y="738"/>
      <point x="556" y="691"/>
      <point x="592" y="670" type="curve" smooth="yes"/>
      <point x="711" y="601"/>
      <point x="749" y="604"/>
    </contour>
  </outline>
</glyph>
<glyph name="Euro" format="2">
  <advance width="1511"/>
  <unicode hex="0080"/>
  <note>
Euro
</note>
  <outline>
    <contour>
      <point x="918" y="-38" type="curve" smooth="yes"/>
      <point x="1170" y="-38"/>
      <point x="1320" y="108"/>
      <point x="1374" y="276" type="curve"/>
      <point x="1246" y="276" type="line"/>
      <point x="1184" y="158"/>
      <point x="1052" y="-2"/>
      <point x="928" y="-2" type="curve" smooth="yes"/>
      <point x="636" y="-2"/>
      <point x="456" y="384"/>
      <point x="456" y="704" type="curve" smooth="yes"/>
      <point x="456" y="1038"/>
      <point x="634" y="1408"/>
      <point x="932" y="1408" type="curve" smooth="yes"/>
      <point x="1052" y="1408"/>
      <point x="1184" y="1236"/>
      <point x="1246" y="1118" type="curve"/>
      <point x="1374" y="1118" type="line"/>
      <point x="1320" y="1286"/>
      <point x="1170" y="1444"/>
      <point x="918" y="1444" type="curve" smooth="yes"/>
      <point x="528" y="1444"/>
      <point x="272" y="1106"/>
      <point x="281" y="704" type="curve" smooth="yes"/>
      <point x="290" y="280"/>
      <point x="526" y="-38"/>
    </contour>
    <contour>
      <point x="126" y="532" type="line"/>
      <point x="986" y="532" type="line"/>
      <point x="994" y="568" type="line"/>
      <point x="134" y="568" type="line"/>
    </contour>
    <contour>
      <point x="174" y="832" type="line"/>
      <point x="1034" y="832" type="line"/>
      <point x="1042" y="868" type="line"/>
      <point x="182" y="868" type="line"/>
    </contour>
  </outline>
</glyph>
<glyph name="sterling" format="2">
  <advance width="1349"/>
  <unicode hex="00A3"/>
  <note>
sterling
</note>
  <outline>
    <contour>
      <point x="502" y="106" type="curve"/>
      <point x="536" y="106"/>
      <point x="778" y="217"/>
      <point x="778" y="476" type="curve" smooth="yes"/>
      <point x="778" y="613"/>
      <point x="718" y="680"/>
      <point x="597" y="782" type="curve" smooth="yes"/>
      <point x="488" y="874"/>
      <point x="374" y="983"/>
      <point x="374" y="1147" type="curve" smooth="yes"/>
      <point x="374" y="1310"/>
      <point x="485" y="1434"/>
      <point x="621" y="1434" type="curve" smooth="yes"/>
      <point x="773" y="1434"/>
      <point x="916" y="1278"/>
      <point x="928" y="1120" type="curve"/>
      <point x="1080" y="1120" type="line"/>
      <point x="1034" y="1368"/>
      <point x="841" y="1464"/>
      <point x="638" y="1464" type="curve" smooth="yes"/>
      <point x="321" y="1464"/>
      <point x="216" y="1241"/>
      <point x="216" y="1060" type="curve" smooth="yes"/>
      <point x="216" y="888"/>
      <point x="318" y="759"/>
      <point x="411" y="692" type="curve" smooth="yes"/>
      <point x="492" y="634"/>
      <point x="614" y="586"/>
      <point x="614" y="468" type="curve" smooth="yes"/>
      <point x="614" y="322"/>
      <point x="430" y="105"/>
      <point x="234" y="106" type="curve"/>
      <point x="323" y="107"/>
      <point x="413" y="105"/>
    </contour>
    <contour>
      <point x="152" y="0" type="line"/>
      <point x="1222" y="0" type="line"/>
      <point x="1222" y="106" type="line"/>
      <point x="152" y="106" type="line"/>
    </contour>
    <contour>
      <point x="152" y="712" type="line"/>
      <point x="1022" y="712" type="line"/>
      <point x="1022" y="748" type="line"/>
      <point x="152" y="748" type="line"/>
    </contour>
  </outline>
</glyph>
<glyph name="brokenbar" format="2">
  <advance width="594"/>
  <unicode hex="00A6"/>
  <note>
brokenbar
</note>
  <outline>
    <contour>
      <point x="217" y="-300" type="line"/>
      <point x="377" y="-300" type="line"/>
      <point x="377" y="536" type="line"/>
      <point x="217" y="536" type="line"/>
    </contour>
    <contour>
      <point x="217" y="856" type="line"/>
      <point x="377" y="856" type="line"/>
      <point x="377" y="1664" type="line"/>
      <point x="217" y="1664" type="line"/>
    </contour>
  </outline>
</glyph>
<glyph name="ordfeminine" format="2">
  <advance width="901"/>
  <unicode hex="00AA"/>
  <note>
ordfeminine
</note>
  <outline>
    <contour>
      <point x="402" y="840" type="curve" smooth="yes"/>
      <point x="504" y="840"/>
      <point x="562" y="890"/>
      <point x="604" y="970" type="curve"/>
      <point x="604" y="868" type="line"/>
      <point x="732" y="868" type="line"/>
      <point x="732" y="1440" type="line"/>
      <point x="602" y="1440" type="line"/>
      <point x="602" y="1322" type="line"/>
      <point x="560" y="1404"/>
      <point x="502" y="1456"/>
      <point x="398" y="1456" type="curve" smooth="yes"/>
      <point x="238" y="1456"/>
      <point x="134" y="1326"/>
      <point x="134" y="1146" type="curve" smooth="yes"/>
      <point x="134" y="964"/>
      <point x="242" y="840"/>
    </contour>
    <contour>
      <point x="418" y="866" type="curve" smooth="yes"/>
      <point x="298" y="866"/>
      <point x="264" y="1020"/>
      <point x="264" y="1158" type="curve" smooth="yes"/>
      <point x="264" y="1298"/>
      <point x="308" y="1430"/>
      <point x="416" y="1430" type="curve" smooth="yes"/>
      <point x="528" y="1430"/>
      <point x="604" y="1280"/>
      <point x="604" y="1144" type="curve" smooth="yes"/>
      <point x="604" y="1014"/>
      <point x="534" y="866"/>
    </contour>
    <contour>
      <point x="124" y="682" type="line"/>
      <point x="758" y="682" type="line"/>
      <point x="758" y="752" type="line"/>
      <point x="124" y="752" type="line"/>
    </contour>
  </outline>
</glyph>
<glyph name="logicalnot" format="2">
  <advance width="1050"/>
  <unicode hex="00AC"/>
  <note>
logicalnot
</note>
  <outline>
    <contour>
      <point x="1191" y="348" type="line"/>
      <point x="1303" y="348" type="line"/>
      <point x="1303" y="838" type="line"/>
      <point x="133" y="838" type="line"/>
      <point x="133" y="724" type="line"/>
      <point x="1191" y="724" type="line"/>
    </contour>
  </outline>
</glyph>
<glyph name="registered" format="2">
  <advance width="1709"/>
  <unicode hex="00AE"/>
  <note>
registered
</note>
  <outline>
    <contour>
      <point x="853" y="-10" type="curve" smooth="yes"/>
      <point x="1041" y="-10"/>
      <point x="1221" y="66"/>
      <point x="1363" y="204" type="curve" smooth="yes"/>
      <point x="1499" y="336"/>
      <point x="1571" y="512"/>
      <point x="1571" y="708" type="curve" smooth="yes"/>
      <point x="1571" y="902"/>
      <point x="1497" y="1082"/>
      <point x="1365" y="1214" type="curve" smooth="yes"/>
      <point x="1227" y="1352"/>
      <point x="1049" y="1426"/>
      <point x="853" y="1426" type="curve" smooth="yes"/>
      <point x="656" y="1426"/>
      <point x="485" y="1353"/>
      <point x="353" y="1220" type="curve" smooth="yes"/>
      <point x="209" y="1075"/>
      <point x="137" y="896"/>
      <point x="137" y="708" type="curve" smooth="yes"/>
      <point x="137" y="515"/>
      <point x="212" y="340"/>
      <point x="347" y="204" type="curve" smooth="yes"/>
      <point x="490" y="60"/>
      <point x="669" y="-10"/>
    </contour>
    <contour>
      <point x="851" y="78" type="curve" smooth="yes"/>
      <point x="685" y="78"/>
      <point x="527" y="144"/>
      <point x="409" y="264" type="curve" smooth="yes"/>
      <point x="289" y="386"/>
      <point x="223" y="542"/>
      <point x="223" y="708" type="curve" smooth="yes"/>
      <point x="223" y="876"/>
      <point x="291" y="1036"/>
      <point x="413" y="1160" type="curve" smooth="yes"/>
      <point x="529" y="1278"/>
      <point x="681" y="1340"/>
      <point x="853" y="1340" type="curve" smooth="yes"/>
      <point x="1027" y="1340"/>
      <point x="1183" y="1276"/>
      <point x="1305" y="1154" type="curve" smooth="yes"/>
      <point x="1423" y="1036"/>
      <point x="1487" y="876"/>
      <point x="1487" y="704" type="curve" smooth="yes"/>
      <point x="1487" y="536"/>
      <point x="1421" y="380"/>
      <point x="1303" y="264" type="curve" smooth="yes"/>
      <point x="1179" y="142"/>
      <point x="1021" y="78"/>
    </contour>
    <contour>
      <point x="569" y="310" type="line"/>
      <point x="707" y="310" type="line"/>
      <point x="707" y="666" type="line"/>
      <point x="861" y="666" type="line"/>
      <point x="1053" y="310" type="line"/>
      <point x="1207" y="310" type="line"/>
      <point x="1003" y="678" type="line"/>
      <point x="1141" y="706"/>
      <point x="1185" y="788"/>
      <point x="1185" y="904" type="curve" smooth="yes"/>
      <point x="1185" y="1056"/>
      <point x="1095" y="1130"/>
      <point x="863" y="1130" type="curve" smooth="yes"/>
      <point x="569" y="1130" type="line"/>
    </contour>
    <contour>
      <point x="707" y="756" type="line"/>
      <point x="707" y="1040" type="line"/>
      <point x="837" y="1040" type="line" smooth="yes"/>
      <point x="997" y="1040"/>
      <point x="1043" y="996"/>
      <point x="1043" y="894" type="curve" smooth="yes"/>
      <point x="1043" y="796"/>
      <point x="1001" y="756"/>
      <point x="841" y="756" type="curve" smooth="yes"/>
    </contour>
  </outline>
</glyph>
<glyph name="degree" format="2">
  <advance width="842"/>
  <unicode hex="00B0"/>
  <note>
degree
</note>
  <outline>
    <contour>
      <point x="419" y="868" type="curve" smooth="yes"/>
      <point x="573" y="868"/>
      <point x="697" y="992"/>
      <point x="697" y="1144" type="curve" smooth="yes"/>
      <point x="697" y="1296"/>
      <point x="573" y="1420"/>
      <point x="421" y="1420" type="curve" smooth="yes"/>
      <point x="267" y="1420"/>
      <point x="145" y="1298"/>
      <point x="145" y="1144" type="curve" smooth="yes"/>
      <point x="145" y="990"/>
      <point x="265" y="868"/>
    </contour>
    <contour>
      <point x="421" y="946" type="curve" smooth="yes"/>
      <point x="311" y="946"/>
      <point x="223" y="1034"/>
      <point x="223" y="1144" type="curve" smooth="yes"/>
      <point x="223" y="1252"/>
      <point x="311" y="1340"/>
      <point x="421" y="1340" type="curve" smooth="yes"/>
      <point x="531" y="1340"/>
      <point x="617" y="1252"/>
      <point x="617" y="1144" type="curve" smooth="yes"/>
      <point x="617" y="1034"/>
      <point x="531" y="946"/>
    </contour>
  </outline>
</glyph>
<glyph name="plusminus" format="2">
  <advance width="1050"/>
  <unicode hex="00B1"/>
  <note>
plusminus
</note>
  <outline>
    <contour>
      <point x="514" y="360" type="line"/>
      <point x="586" y="360" type="line"/>
      <point x="586" y="632" type="line"/>
      <point x="958" y="632" type="line"/>
      <point x="958" y="704" type="line"/>
      <point x="586" y="704" type="line"/>
      <point x="586" y="976" type="line"/>
      <point x="514" y="976" type="line"/>
      <point x="514" y="704" type="line"/>
      <point x="142" y="704" type="line"/>
      <point x="142" y="632" type="line"/>
      <point x="514" y="632" type="line"/>
    </contour>
    <contour>
      <point x="142" y="132" type="line"/>
      <point x="958" y="132" type="line"/>
      <point x="958" y="204" type="line"/>
      <point x="142" y="204" type="line"/>
    </contour>
  </outline>
</glyph>
<glyph name="paragraph" format="2">
  <advance width="1139"/>
  <unicode hex="00B6"/>
  <note>
paragraph
</note>
  <outline>
    <contour>
      <point x="490" y="0" type="line"/>
      <point x="609" y="0" type="line"/>
      <point x="609" y="1379" type="line"/>
      <point x="781" y="1379" type="line"/>
      <point x="781" y="0" type="line"/>
      <point x="898" y="0" type="line"/>
      <point x="898" y="1379" type="line"/>
      <point x="1020" y="1379" type="line"/>
      <point x="1020" y="1450" type="line"/>
      <point x="526" y="1450" type="line" smooth="yes"/>
      <point x="286" y="1450"/>
      <point x="124" y="1300"/>
      <point x="124" y="1085" type="curve" smooth="yes"/>
      <point x="124" y="883"/>
      <point x="265" y="727"/>
      <point x="490" y="723" type="curve"/>
    </contour>
  </outline>
</glyph>
<glyph name="ordmasculine" format="2">
  <advance width="799"/>
  <unicode hex="00BA"/>
  <note>
ordmasculine
</note>
  <outline>
    <contour>
      <point x="400" y="840" type="curve" smooth="yes"/>
      <point x="582" y="840"/>
      <point x="704" y="962"/>
      <point x="704" y="1146" type="curve" smooth="yes"/>
      <point x="704" y="1332"/>
      <point x="582" y="1456"/>
      <point x="400" y="1456" type="curve" smooth="yes"/>
      <point x="218" y="1456"/>
      <point x="96" y="1332"/>
      <point x="96" y="1146" type="curve" smooth="yes"/>
      <point x="96" y="962"/>
      <point x="218" y="840"/>
    </contour>
    <contour>
      <point x="398" y="866" type="curve" smooth="yes"/>
      <point x="286" y="866"/>
      <point x="224" y="1028"/>
      <point x="224" y="1146" type="curve" smooth="yes"/>
      <point x="224" y="1264"/>
      <point x="286" y="1430"/>
      <point x="398" y="1430" type="curve" smooth="yes"/>
      <point x="510" y="1430"/>
      <point x="574" y="1264"/>
      <point x="574" y="1146" type="curve" smooth="yes"/>
      <point x="574" y="1028"/>
      <point x="510" y="866"/>
    </contour>
    <contour>
      <point x="82" y="682" type="line"/>
      <point x="716" y="682" type="line"/>
      <point x="716" y="752" type="line"/>
      <point x="82" y="752" type="line"/>
    </contour>
  </outline>
</glyph>
<glyph name="AE" format="2">
  <advance width="1874"/>
  <unicode hex="00C6"/>
  <note>
AE
</note>
  <anchor x="959" y="0" name="bottom"/>
  <anchor x="959" y="1430" name="top"/>
  <outline>
    <contour>
      <point x="69" y="0" type="line"/>
      <point x="105" y="0" type="line"/>
      <point x="965" y="1430" type="line"/>
      <point x="929" y="1430" type="line"/>
    </contour>
    <contour>
      <point x="379" y="466" type="line"/>
      <point x="1053" y="466" type="line"/>
      <point x="1053" y="502" type="line"/>
      <point x="379" y="502" type="line"/>
    </contour>
    <contour>
      <point x="929" y="0" type="line"/>
      <point x="1779" y="0" type="line"/>
      <point x="1779" y="36" type="line"/>
      <point x="1042" y="36" type="line"/>
      <point x="1135" y="13" type="line"/>
      <point x="1135" y="723" type="line"/>
      <point x="1042" y="710" type="line"/>
      <point x="1779" y="710" type="line"/>
      <point x="1779" y="746" type="line"/>
      <point x="1042" y="746" type="line"/>
      <point x="1135" y="733" type="line"/>
      <point x="1135" y="1417" type="line"/>
      <point x="1042" y="1394" type="line"/>
      <point x="1779" y="1394" type="line"/>
      <point x="1779" y="1430" type="line"/>
      <point x="929" y="1430" type="line"/>
    </contour>
  </outline>
</glyph>
<glyph name="Thorn" format="2">
  <advance width="1118"/>
  <unicode hex="00DE"/>
  <note>
Thorn
</note>
  <anchor x="559" y="0" name="bottom"/>
  <anchor x="559" y="1430" name="top"/>
  <outline>
    <contour>
      <point x="372" y="350" type="line"/>
      <point x="523" y="350" type="line" smooth="yes"/>
      <point x="733" y="350"/>
      <point x="809" y="362"/>
      <point x="883" y="422" type="curve" smooth="yes"/>
      <point x="969" y="492"/>
      <point x="1029" y="606"/>
      <point x="1029" y="744" type="curve" smooth="yes"/>
      <point x="1029" y="877"/>
      <point x="974" y="996"/>
      <point x="883" y="1066" type="curve" smooth="yes"/>
      <point x="815" y="1118"/>
      <point x="733" y="1138"/>
      <point x="523" y="1138" type="curve" smooth="yes"/>
      <point x="372" y="1138" type="line"/>
      <point x="372" y="1102" type="line"/>
      <point x="475" y="1102" type="line" smooth="yes"/>
      <point x="761" y="1102"/>
      <point x="811" y="916"/>
      <point x="811" y="734" type="curve" smooth="yes"/>
      <point x="811" y="564"/>
      <point x="767" y="386"/>
      <point x="475" y="386" type="curve" smooth="yes"/>
      <point x="372" y="386" type="line"/>
    </contour>
    <contour>
      <point x="175" y="0" type="line"/>
      <point x="381" y="0" type="line"/>
      <point x="381" y="1430" type="line"/>
      <point x="175" y="1430" type="line"/>
    </contour>
  </outline>
</glyph>
<glyph name="germandbls" format="2">
  <advance width="1269"/>
  <unicode hex="00DF"/>
  <note>
germandbls
</note>
  <anchor x="635" y="0" name="bottom"/>
  <anchor x="635" y="914" name="top"/>
  <outline>
    <contour>
      <point x="845" y="-46" type="curve" smooth="yes"/>
      <point x="1140" y="-46"/>
      <point x="1212" y="107"/>
      <point x="1212" y="255" type="curve" smooth="yes"/>
      <point x="1212" y="501"/>
      <point x="1013" y="543"/>
      <point x="852" y="576" type="curve" smooth="yes"/>
      <point x="830" y="580"/>
      <point x="656" y="606"/>
      <point x="656" y="712" type="curve" smooth="yes"/>
      <point x="656" y="773"/>
      <point x="715" y="816"/>
      <point x="782" y="867" type="curve" smooth="yes"/>
      <point x="876" y="939"/>
      <point x="988" y="1028"/>
      <point x="988" y="1211" type="curve" smooth="yes"/>
      <point x="988" y="1362"/>
      <point x="912" y="1564"/>
      <point x="594" y="1564" type="curve" smooth="yes"/>
      <point x="347" y="1564"/>
      <point x="210" y="1442"/>
      <point x="210" y="1152" type="curve" smooth="yes"/>
      <point x="210" y="0" type="line"/>
      <point x="412" y="0" type="line"/>
      <point x="412" y="1152" type="line" smooth="yes"/>
      <point x="412" y="1470"/>
      <point x="500" y="1520"/>
      <point x="607" y="1520" type="curve" smooth="yes"/>
      <point x="803" y="1520"/>
      <point x="878" y="1351"/>
      <point x="878" y="1224" type="curve" smooth="yes"/>
      <point x="878" y="1084"/>
      <point x="786" y="1024"/>
      <point x="700" y="956" type="curve" smooth="yes"/>
      <point x="624" y="896"/>
      <point x="552" y="829"/>
      <point x="552" y="695" type="curve" smooth="yes"/>
      <point x="552" y="488"/>
      <point x="724" y="417"/>
      <point x="828" y="392" type="curve" smooth="yes"/>
      <point x="929" y="368"/>
      <point x="1072" y="333"/>
      <point x="1072" y="186" type="curve" smooth="yes"/>
      <point x="1072" y="37"/>
      <point x="927" y="-2"/>
      <point x="835" y="-2" type="curve" smooth="yes"/>
      <point x="704" y="-2"/>
      <point x="630" y="78"/>
      <point x="536" y="240" type="curve"/>
      <point x="536" y="82" type="line"/>
      <point x="580" y="22"/>
      <point x="649" y="-46"/>
    </contour>
    <contour>
      <point x="36" y="875" type="line"/>
      <point x="298" y="875" type="line"/>
      <point x="298" y="915" type="line"/>
      <point x="36" y="915" type="line"/>
    </contour>
  </outline>
</glyph>
<glyph name="ae" format="2">
  <advance width="1853"/>
  <unicode hex="00E6"/>
  <note>
ae
</note>
  <guideline x="299" y="363" angle="0"/>
  <guideline x="315" y="80" angle="0"/>
  <guideline x="830" y="179" angle="90"/>
  <guideline x="804" y="734" angle="0"/>
  <anchor x="926" y="0" name="bottom"/>
  <anchor x="926" y="914" name="top"/>
  <outline>
    <contour>
      <point x="490" y="-46" type="curve" smooth="yes"/>
      <point x="696" y="-46"/>
      <point x="793" y="81"/>
      <point x="834" y="243" type="curve"/>
      <point x="804" y="255" type="line"/>
      <point x="804" y="0" type="line"/>
      <point x="1006" y="0" type="line"/>
      <point x="1006" y="914" type="line"/>
      <point x="800" y="914" type="line"/>
      <point x="800" y="633" type="line"/>
      <point x="829" y="643" type="line"/>
      <point x="787" y="822"/>
      <point x="677" y="940"/>
      <point x="484" y="940" type="curve" smooth="yes"/>
      <point x="228" y="940"/>
      <point x="72" y="731"/>
      <point x="72" y="445" type="curve" smooth="yes"/>
      <point x="72" y="154"/>
      <point x="232" y="-46"/>
    </contour>
    <contour>
      <point x="521" y="-4" type="curve" smooth="yes"/>
      <point x="318" y="-4"/>
      <point x="278" y="248"/>
      <point x="278" y="450" type="curve" smooth="yes"/>
      <point x="278" y="691"/>
      <point x="335" y="898"/>
      <point x="516" y="898" type="curve" smooth="yes"/>
      <point x="710" y="898"/>
      <point x="814" y="658"/>
      <point x="814" y="442" type="curve" smooth="yes"/>
      <point x="814" y="234"/>
      <point x="718" y="-4"/>
    </contour>
    <contour>
      <point x="1374" y="-46" type="curve" smooth="yes"/>
      <point x="1586" y="-46"/>
      <point x="1697" y="80"/>
      <point x="1768" y="270" type="curve"/>
      <point x="1696" y="270" type="line"/>
      <point x="1666" y="128"/>
      <point x="1512" y="-4"/>
      <point x="1382" y="-4" type="curve" smooth="yes"/>
      <point x="1200" y="-4"/>
      <point x="1130" y="259"/>
      <point x="1130" y="442" type="curve" smooth="yes"/>
      <point x="1130" y="646"/>
      <point x="1217" y="898"/>
      <point x="1374" y="898" type="curve" smooth="yes"/>
      <point x="1520" y="898"/>
      <point x="1570" y="682"/>
      <point x="1597" y="504" type="curve"/>
      <point x="1793" y="504" type="line"/>
      <point x="1759" y="771"/>
      <point x="1603" y="940"/>
      <point x="1368" y="940" type="curve" smooth="yes"/>
      <point x="1113" y="940"/>
      <point x="934" y="742"/>
      <point x="934" y="444" type="curve" smooth="yes"/>
      <point x="934" y="150"/>
      <point x="1109" y="-46"/>
    </contour>
    <contour>
      <point x="1037" y="504" type="line"/>
      <point x="1770" y="504" type="line"/>
      <point x="1767" y="540" type="line"/>
      <point x="1040" y="540" type="line"/>
    </contour>
  </outline>
</glyph>
<glyph name="eth" format="2">
  <advance width="1124"/>
  <unicode hex="00F0"/>
  <note>
eth
</note>
  <outline>
    <contour>
      <point x="554" y="-46" type="curve" smooth="yes"/>
      <point x="688" y="-46"/>
      <point x="808" y="13"/>
      <point x="897" y="106" type="curve" smooth="yes"/>
      <point x="984" y="197"/>
      <point x="1039" y="319"/>
      <point x="1039" y="501" type="curve" smooth="yes"/>
      <point x="1039" y="647"/>
      <point x="1004" y="836"/>
      <point x="928" y="986" type="curve" smooth="yes"/>
      <point x="789" y="1260"/>
      <point x="487" y="1444"/>
      <point x="163" y="1510" type="curve"/>
      <point x="137" y="1472" type="line"/>
      <point x="486" y="1398"/>
      <point x="749" y="1146"/>
      <point x="833" y="790" type="curve"/>
      <point x="866" y="814" type="line"/>
      <point x="776" y="889"/>
      <point x="672" y="940"/>
      <point x="554" y="940" type="curve" smooth="yes"/>
      <point x="422" y="940"/>
      <point x="298" y="876"/>
      <point x="209" y="786" type="curve" smooth="yes"/>
      <point x="113" y="689"/>
      <point x="67" y="572"/>
      <point x="67" y="443" type="curve" smooth="yes"/>
      <point x="67" y="312"/>
      <point x="115" y="198"/>
      <point x="209" y="104" type="curve" smooth="yes"/>
      <point x="301" y="12"/>
      <point x="421" y="-46"/>
    </contour>
    <contour>
      <point x="553" y="-4" type="curve" smooth="yes"/>
      <point x="373" y="-4"/>
      <point x="273" y="256"/>
      <point x="273" y="444" type="curve" smooth="yes"/>
      <point x="273" y="632"/>
      <point x="373" y="898"/>
      <point x="553" y="898" type="curve" smooth="yes"/>
      <point x="733" y="898"/>
      <point x="833" y="632"/>
      <point x="833" y="444" type="curve" smooth="yes"/>
      <point x="833" y="256"/>
      <point x="733" y="-4"/>
    </contour>
    <contour>
      <point x="185" y="1096" type="line"/>
      <point x="247" y="1096" type="line"/>
      <point x="736" y="1565" type="line"/>
      <point x="674" y="1565" type="line"/>
    </contour>
  </outline>
</glyph>
<glyph name="thorn" format="2">
  <advance width="1156"/>
  <unicode hex="00FE"/>
  <note>
thorn
</note>
  <anchor x="609" y="0" name="bottom"/>
  <anchor x="609" y="914" name="top"/>
  <outline>
    <contour>
      <point x="154" y="-530" type="line"/>
      <point x="356" y="-530" type="line"/>
      <point x="356" y="281" type="line"/>
      <point x="327" y="271" type="line"/>
      <point x="369" y="92"/>
      <point x="479" y="-26"/>
      <point x="672" y="-26" type="curve" smooth="yes"/>
      <point x="928" y="-26"/>
      <point x="1084" y="183"/>
      <point x="1084" y="469" type="curve" smooth="yes"/>
      <point x="1084" y="760"/>
      <point x="924" y="960"/>
      <point x="666" y="960" type="curve" smooth="yes"/>
      <point x="460" y="960"/>
      <point x="363" y="833"/>
      <point x="322" y="671" type="curve"/>
      <point x="352" y="659" type="line"/>
      <point x="352" y="1514" type="line"/>
      <point x="154" y="1514" type="line"/>
    </contour>
    <contour>
      <point x="640" y="16" type="curve" smooth="yes"/>
      <point x="446" y="16"/>
      <point x="342" y="256"/>
      <point x="342" y="472" type="curve" smooth="yes"/>
      <point x="342" y="680"/>
      <point x="438" y="918"/>
      <point x="635" y="918" type="curve" smooth="yes"/>
      <point x="838" y="918"/>
      <point x="878" y="666"/>
      <point x="878" y="464" type="curve" smooth="yes"/>
      <point x="878" y="223"/>
      <point x="821" y="16"/>
    </contour>
  </outline>
</glyph>
<glyph name="kgreenlandic" format="2">
  <advance width="936"/>
  <unicode hex="0138"/>
  <anchor x="468" y="0" name="bottom"/>
  <anchor x="468" y="914" name="top"/>
  <outline>
    <contour>
      <point x="129" y="0" type="line"/>
      <point x="331" y="0" type="line"/>
      <point x="331" y="914" type="line"/>
      <point x="129" y="914" type="line"/>
    </contour>
    <contour>
      <point x="687" y="0" type="line"/>
      <point x="901" y="0" type="line"/>
      <point x="468" y="557" type="line"/>
      <point x="348" y="420" type="line"/>
    </contour>
    <contour>
      <point x="268" y="290" type="line"/>
      <point x="801" y="914" type="line"/>
      <point x="731" y="914" type="line"/>
      <point x="247" y="348" type="line"/>
    </contour>
  </outline>
</glyph>
<glyph name="eng" format="2">
  <advance width="1108"/>
  <unicode hex="014B"/>
  <outline>
    <contour>
      <point x="760" y="-450" type="curve" smooth="yes"/>
      <point x="947" y="-450"/>
      <point x="997" y="-321"/>
      <point x="997" y="-38" type="curve" smooth="yes"/>
      <point x="997" y="608" type="line" smooth="yes"/>
      <point x="997" y="808"/>
      <point x="865" y="940"/>
      <point x="655" y="940" type="curve" smooth="yes"/>
      <point x="471" y="940"/>
      <point x="358" y="836"/>
      <point x="305" y="681" type="curve"/>
      <point x="329" y="647" type="line"/>
      <point x="329" y="914" type="line"/>
      <point x="129" y="914" type="line"/>
      <point x="129" y="0" type="line"/>
      <point x="331" y="0" type="line"/>
      <point x="331" y="462" type="line" smooth="yes"/>
      <point x="331" y="794"/>
      <point x="513" y="898"/>
      <point x="631" y="898" type="curve" smooth="yes"/>
      <point x="791" y="898"/>
      <point x="795" y="708"/>
      <point x="795" y="526" type="curve" smooth="yes"/>
      <point x="795" y="-38" type="line" smooth="yes"/>
      <point x="795" y="-152"/>
      <point x="795" y="-367"/>
      <point x="747" y="-406" type="curve"/>
      <point x="682" y="-404"/>
      <point x="624" y="-370"/>
      <point x="624" y="-285" type="curve" smooth="yes"/>
      <point x="624" y="-255"/>
      <point x="631" y="-206"/>
      <point x="639" y="-175" type="curve"/>
      <point x="552" y="-175" type="line"/>
      <point x="547" y="-210"/>
      <point x="544" y="-239"/>
      <point x="544" y="-262" type="curve" smooth="yes"/>
      <point x="544" y="-366"/>
      <point x="610" y="-450"/>
    </contour>
  </outline>
</glyph>
<glyph name="OE" format="2">
  <advance width="2119"/>
  <unicode hex="0152"/>
  <note>
OE
</note>
  <anchor x="1090" y="0" name="bottom"/>
  <anchor x="1090" y="1430" name="top"/>
  <outline>
    <contour>
      <point x="757" y="-26" type="curve" smooth="yes"/>
      <point x="1133" y="-26"/>
      <point x="1411" y="296"/>
      <point x="1411" y="712" type="curve" smooth="yes"/>
      <point x="1411" y="1119"/>
      <point x="1129" y="1460"/>
      <point x="757" y="1460" type="curve" smooth="yes"/>
      <point x="392" y="1460"/>
      <point x="102" y="1123"/>
      <point x="102" y="712" type="curve" smooth="yes"/>
      <point x="102" y="302"/>
      <point x="379" y="-26"/>
    </contour>
    <contour>
      <point x="757" y="4" type="curve" smooth="yes"/>
      <point x="485" y="4"/>
      <point x="308" y="288"/>
      <point x="308" y="712" type="curve" smooth="yes"/>
      <point x="308" y="1142"/>
      <point x="485" y="1430"/>
      <point x="757" y="1430" type="curve" smooth="yes"/>
      <point x="1028" y="1430"/>
      <point x="1209" y="1142"/>
      <point x="1209" y="712" type="curve" smooth="yes"/>
      <point x="1209" y="288"/>
      <point x="1028" y="4"/>
    </contour>
    <contour>
      <point x="1214" y="0" type="line"/>
      <point x="2024" y="0" type="line"/>
      <point x="2024" y="36" type="line"/>
      <point x="1322" y="36" type="line"/>
      <point x="1420" y="23" type="line"/>
      <point x="1420" y="725" type="line"/>
      <point x="1322" y="710" type="line"/>
      <point x="2024" y="710" type="line"/>
      <point x="2024" y="746" type="line"/>
      <point x="1322" y="746" type="line"/>
      <point x="1420" y="733" type="line"/>
      <point x="1420" y="1417" type="line"/>
      <point x="1322" y="1394" type="line"/>
      <point x="2024" y="1394" type="line"/>
      <point x="2024" y="1430" type="line"/>
      <point x="1214" y="1430" type="line"/>
    </contour>
  </outline>
</glyph>
<glyph name="Schwa" format="2">
  <advance width="1559"/>
  <unicode hex="018F"/>
  <anchor x="780" y="0" name="bottom"/>
  <anchor x="780" y="1430" name="top"/>
  <outline>
    <contour>
      <point x="771" y="-26" type="curve" smooth="yes"/>
      <point x="1166" y="-26"/>
      <point x="1457" y="296"/>
      <point x="1457" y="712" type="curve" smooth="yes"/>
      <point x="1457" y="1119"/>
      <point x="1161" y="1460"/>
      <point x="771" y="1460" type="curve" smooth="yes"/>
      <point x="551" y="1460"/>
      <point x="357" y="1349"/>
      <point x="232" y="1177" type="curve"/>
      <point x="393" y="1177" type="line"/>
      <point x="477" y="1337"/>
      <point x="608" y="1430"/>
      <point x="771" y="1430" type="curve" smooth="yes"/>
      <point x="1055" y="1430"/>
      <point x="1245" y="1142"/>
      <point x="1245" y="712" type="curve" smooth="yes"/>
      <point x="1245" y="288"/>
      <point x="1055" y="4"/>
      <point x="771" y="4" type="curve" smooth="yes"/>
      <point x="485" y="4"/>
      <point x="295" y="288"/>
      <point x="295" y="712" type="curve"/>
      <point x="83" y="712" type="line"/>
      <point x="83" y="302"/>
      <point x="374" y="-26"/>
    </contour>
    <contour>
      <point x="180" y="676" type="line"/>
      <point x="1397" y="676" type="line"/>
      <point x="1397" y="712" type="line"/>
      <point x="180" y="712" type="line"/>
    </contour>
  </outline>
</glyph>
<glyph name="jdotless" format="2">
  <advance width="484"/>
  <unicode hex="0237"/>
  <anchor x="254" y="-526" name="bottom"/>
  <anchor x="238" y="914" name="top"/>
  <outline>
    <contour>
      <point x="106" y="-550" type="curve" smooth="yes"/>
      <point x="293" y="-550"/>
      <point x="343" y="-421"/>
      <point x="343" y="-138" type="curve" smooth="yes"/>
      <point x="343" y="914" type="line"/>
      <point x="141" y="914" type="line"/>
      <point x="141" y="-138" type="line" smooth="yes"/>
      <point x="141" y="-252"/>
      <point x="141" y="-467"/>
      <point x="93" y="-506" type="curve"/>
      <point x="28" y="-504"/>
      <point x="-30" y="-470"/>
      <point x="-30" y="-385" type="curve" smooth="yes"/>
      <point x="-30" y="-355"/>
      <point x="-23" y="-306"/>
      <point x="-15" y="-275" type="curve"/>
      <point x="-102" y="-275" type="line"/>
      <point x="-107" y="-310"/>
      <point x="-110" y="-339"/>
      <point x="-110" y="-362" type="curve" smooth="yes"/>
      <point x="-110" y="-466"/>
      <point x="-44" y="-550"/>
    </contour>
  </outline>
</glyph>
<glyph name="primemod" format="2">
  <advance width="231"/>
  <unicode hex="02B9"/>
  <outline>
    <contour>
      <point x="231" y="1336" type="curve"/>
      <point x="67" y="1336" type="line"/>
      <point x="36" y="1263"/>
      <point x="13" y="1126"/>
      <point x="0" y="1037" type="curve"/>
      <point x="134" y="1037" type="line"/>
      <point x="177" y="1139"/>
      <point x="206" y="1243"/>
    </contour>
  </outline>
</glyph>
<glyph name="gravecomb" format="2">
  <unicode hex="0300"/>
  <note>
grave
</note>
  <anchor x="215" y="914" name="_top"/>
  <anchor x="215" y="1326" name="top"/>
  <outline>
    <contour>
      <point x="315" y="1034" type="curve"/>
      <point x="374" y="1034" type="line"/>
      <point x="345" y="1100"/>
      <point x="261" y="1256"/>
      <point x="222" y="1326" type="curve"/>
      <point x="66" y="1326" type="line"/>
      <point x="118" y="1247"/>
      <point x="217" y="1128"/>
    </contour>
  </outline>
</glyph>
<glyph name="circumflexcomb" format="2">
  <unicode hex="0302"/>
  <note>
circumflex
</note>
  <anchor x="338" y="914" name="_top"/>
  <anchor x="338" y="1416" name="top"/>
  <outline>
    <contour>
      <point x="75" y="1075" type="line"/>
      <point x="116" y="1075" type="line"/>
      <point x="331" y="1340" type="line"/>
      <point x="560" y="1075" type="line"/>
      <point x="601" y="1075" type="line"/>
      <point x="392" y="1416" type="line"/>
      <point x="282" y="1416" type="line"/>
    </contour>
  </outline>
</glyph>
<glyph name="tildecomb" format="2">
  <unicode hex="0303"/>
  <note>
tilde
</note>
  <anchor x="374" y="916" name="_top"/>
  <anchor x="378" y="1350" name="top"/>
  <outline>
    <contour>
      <point x="498" y="1122" type="curve" smooth="yes"/>
      <point x="593" y="1122"/>
      <point x="656" y="1191"/>
      <point x="696" y="1300" type="curve"/>
      <point x="674" y="1326" type="line"/>
      <point x="621" y="1249"/>
      <point x="560" y="1211"/>
      <point x="508" y="1211" type="curve" smooth="yes"/>
      <point x="413" y="1211"/>
      <point x="398" y="1350"/>
      <point x="257" y="1350" type="curve" smooth="yes"/>
      <point x="163" y="1350"/>
      <point x="98" y="1279"/>
      <point x="60" y="1169" type="curve"/>
      <point x="83" y="1143" type="line"/>
      <point x="137" y="1220"/>
      <point x="190" y="1259"/>
      <point x="245" y="1259" type="curve" smooth="yes"/>
      <point x="343" y="1259"/>
      <point x="360" y="1122"/>
    </contour>
  </outline>
</glyph>
<glyph name="macroncomb" format="2">
  <unicode hex="0304"/>
  <note>
macron
</note>
  <anchor x="382" y="914" name="_top"/>
  <anchor x="372" y="1236" name="top"/>
  <outline>
    <contour>
      <point x="81" y="1166" type="line"/>
      <point x="663" y="1166" type="line"/>
      <point x="663" y="1236" type="line"/>
      <point x="81" y="1236" type="line"/>
    </contour>
  </outline>
</glyph>
<glyph name="brevecomb" format="2">
  <unicode hex="0306"/>
  <note>
breve
</note>
  <anchor x="361" y="914" name="_top"/>
  <anchor x="361" y="1420" name="top"/>
  <outline>
    <contour>
      <point x="362" y="1116" type="curve" smooth="yes"/>
      <point x="530" y="1116"/>
      <point x="627" y="1204"/>
      <point x="655" y="1406" type="curve"/>
      <point x="612" y="1406" type="line"/>
      <point x="575" y="1269"/>
      <point x="497" y="1208"/>
      <point x="362" y="1208" type="curve" smooth="yes"/>
      <point x="225" y="1208"/>
      <point x="149" y="1268"/>
      <point x="112" y="1406" type="curve"/>
      <point x="67" y="1406" type="line"/>
      <point x="97" y="1204"/>
      <point x="194" y="1116"/>
    </contour>
  </outline>
</glyph>
<glyph name="dotaccentcomb" format="2">
  <unicode hex="0307"/>
  <anchor x="174" y="914" name="_top"/>
  <anchor x="174" y="1294" name="top"/>
  <outline>
    <contour>
      <point x="176" y="1084" type="curve" smooth="yes"/>
      <point x="237" y="1084"/>
      <point x="279" y="1126"/>
      <point x="279" y="1189" type="curve" smooth="yes"/>
      <point x="279" y="1246"/>
      <point x="233" y="1294"/>
      <point x="176" y="1294" type="curve" smooth="yes"/>
      <point x="119" y="1294"/>
      <point x="69" y="1244"/>
      <point x="69" y="1189" type="curve" smooth="yes"/>
      <point x="69" y="1128"/>
      <point x="113" y="1084"/>
    </contour>
  </outline>
</glyph>
<glyph name="dieresiscomb" format="2">
  <unicode hex="0308"/>
  <note>
dieresis
</note>
  <anchor x="336" y="914" name="_top"/>
  <anchor x="336" y="1304" name="top"/>
  <outline>
    <contour>
      <point x="514" y="1084" type="curve" smooth="yes"/>
      <point x="578" y="1084"/>
      <point x="624" y="1130"/>
      <point x="624" y="1194" type="curve" smooth="yes"/>
      <point x="624" y="1254"/>
      <point x="574" y="1304"/>
      <point x="514" y="1304" type="curve" smooth="yes"/>
      <point x="456" y="1304"/>
      <point x="404" y="1252"/>
      <point x="404" y="1194" type="curve" smooth="yes"/>
      <point x="404" y="1130"/>
      <point x="452" y="1084"/>
    </contour>
    <contour>
      <point x="160" y="1084" type="curve" smooth="yes"/>
      <point x="224" y="1084"/>
      <point x="268" y="1128"/>
      <point x="268" y="1194" type="curve" smooth="yes"/>
      <point x="268" y="1254"/>
      <point x="220" y="1304"/>
      <point x="160" y="1304" type="curve" smooth="yes"/>
      <point x="100" y="1304"/>
      <point x="48" y="1252"/>
      <point x="48" y="1194" type="curve" smooth="yes"/>
      <point x="48" y="1130"/>
      <point x="94" y="1084"/>
    </contour>
  </outline>
</glyph>
<glyph name="ringcomb" format="2">
  <unicode hex="030A"/>
  <note>
ring
</note>
  <anchor x="268" y="914" name="_top"/>
  <anchor x="268" y="1436" name="top"/>
  <outline>
    <contour>
      <point x="268" y="1036" type="curve" smooth="yes"/>
      <point x="376" y="1036"/>
      <point x="468" y="1126"/>
      <point x="468" y="1236" type="curve" smooth="yes"/>
      <point x="468" y="1344"/>
      <point x="376" y="1436"/>
      <point x="268" y="1436" type="curve" smooth="yes"/>
      <point x="158" y="1436"/>
      <point x="68" y="1344"/>
      <point x="68" y="1236" type="curve" smooth="yes"/>
      <point x="68" y="1126"/>
      <point x="158" y="1036"/>
    </contour>
    <contour>
      <point x="268" y="1096" type="curve" smooth="yes"/>
      <point x="192" y="1096"/>
      <point x="128" y="1160"/>
      <point x="128" y="1236" type="curve" smooth="yes"/>
      <point x="128" y="1312"/>
      <point x="192" y="1376"/>
      <point x="268" y="1376" type="curve" smooth="yes"/>
      <point x="344" y="1376"/>
      <point x="408" y="1312"/>
      <point x="408" y="1236" type="curve" smooth="yes"/>
      <point x="408" y="1160"/>
      <point x="344" y="1096"/>
    </contour>
  </outline>
</glyph>
<glyph name="horncomb" format="2">
  <unicode hex="031B"/>
  <anchor x="340" y="1214" name="_topright"/>
  <anchor x="312" y="1321" name="topright"/>
  <outline>
    <contour>
      <point x="292" y="1361" type="curve"/>
      <point x="212" y="1361" type="line"/>
      <point x="212" y="1283"/>
      <point x="159" y="1188"/>
      <point x="52" y="1181" type="curve"/>
      <point x="52" y="1131" type="line"/>
      <point x="171" y="1126"/>
      <point x="292" y="1221"/>
    </contour>
  </outline>
</glyph>
<glyph name="cedillacomb" format="2">
  <unicode hex="0327"/>
  <anchor x="244" y="0" name="_bottom"/>
  <anchor x="244" y="-406" name="bottom"/>
  <outline>
    <contour>
      <point x="258" y="-406" type="curve" smooth="yes"/>
      <point x="391" y="-406"/>
      <point x="452" y="-333"/>
      <point x="452" y="-262" type="curve" smooth="yes"/>
      <point x="452" y="-173"/>
      <point x="358" y="-136"/>
      <point x="284" y="-136" type="curve" smooth="yes"/>
      <point x="213" y="-136"/>
      <point x="179" y="-171"/>
      <point x="159" y="-190" type="curve"/>
      <point x="134" y="-217" type="line"/>
      <point x="172" y="-196"/>
      <point x="225" y="-191"/>
      <point x="254" y="-191" type="curve" smooth="yes"/>
      <point x="283" y="-191"/>
      <point x="342" y="-194"/>
      <point x="342" y="-262" type="curve" smooth="yes"/>
      <point x="342" y="-304"/>
      <point x="319" y="-359"/>
      <point x="244" y="-359" type="curve" smooth="yes"/>
      <point x="215" y="-359"/>
      <point x="153" y="-351"/>
      <point x="72" y="-322" type="curve"/>
      <point x="72" y="-369" type="line"/>
      <point x="148" y="-395"/>
      <point x="207" y="-406"/>
    </contour>
    <contour>
      <point x="134" y="-217" type="line"/>
      <point x="231" y="-170" type="line"/>
      <point x="322" y="0" type="line"/>
      <point x="248" y="0" type="line"/>
    </contour>
  </outline>
</glyph>
<glyph name="ogonekcomb" format="2">
  <unicode hex="0328"/>
  <anchor x="343" y="0" name="_ogonek"/>
  <outline>
    <contour>
      <point x="241" y="-406" type="curve" smooth="yes"/>
      <point x="303" y="-406"/>
      <point x="373" y="-390"/>
      <point x="473" y="-352" type="curve"/>
      <point x="473" y="-314" type="line"/>
      <point x="371" y="-354"/>
      <point x="305" y="-362"/>
      <point x="273" y="-362" type="curve" smooth="yes"/>
      <point x="181" y="-362"/>
      <point x="167" y="-294"/>
      <point x="167" y="-262" type="curve" smooth="yes"/>
      <point x="167" y="-182"/>
      <point x="241" y="-72"/>
      <point x="389" y="0" type="curve"/>
      <point x="305" y="0" type="line" smooth="yes"/>
      <point x="279" y="0"/>
      <point x="37" y="-130"/>
      <point x="37" y="-262" type="curve" smooth="yes"/>
      <point x="37" y="-334"/>
      <point x="109" y="-406"/>
    </contour>
  </outline>
</glyph>
<glyph name="slashshortcomb" format="2">
  <unicode hex="0337"/>
  <anchor x="348" y="710" name="_center"/>
  <outline>
    <contour>
      <point x="40" y="504" type="line"/>
      <point x="674" y="886" type="line"/>
      <point x="656" y="916" type="line"/>
      <point x="22" y="534" type="line"/>
    </contour>
  </outline>
</glyph>
<glyph name="Dje-cy" format="2">
  <advance width="1474"/>
  <unicode hex="0402"/>
  <outline>
    <contour>
      <point x="868" y="-33" type="line"/>
      <point x="1218" y="-33"/>
      <point x="1364" y="143"/>
      <point x="1364" y="440" type="curve" smooth="yes"/>
      <point x="1364" y="732"/>
      <point x="1217" y="872"/>
      <point x="973" y="872" type="curve" smooth="yes"/>
      <point x="810" y="872"/>
      <point x="664" y="807"/>
      <point x="584" y="650" type="curve"/>
      <point x="585" y="1438" type="line"/>
      <point x="392" y="1438" type="line"/>
      <point x="392" y="0" type="line"/>
      <point x="584" y="0" type="line"/>
      <point x="584" y="423" type="line" smooth="yes"/>
      <point x="584" y="698"/>
      <point x="770" y="804"/>
      <point x="920" y="804" type="curve" smooth="yes"/>
      <point x="1101" y="804"/>
      <point x="1171" y="663"/>
      <point x="1171" y="435" type="curve" smooth="yes"/>
      <point x="1171" y="186"/>
      <point x="1090" y="13"/>
      <point x="877" y="13" type="curve"/>
    </contour>
    <contour>
      <point x="70" y="1392" type="line"/>
      <point x="909" y="1392" type="line"/>
      <point x="909" y="1438" type="line"/>
      <point x="70" y="1438" type="line"/>
    </contour>
  </outline>
</glyph>
<glyph name="Lje-cy" format="2">
  <advance width="2113"/>
  <unicode hex="0409"/>
  <outline>
    <contour>
      <point x="1159" y="46" type="line"/>
      <point x="1137" y="0" type="line"/>
      <point x="1519" y="0" type="line" smooth="yes"/>
      <point x="1683" y="0"/>
      <point x="1807" y="41"/>
      <point x="1889" y="109" type="curve" smooth="yes"/>
      <point x="1977" y="181"/>
      <point x="2022" y="296"/>
      <point x="2022" y="429" type="curve" smooth="yes"/>
      <point x="2022" y="538"/>
      <point x="1990" y="685"/>
      <point x="1870" y="771" type="curve" smooth="yes"/>
      <point x="1797" y="824"/>
      <point x="1692" y="860"/>
      <point x="1543" y="859" type="curve" smooth="yes"/>
      <point x="1240" y="859" type="line"/>
      <point x="1278" y="807" type="line"/>
      <point x="1500" y="808" type="line" smooth="yes"/>
      <point x="1738" y="808"/>
      <point x="1825" y="646"/>
      <point x="1825" y="439" type="curve" smooth="yes"/>
      <point x="1825" y="243"/>
      <point x="1751" y="46"/>
      <point x="1500" y="46" type="curve" smooth="yes"/>
    </contour>
    <contour>
      <point x="488" y="1438" type="line"/>
      <point x="489" y="1074"/>
      <point x="477" y="844"/>
      <point x="445" y="647" type="curve" smooth="yes"/>
      <point x="392" y="317"/>
      <point x="294" y="129"/>
      <point x="141" y="129" type="curve" smooth="yes"/>
      <point x="80" y="129" type="line"/>
      <point x="80" y="0" type="line"/>
      <point x="143" y="0" type="line" smooth="yes"/>
      <point x="342" y="0"/>
      <point x="441" y="282"/>
      <point x="491" y="635" type="curve" smooth="yes"/>
      <point x="536" y="953"/>
      <point x="530" y="1175"/>
      <point x="530" y="1424" type="curve"/>
      <point x="507" y="1392" type="line"/>
      <point x="1230" y="1392" type="line"/>
      <point x="1137" y="1415" type="line"/>
      <point x="1137" y="0" type="line"/>
      <point x="1330" y="0" type="line"/>
      <point x="1330" y="1438" type="line"/>
    </contour>
  </outline>
</glyph>
<glyph name="Nje-cy" format="2">
  <advance width="2121"/>
  <unicode hex="040A"/>
  <outline>
    <contour>
      <point x="175" y="0" type="line"/>
      <point x="371" y="0" type="line"/>
      <point x="371" y="753" type="line"/>
      <point x="221" y="714" type="line"/>
      <point x="1295" y="714" type="line"/>
      <point x="1145" y="753" type="line"/>
      <point x="1145" y="0" type="line"/>
      <point x="1341" y="0" type="line"/>
      <point x="1341" y="1438" type="line"/>
      <point x="1145" y="1438" type="line"/>
      <point x="1145" y="721" type="line"/>
      <point x="1295" y="760" type="line"/>
      <point x="221" y="760" type="line"/>
      <point x="371" y="721" type="line"/>
      <point x="371" y="1438" type="line"/>
      <point x="175" y="1438" type="line"/>
    </contour>
    <contour>
      <point x="1167" y="46" type="line"/>
      <point x="1145" y="0" type="line"/>
      <point x="1527" y="0" type="line" smooth="yes"/>
      <point x="1691" y="0"/>
      <point x="1815" y="41"/>
      <point x="1897" y="109" type="curve" smooth="yes"/>
      <point x="1985" y="181"/>
      <point x="2030" y="296"/>
      <point x="2030" y="429" type="curve" smooth="yes"/>
      <point x="2030" y="538"/>
      <point x="1998" y="685"/>
      <point x="1878" y="771" type="curve" smooth="yes"/>
      <point x="1805" y="824"/>
      <point x="1700" y="860"/>
      <point x="1551" y="859" type="curve" smooth="yes"/>
      <point x="1248" y="859" type="line"/>
      <point x="1286" y="807" type="line"/>
      <point x="1508" y="808" type="line" smooth="yes"/>
      <point x="1746" y="808"/>
      <point x="1833" y="646"/>
      <point x="1833" y="439" type="curve" smooth="yes"/>
      <point x="1833" y="243"/>
      <point x="1759" y="46"/>
      <point x="1508" y="46" type="curve" smooth="yes"/>
    </contour>
  </outline>
</glyph>
<glyph name="Tshe-cy" format="2">
  <advance width="1474"/>
  <unicode hex="040B"/>
  <outline>
    <contour>
      <point x="585" y="1438" type="line"/>
      <point x="392" y="1438" type="line"/>
      <point x="392" y="0" type="line"/>
      <point x="584" y="0" type="line"/>
      <point x="584" y="423" type="line" smooth="yes"/>
      <point x="584" y="698"/>
      <point x="752" y="804"/>
      <point x="920" y="804" type="curve" smooth="yes"/>
      <point x="1083" y="804"/>
      <point x="1166" y="653"/>
      <point x="1166" y="435" type="curve" smooth="yes"/>
      <point x="1166" y="0" type="line"/>
      <point x="1359" y="0" type="line"/>
      <point x="1359" y="485" type="line" smooth="yes"/>
      <point x="1359" y="719"/>
      <point x="1220" y="872"/>
      <point x="973" y="872" type="curve" smooth="yes"/>
      <point x="766" y="872"/>
      <point x="572" y="766"/>
      <point x="524" y="490" type="curve"/>
      <point x="583" y="391" type="line"/>
    </contour>
    <contour>
      <point x="70" y="1392" type="line"/>
      <point x="909" y="1392" type="line"/>
      <point x="909" y="1438" type="line"/>
      <point x="70" y="1438" type="line"/>
    </contour>
  </outline>
</glyph>
<glyph name="Be-cy" format="2">
  <advance width="1223"/>
  <unicode hex="0411"/>
  <outline>
    <contour>
      <point x="176" y="0" type="line"/>
      <point x="705" y="1" type="line" smooth="yes"/>
      <point x="980" y="1"/>
      <point x="1134" y="165"/>
      <point x="1134" y="393" type="curve" smooth="yes"/>
      <point x="1134" y="622"/>
      <point x="980" y="786"/>
      <point x="705" y="785" type="curve" smooth="yes"/>
      <point x="285" y="783" type="line"/>
      <point x="374" y="694" type="line"/>
      <point x="374" y="1430" type="line"/>
      <point x="176" y="1430" type="line"/>
    </contour>
    <contour>
      <point x="374" y="17" type="line"/>
      <point x="374" y="829" type="line"/>
      <point x="285" y="740" type="line"/>
      <point x="605" y="740" type="line" smooth="yes"/>
      <point x="812" y="741"/>
      <point x="931" y="600"/>
      <point x="931" y="393" type="curve" smooth="yes"/>
      <point x="931" y="187"/>
      <point x="812" y="46"/>
      <point x="605" y="46" type="curve" smooth="yes"/>
      <point x="285" y="46" type="line"/>
    </contour>
    <contour>
      <point x="986" y="1384" type="line"/>
      <point x="986" y="1430" type="line"/>
      <point x="176" y="1430" type="line"/>
      <point x="176" y="1384" type="line"/>
    </contour>
  </outline>
</glyph>
<glyph name="De-cy" format="2">
  <advance width="1614"/>
  <unicode hex="0414"/>
  <outline>
    <contour>
      <point x="97" y="0" type="line"/>
      <point x="1520" y="0" type="line"/>
      <point x="1520" y="46" type="line"/>
      <point x="1194" y="46" type="line"/>
      <point x="1350" y="17" type="line"/>
      <point x="1350" y="1430" type="line"/>
      <point x="473" y="1430" type="line"/>
      <point x="473" y="1384" type="line"/>
      <point x="1313" y="1384" type="line"/>
      <point x="1157" y="1414" type="line"/>
      <point x="1157" y="17" type="line"/>
      <point x="1313" y="46" type="line"/>
      <point x="97" y="46" type="line"/>
    </contour>
    <contour>
      <point x="355" y="20" type="line"/>
      <point x="573" y="525"/>
      <point x="590" y="936"/>
      <point x="589" y="1411" type="curve"/>
      <point x="473" y="1411" type="line"/>
      <point x="474" y="937"/>
      <point x="456" y="524"/>
      <point x="227" y="20" type="curve"/>
    </contour>
    <component base="_cyrillicdescender01.case" xOffset="1298"/>
    <component base="_cyrillicdescender01.case" xScale="-1" xOffset="316"/>
  </outline>
</glyph>
<glyph name="Zhe-cy" format="2">
  <advance width="1949"/>
  <unicode hex="0416"/>
  <anchor x="1929" y="0" name="bottomright"/>
  <anchor x="975" y="1430" name="top"/>
  <outline>
    <contour>
      <point x="1654" y="0" type="line"/>
      <point x="1826" y="0" type="line"/>
      <point x="1250" y="795" type="line"/>
      <point x="1144" y="722" type="line"/>
    </contour>
    <contour>
      <point x="868" y="0" type="line"/>
      <point x="1060" y="0" type="line"/>
      <point x="1060" y="1430" type="line"/>
      <point x="868" y="1430" type="line"/>
    </contour>
    <contour>
      <point x="946" y="711" type="line"/>
      <point x="1275" y="711" type="line"/>
      <point x="1275" y="757" type="line"/>
      <point x="946" y="757" type="line"/>
    </contour>
    <contour>
      <point x="1157" y="751" type="line"/>
      <point x="1255" y="721" type="line"/>
      <point x="1764" y="1430" type="line"/>
      <point x="1641" y="1430" type="line"/>
    </contour>
    <contour>
      <point x="274" y="0" type="line"/>
      <point x="784" y="722" type="line"/>
      <point x="678" y="795" type="line"/>
      <point x="102" y="0" type="line"/>
    </contour>
    <contour>
      <point x="982" y="711" type="line"/>
      <point x="982" y="757" type="line"/>
      <point x="658" y="757" type="line"/>
      <point x="658" y="711" type="line"/>
    </contour>
    <contour>
      <point x="771" y="751" type="line"/>
      <point x="287" y="1430" type="line"/>
      <point x="164" y="1430" type="line"/>
      <point x="673" y="721" type="line"/>
    </contour>
  </outline>
</glyph>
<glyph name="Ze-cy" format="2">
  <advance width="1215"/>
  <unicode hex="0417"/>
  <anchor x="608" y="0" name="bottom"/>
  <anchor x="608" y="1430" name="top"/>
  <outline>
    <contour>
      <point x="565" y="-30" type="curve" smooth="yes"/>
      <point x="903" y="-30"/>
      <point x="1120" y="108"/>
      <point x="1120" y="383" type="curve" smooth="yes"/>
      <point x="1120" y="617"/>
      <point x="1001" y="718"/>
      <point x="724" y="766" type="curve"/>
      <point x="715" y="755" type="line"/>
      <point x="945" y="786"/>
      <point x="1043" y="889"/>
      <point x="1043" y="1106" type="curve" smooth="yes"/>
      <point x="1043" y="1355"/>
      <point x="878" y="1465"/>
      <point x="601" y="1465" type="curve" smooth="yes"/>
      <point x="376" y="1465"/>
      <point x="251" y="1392"/>
      <point x="174" y="1262" type="curve"/>
      <point x="292" y="1211" type="line"/>
      <point x="344" y="1338"/>
      <point x="451" y="1424"/>
      <point x="597" y="1424" type="curve" smooth="yes"/>
      <point x="762" y="1424"/>
      <point x="851" y="1322"/>
      <point x="851" y="1097" type="curve" smooth="yes"/>
      <point x="851" y="871"/>
      <point x="760" y="779"/>
      <point x="550" y="779" type="curve" smooth="yes"/>
      <point x="463" y="779" type="line"/>
      <point x="463" y="739" type="line"/>
      <point x="554" y="739" type="line" smooth="yes"/>
      <point x="801" y="739"/>
      <point x="908" y="643"/>
      <point x="908" y="384" type="curve" smooth="yes"/>
      <point x="908" y="132"/>
      <point x="772" y="9"/>
      <point x="571" y="9" type="curve" smooth="yes"/>
      <point x="361" y="9"/>
      <point x="246" y="148"/>
      <point x="215" y="305" type="curve"/>
      <point x="67" y="264" type="line"/>
      <point x="105" y="104"/>
      <point x="231" y="-30"/>
    </contour>
  </outline>
</glyph>
<glyph name="Ii-cy" format="2">
  <advance width="1404"/>
  <unicode hex="0418"/>
  <anchor x="702" y="0" name="bottom"/>
  <anchor x="1384" y="0" name="bottomright"/>
  <anchor x="702" y="1430" name="top"/>
  <outline>
    <contour>
      <point x="1229" y="0" type="line"/>
      <point x="1229" y="1430" type="line"/>
      <point x="1130" y="1430" type="line"/>
      <point x="185" y="245" type="line"/>
      <point x="207" y="179" type="line"/>
      <point x="207" y="1430" type="line"/>
      <point x="175" y="1430" type="line"/>
      <point x="175" y="0" type="line"/>
      <point x="270" y="0" type="line"/>
      <point x="1216" y="1185" type="line"/>
      <point x="1197" y="1255" type="line"/>
      <point x="1197" y="0" type="line"/>
    </contour>
  </outline>
</glyph>
<glyph name="Ka-cy" format="2">
  <advance width="1265"/>
  <unicode hex="041A"/>
  <guideline x="619" y="209" angle="130.088"/>
  <guideline x="510" y="178" angle="130.088"/>
  <anchor x="1315" y="0" name="bottomright"/>
  <anchor x="633" y="1438" name="top"/>
  <outline>
    <contour>
      <point x="171" y="0" type="line"/>
      <point x="364" y="0" type="line"/>
      <point x="364" y="1430" type="line"/>
      <point x="171" y="1430" type="line"/>
    </contour>
    <contour>
      <point x="410" y="664" type="line"/>
      <point x="1144" y="1430" type="line"/>
      <point x="1005" y="1430" type="line"/>
      <point x="320" y="713" type="line"/>
    </contour>
    <contour>
      <point x="965" y="0" type="line"/>
      <point x="1199" y="0" type="line"/>
      <point x="482" y="749" type="line"/>
      <point x="287" y="709" type="line"/>
    </contour>
  </outline>
</glyph>
<glyph name="El-cy" format="2">
  <advance width="1501"/>
  <unicode hex="041B"/>
  <outline>
    <contour>
      <point x="488" y="1438" type="line"/>
      <point x="489" y="1074"/>
      <point x="477" y="844"/>
      <point x="445" y="647" type="curve" smooth="yes"/>
      <point x="392" y="317"/>
      <point x="294" y="129"/>
      <point x="141" y="129" type="curve" smooth="yes"/>
      <point x="80" y="129" type="line"/>
      <point x="80" y="0" type="line"/>
      <point x="143" y="0" type="line" smooth="yes"/>
      <point x="342" y="0"/>
      <point x="441" y="282"/>
      <point x="491" y="635" type="curve" smooth="yes"/>
      <point x="539" y="953"/>
      <point x="530" y="1175"/>
      <point x="530" y="1424" type="curve"/>
      <point x="507" y="1392" type="line"/>
      <point x="1230" y="1392" type="line"/>
      <point x="1137" y="1415" type="line"/>
      <point x="1137" y="0" type="line"/>
      <point x="1330" y="0" type="line"/>
      <point x="1330" y="1438" type="line"/>
    </contour>
  </outline>
</glyph>
<glyph name="Pe-cy" format="2">
  <advance width="1484"/>
  <unicode hex="041F"/>
  <anchor x="1464" y="0" name="bottomright"/>
  <outline>
    <contour>
      <point x="172" y="0" type="line"/>
      <point x="368" y="0" type="line"/>
      <point x="368" y="1384" type="line"/>
      <point x="1117" y="1384" type="line"/>
      <point x="1117" y="0" type="line"/>
      <point x="1313" y="0" type="line"/>
      <point x="1313" y="1430" type="line"/>
      <point x="172" y="1430" type="line"/>
    </contour>
  </outline>
</glyph>
<glyph name="U-cy" format="2">
  <advance width="1045"/>
  <unicode hex="0423"/>
  <guideline x="390" y="444" angle="69.5944"/>
  <guideline x="375" y="446" angle="69.5944"/>
  <anchor x="523" y="1438" name="top"/>
  <outline>
    <contour>
      <point x="215" y="0" type="line"/>
      <point x="237" y="0" type="line"/>
      <point x="391" y="0"/>
      <point x="437" y="39"/>
      <point x="519" y="261" type="curve" smooth="yes"/>
      <point x="954" y="1434" type="line"/>
      <point x="898" y="1434" type="line"/>
      <point x="472" y="275" type="line" smooth="yes"/>
      <point x="423" y="142"/>
      <point x="383" y="59"/>
      <point x="261" y="59" type="curve" smooth="yes"/>
      <point x="215" y="59" type="line"/>
    </contour>
    <contour>
      <point x="537" y="414" type="line"/>
      <point x="624" y="657" type="line"/>
      <point x="272" y="1434" type="line"/>
      <point x="68" y="1434" type="line"/>
    </contour>
  </outline>
</glyph>
<glyph name="Ef-cy" format="2">
  <advance width="1460"/>
  <unicode hex="0424"/>
  <outline>
    <contour>
      <point x="685" y="195" type="curve"/>
      <point x="685" y="238" type="line"/>
      <point x="447" y="238"/>
      <point x="288" y="428"/>
      <point x="288" y="713" type="curve" smooth="yes"/>
      <point x="288" y="1003"/>
      <point x="447" y="1196"/>
      <point x="685" y="1196" type="curve"/>
      <point x="685" y="1239" type="line"/>
      <point x="326" y="1239"/>
      <point x="89" y="1027"/>
      <point x="89" y="709" type="curve" smooth="yes"/>
      <point x="89" y="400"/>
      <point x="326" y="195"/>
    </contour>
    <contour>
      <point x="634" y="0" type="line"/>
      <point x="827" y="0" type="line"/>
      <point x="827" y="1434" type="line"/>
      <point x="634" y="1434" type="line"/>
    </contour>
    <contour>
      <point x="775" y="195" type="line"/>
      <point x="1134" y="195"/>
      <point x="1371" y="400"/>
      <point x="1371" y="709" type="curve" smooth="yes"/>
      <point x="1371" y="1027"/>
      <point x="1134" y="1239"/>
      <point x="775" y="1239" type="curve"/>
      <point x="775" y="1196" type="line"/>
      <point x="1013" y="1196"/>
      <point x="1173" y="1001"/>
      <point x="1173" y="709" type="curve" smooth="yes"/>
      <point x="1173" y="427"/>
      <point x="1013" y="238"/>
      <point x="775" y="238" type="curve"/>
    </contour>
  </outline>
</glyph>
<glyph name="Che-cy" format="2">
  <advance width="1250"/>
  <unicode hex="0427"/>
  <anchor x="1230" y="0" name="bottomright"/>
  <anchor x="625" y="1438" name="top"/>
  <outline>
    <contour>
      <point x="885" y="0" type="line"/>
      <point x="1078" y="0" type="line"/>
      <point x="1078" y="1438" type="line"/>
      <point x="886" y="1438" type="line"/>
      <point x="886" y="1015" type="line" smooth="yes"/>
      <point x="886" y="740"/>
      <point x="718" y="634"/>
      <point x="550" y="634" type="curve" smooth="yes"/>
      <point x="387" y="634"/>
      <point x="304" y="785"/>
      <point x="304" y="1003" type="curve" smooth="yes"/>
      <point x="304" y="1438" type="line"/>
      <point x="111" y="1438" type="line"/>
      <point x="111" y="953" type="line" smooth="yes"/>
      <point x="111" y="719"/>
      <point x="250" y="566"/>
      <point x="497" y="566" type="curve" smooth="yes"/>
      <point x="704" y="566"/>
      <point x="898" y="672"/>
      <point x="946" y="948" type="curve"/>
      <point x="887" y="1047" type="line"/>
    </contour>
  </outline>
</glyph>
<glyph name="Sha-cy" format="2">
  <advance width="1831"/>
  <unicode hex="0428"/>
  <outline>
    <contour>
      <point x="175" y="0" type="line"/>
      <point x="1656" y="0" type="line"/>
      <point x="1656" y="1438" type="line"/>
      <point x="1465" y="1438" type="line"/>
      <point x="1465" y="46" type="line"/>
      <point x="366" y="46" type="line"/>
      <point x="366" y="1438" type="line"/>
      <point x="175" y="1438" type="line"/>
    </contour>
    <contour>
      <point x="819" y="0" type="line"/>
      <point x="1012" y="0" type="line"/>
      <point x="1012" y="1438" type="line"/>
      <point x="819" y="1438" type="line"/>
    </contour>
  </outline>
</glyph>
<glyph name="Softsign-cy" format="2">
  <advance width="1145"/>
  <unicode hex="042C"/>
  <outline>
    <contour>
      <point x="175" y="0" type="line"/>
      <point x="558" y="-3" type="line" smooth="yes"/>
      <point x="715" y="-2"/>
      <point x="833" y="36"/>
      <point x="912" y="96" type="curve" smooth="yes"/>
      <point x="1014" y="176"/>
      <point x="1054" y="305"/>
      <point x="1054" y="427" type="curve" smooth="yes"/>
      <point x="1054" y="548"/>
      <point x="1015" y="679"/>
      <point x="912" y="758" type="curve" smooth="yes"/>
      <point x="834" y="818"/>
      <point x="715" y="857"/>
      <point x="558" y="857" type="curve" smooth="yes"/>
      <point x="278" y="859" type="line"/>
      <point x="368" y="647" type="line"/>
      <point x="368" y="1430" type="line"/>
      <point x="175" y="1430" type="line"/>
    </contour>
    <contour>
      <point x="368" y="16" type="line"/>
      <point x="368" y="838" type="line"/>
      <point x="316" y="827" type="line"/>
      <point x="517" y="828" type="line" smooth="yes"/>
      <point x="772" y="829"/>
      <point x="852" y="629"/>
      <point x="852" y="427" type="curve" smooth="yes"/>
      <point x="852" y="226"/>
      <point x="772" y="26"/>
      <point x="517" y="26" type="curve" smooth="yes"/>
      <point x="198" y="26" type="line"/>
    </contour>
  </outline>
</glyph>
<glyph name="be-cy" format="2">
  <advance width="1110"/>
  <unicode hex="0431"/>
  <outline>
    <contour>
      <point x="563" y="-27" type="curve" smooth="yes"/>
      <point x="844" y="-27"/>
      <point x="1041" y="159"/>
      <point x="1041" y="444" type="curve" smooth="yes"/>
      <point x="1041" y="728"/>
      <point x="844" y="933"/>
      <point x="563" y="933" type="curve" smooth="yes"/>
      <point x="432" y="933"/>
      <point x="361" y="887"/>
      <point x="273" y="795" type="curve"/>
      <point x="308" y="738" type="line"/>
      <point x="356" y="978"/>
      <point x="448" y="1201"/>
      <point x="637" y="1250" type="curve" smooth="yes"/>
      <point x="750" y="1283"/>
      <point x="911" y="1298"/>
      <point x="1002" y="1440" type="curve"/>
      <point x="921" y="1458" type="line"/>
      <point x="859" y="1339"/>
      <point x="738" y="1342"/>
      <point x="647" y="1314" type="curve" smooth="yes"/>
      <point x="296" y="1244"/>
      <point x="86" y="930"/>
      <point x="86" y="444" type="curve" smooth="yes"/>
      <point x="86" y="159"/>
      <point x="283" y="-27"/>
    </contour>
    <contour>
      <point x="563" y="15" type="curve" smooth="yes"/>
      <point x="417" y="15"/>
      <point x="295" y="193"/>
      <point x="295" y="448" type="curve" smooth="yes"/>
      <point x="295" y="697"/>
      <point x="417" y="891"/>
      <point x="563" y="891" type="curve" smooth="yes"/>
      <point x="710" y="891"/>
      <point x="832" y="692"/>
      <point x="832" y="444" type="curve" smooth="yes"/>
      <point x="832" y="189"/>
      <point x="710" y="15"/>
    </contour>
  </outline>
</glyph>
<glyph name="ve-cy" format="2">
  <advance width="947"/>
  <unicode hex="0432"/>
  <outline>
    <contour>
      <point x="127" y="0" type="line"/>
      <point x="504" y="0" type="line" smooth="yes"/>
      <point x="771" y="0"/>
      <point x="881" y="110"/>
      <point x="881" y="262" type="curve" smooth="yes"/>
      <point x="881" y="393"/>
      <point x="798" y="481"/>
      <point x="650" y="496" type="curve"/>
      <point x="650" y="490" type="line"/>
      <point x="771" y="516"/>
      <point x="837" y="581"/>
      <point x="837" y="686" type="curve" smooth="yes"/>
      <point x="837" y="824"/>
      <point x="723" y="928"/>
      <point x="505" y="928" type="curve" smooth="yes"/>
      <point x="127" y="928" type="line"/>
    </contour>
    <contour>
      <point x="319" y="10" type="line"/>
      <point x="319" y="489" type="line"/>
      <point x="258" y="472" type="line"/>
      <point x="494" y="472" type="line" smooth="yes"/>
      <point x="612" y="472"/>
      <point x="693" y="389"/>
      <point x="693" y="264" type="curve" smooth="yes"/>
      <point x="693" y="121"/>
      <point x="591" y="45"/>
      <point x="453" y="45" type="curve" smooth="yes"/>
      <point x="166" y="45" type="line"/>
    </contour>
    <contour>
      <point x="319" y="495" type="line"/>
      <point x="319" y="913" type="line"/>
      <point x="162" y="883" type="line"/>
      <point x="464" y="883" type="line" smooth="yes"/>
      <point x="612" y="883"/>
      <point x="656" y="782"/>
      <point x="656" y="686" type="curve" smooth="yes"/>
      <point x="656" y="558"/>
      <point x="575" y="512"/>
      <point x="470" y="512" type="curve" smooth="yes"/>
      <point x="279" y="512" type="line"/>
    </contour>
  </outline>
</glyph>
<glyph name="ge-cy" format="2">
  <advance width="794"/>
  <unicode hex="0433"/>
  <anchor x="774" y="0" name="bottomright"/>
  <anchor x="215" y="495" name="center"/>
  <anchor x="397" y="950" name="top"/>
  <outline>
    <contour>
      <point x="121" y="928" type="line"/>
      <point x="121" y="0" type="line"/>
      <point x="317" y="0" type="line"/>
      <point x="317" y="913" type="line"/>
      <point x="159" y="870" type="line"/>
      <point x="751" y="870" type="line"/>
      <point x="751" y="928" type="line"/>
    </contour>
  </outline>
</glyph>
<glyph name="de-cy" format="2">
  <advance width="1175"/>
  <unicode hex="0434"/>
  <outline>
    <contour>
      <point x="59" y="0" type="line"/>
      <point x="1099" y="0" type="line"/>
      <point x="1099" y="37" type="line"/>
      <point x="838" y="37" type="line"/>
      <point x="978" y="11" type="line"/>
      <point x="978" y="928" type="line"/>
      <point x="327" y="928" type="line"/>
      <point x="327" y="882" type="line"/>
      <point x="955" y="882" type="line"/>
      <point x="812" y="916" type="line"/>
      <point x="812" y="11" type="line"/>
      <point x="955" y="47" type="line"/>
      <point x="59" y="47" type="line"/>
    </contour>
    <contour>
      <point x="264" y="15" type="line"/>
      <point x="412" y="357"/>
      <point x="425" y="611"/>
      <point x="427" y="912" type="curve"/>
      <point x="327" y="912" type="line"/>
      <point x="325" y="611"/>
      <point x="313" y="358"/>
      <point x="153" y="15" type="curve"/>
    </contour>
    <component base="_cyrillicdescender02" xOffset="883"/>
    <component base="_cyrillicdescender02" xScale="-1" xOffset="290"/>
  </outline>
</glyph>
<glyph name="zhe-cy" format="2">
  <advance width="1354"/>
  <unicode hex="0436"/>
  <anchor x="1334" y="0" name="bottomright"/>
  <anchor x="677" y="914" name="top"/>
  <outline>
    <contour>
      <point x="1136" y="-1" type="line"/>
      <point x="1313" y="-1" type="line"/>
      <point x="935" y="530" type="line"/>
      <point x="800" y="478" type="line"/>
    </contour>
    <contour>
      <point x="589" y="-1" type="line"/>
      <point x="765" y="-1" type="line"/>
      <point x="765" y="929" type="line"/>
      <point x="589" y="929" type="line"/>
    </contour>
    <contour>
      <point x="658" y="451" type="line"/>
      <point x="931" y="451" type="line"/>
      <point x="933" y="509" type="line"/>
      <point x="660" y="509" type="line"/>
    </contour>
    <contour>
      <point x="821" y="496" type="line"/>
      <point x="915" y="465" type="line"/>
      <point x="1263" y="929" type="line"/>
      <point x="1148" y="929" type="line"/>
    </contour>
    <contour>
      <point x="219" y="-1" type="line"/>
      <point x="554" y="478" type="line"/>
      <point x="420" y="530" type="line"/>
      <point x="41" y="-1" type="line"/>
    </contour>
    <contour>
      <point x="696" y="451" type="line"/>
      <point x="694" y="509" type="line"/>
      <point x="424" y="509" type="line"/>
      <point x="426" y="451" type="line"/>
    </contour>
    <contour>
      <point x="534" y="496" type="line"/>
      <point x="207" y="929" type="line"/>
      <point x="91" y="929" type="line"/>
      <point x="440" y="465" type="line"/>
    </contour>
  </outline>
</glyph>
<glyph name="ze-cy" format="2">
  <advance width="937"/>
  <unicode hex="0437"/>
  <anchor x="469" y="12" name="bottom"/>
  <anchor x="469" y="938" name="top"/>
  <outline>
    <contour>
      <point x="447" y="-29" type="curve" smooth="yes"/>
      <point x="710" y="-27"/>
      <point x="855" y="51"/>
      <point x="855" y="246" type="curve" smooth="yes"/>
      <point x="855" y="394"/>
      <point x="778" y="466"/>
      <point x="576" y="491" type="curve"/>
      <point x="561" y="475" type="line"/>
      <point x="734" y="500"/>
      <point x="809" y="564"/>
      <point x="809" y="701" type="curve" smooth="yes"/>
      <point x="809" y="874"/>
      <point x="683" y="948"/>
      <point x="469" y="949" type="curve" smooth="yes"/>
      <point x="281" y="950"/>
      <point x="185" y="894"/>
      <point x="125" y="778" type="curve"/>
      <point x="224" y="756" type="line"/>
      <point x="252" y="828"/>
      <point x="322" y="901"/>
      <point x="456" y="901" type="curve" smooth="yes"/>
      <point x="592" y="901"/>
      <point x="641" y="828"/>
      <point x="641" y="704" type="curve" smooth="yes"/>
      <point x="641" y="539"/>
      <point x="557" y="504"/>
      <point x="421" y="506" type="curve" smooth="yes"/>
      <point x="320" y="506" type="line"/>
      <point x="320" y="467" type="line"/>
      <point x="425" y="467" type="line" smooth="yes"/>
      <point x="590" y="469"/>
      <point x="666" y="408"/>
      <point x="666" y="249" type="curve" smooth="yes"/>
      <point x="666" y="124"/>
      <point x="605" y="19"/>
      <point x="435" y="19" type="curve" smooth="yes"/>
      <point x="284" y="19"/>
      <point x="200" y="98"/>
      <point x="170" y="211" type="curve"/>
      <point x="51" y="194" type="line"/>
      <point x="104" y="48"/>
      <point x="179" y="-30"/>
    </contour>
  </outline>
</glyph>
<glyph name="ii-cy" format="2">
  <advance width="1122"/>
  <unicode hex="0438"/>
  <anchor x="1090" y="0" name="bottomright"/>
  <anchor x="561" y="928" name="top"/>
  <outline>
    <contour>
      <point x="129" y="0" type="line"/>
      <point x="288" y="0" type="line"/>
      <point x="858" y="741" type="line"/>
      <point x="826" y="843" type="line"/>
      <point x="827" y="0" type="line"/>
      <point x="993" y="0" type="line"/>
      <point x="993" y="914" type="line"/>
      <point x="839" y="914" type="line"/>
      <point x="274" y="177" type="line"/>
      <point x="296" y="53" type="line"/>
      <point x="295" y="914" type="line"/>
      <point x="129" y="914" type="line"/>
    </contour>
  </outline>
</glyph>
<glyph name="ka-cy" format="2">
  <advance width="979"/>
  <unicode hex="043A"/>
  <anchor x="959" y="0" name="bottomright"/>
  <anchor x="490" y="928" name="top"/>
  <outline>
    <contour>
      <point x="127" y="0" type="line"/>
      <point x="315" y="0" type="line"/>
      <point x="315" y="928" type="line"/>
      <point x="127" y="928" type="line"/>
    </contour>
    <contour>
      <point x="419" y="465" type="line"/>
      <point x="901" y="928" type="line"/>
      <point x="770" y="928" type="line"/>
      <point x="299" y="475" type="line"/>
    </contour>
    <contour>
      <point x="713" y="0" type="line"/>
      <point x="943" y="0" type="line"/>
      <point x="462" y="514" type="line"/>
      <point x="282" y="466" type="line"/>
    </contour>
  </outline>
</glyph>
<glyph name="el-cy" format="2">
  <advance width="1114"/>
  <unicode hex="043B"/>
  <outline>
    <contour>
      <point x="784" y="0" type="line"/>
      <point x="986" y="0" type="line"/>
      <point x="986" y="928" type="line"/>
      <point x="345" y="928" type="line"/>
      <point x="345" y="882" type="line"/>
      <point x="940" y="882" type="line"/>
      <point x="784" y="916" type="line"/>
    </contour>
    <contour>
      <point x="38" y="0" type="line"/>
      <point x="101" y="0" type="line" smooth="yes"/>
      <point x="236" y="0"/>
      <point x="321" y="156"/>
      <point x="359" y="413" type="curve" smooth="yes"/>
      <point x="381" y="564"/>
      <point x="389" y="763"/>
      <point x="394" y="912" type="curve"/>
      <point x="345" y="912" type="line"/>
      <point x="346" y="780"/>
      <point x="333" y="562"/>
      <point x="312" y="425" type="curve" smooth="yes"/>
      <point x="276" y="195"/>
      <point x="206" y="99"/>
      <point x="100" y="99" type="curve" smooth="yes"/>
      <point x="38" y="99" type="line"/>
    </contour>
  </outline>
</glyph>
<glyph name="em-cy" format="2">
  <advance width="1264"/>
  <unicode hex="043C"/>
  <guideline x="307" y="209" angle="247.123"/>
  <guideline x="276" y="203" angle="293.1291"/>
  <outline>
    <contour>
      <point x="127" y="0" type="line"/>
      <point x="241" y="0" type="line"/>
      <point x="241" y="792" type="line"/>
      <point x="186" y="798" type="line"/>
      <point x="606" y="45" type="line"/>
      <point x="1004" y="813" type="line"/>
      <point x="972" y="799" type="line"/>
      <point x="972" y="0" type="line"/>
      <point x="1137" y="0" type="line"/>
      <point x="1137" y="928" type="line"/>
      <point x="969" y="928" type="line"/>
      <point x="620" y="247" type="line"/>
      <point x="662" y="237" type="line"/>
      <point x="282" y="928" type="line"/>
      <point x="127" y="928" type="line"/>
    </contour>
  </outline>
</glyph>
<glyph name="en-cy" format="2">
  <advance width="1175"/>
  <unicode hex="043D"/>
  <anchor x="1115" y="0" name="bottomright"/>
  <outline>
    <contour>
      <point x="128" y="-1" type="line"/>
      <point x="329" y="-1" type="line"/>
      <point x="329" y="513" type="line"/>
      <point x="183" y="450" type="line"/>
      <point x="994" y="450" type="line"/>
      <point x="846" y="513" type="line"/>
      <point x="846" y="-1" type="line"/>
      <point x="1047" y="-1" type="line"/>
      <point x="1047" y="929" type="line"/>
      <point x="846" y="929" type="line"/>
      <point x="846" y="433" type="line"/>
      <point x="994" y="509" type="line"/>
      <point x="183" y="509" type="line"/>
      <point x="329" y="433" type="line"/>
      <point x="329" y="929" type="line"/>
      <point x="128" y="929" type="line"/>
    </contour>
  </outline>
</glyph>
<glyph name="pe-cy" format="2">
  <advance width="1096"/>
  <unicode hex="043F"/>
  <anchor x="1076" y="0" name="bottomright"/>
  <outline>
    <contour>
      <point x="127" y="0" type="line"/>
      <point x="329" y="0" type="line"/>
      <point x="329" y="869" type="line"/>
      <point x="767" y="869" type="line"/>
      <point x="767" y="0" type="line"/>
      <point x="969" y="0" type="line"/>
      <point x="969" y="928" type="line"/>
      <point x="127" y="928" type="line"/>
    </contour>
  </outline>
</glyph>
<glyph name="te-cy" format="2">
  <advance width="908"/>
  <unicode hex="0442"/>
  <anchor x="888" y="0" name="bottomright"/>
  <outline>
    <contour>
      <point x="358" y="0" type="line"/>
      <point x="550" y="0" type="line"/>
      <point x="550" y="889" type="line"/>
      <point x="395" y="869" type="line"/>
      <point x="873" y="869" type="line"/>
      <point x="873" y="928" type="line"/>
      <point x="35" y="928" type="line"/>
      <point x="35" y="869" type="line"/>
      <point x="513" y="869" type="line"/>
      <point x="358" y="889" type="line"/>
    </contour>
  </outline>
</glyph>
<glyph name="ef-cy" format="2">
  <advance width="1443"/>
  <unicode hex="0444"/>
  <outline>
    <contour>
      <point x="917" y="-25" type="curve" smooth="yes"/>
      <point x="1218" y="-25"/>
      <point x="1369" y="138"/>
      <point x="1369" y="462" type="curve" smooth="yes"/>
      <point x="1369" y="789"/>
      <point x="1213" y="951"/>
      <point x="917" y="951" type="curve" smooth="yes"/>
      <point x="887" y="951"/>
      <point x="848" y="948"/>
      <point x="795" y="920" type="curve"/>
      <point x="796" y="868" type="line"/>
      <point x="838" y="892"/>
      <point x="875" y="901"/>
      <point x="914" y="901" type="curve" smooth="yes"/>
      <point x="1080" y="901"/>
      <point x="1191" y="734"/>
      <point x="1191" y="463" type="curve" smooth="yes"/>
      <point x="1191" y="197"/>
      <point x="1081" y="25"/>
      <point x="914" y="25" type="curve" smooth="yes"/>
      <point x="875" y="25"/>
      <point x="838" y="34"/>
      <point x="796" y="58" type="curve"/>
      <point x="795" y="7" type="line"/>
      <point x="848" y="-22"/>
      <point x="886" y="-25"/>
    </contour>
    <contour>
      <point x="526" y="-25" type="curve" smooth="yes"/>
      <point x="557" y="-25"/>
      <point x="595" y="-22"/>
      <point x="648" y="7" type="curve"/>
      <point x="647" y="58" type="line"/>
      <point x="605" y="34"/>
      <point x="568" y="25"/>
      <point x="529" y="25" type="curve" smooth="yes"/>
      <point x="362" y="25"/>
      <point x="252" y="193"/>
      <point x="252" y="463" type="curve" smooth="yes"/>
      <point x="252" y="731"/>
      <point x="362" y="901"/>
      <point x="529" y="901" type="curve" smooth="yes"/>
      <point x="568" y="901"/>
      <point x="605" y="892"/>
      <point x="647" y="868" type="curve"/>
      <point x="648" y="920" type="line"/>
      <point x="595" y="948"/>
      <point x="556" y="951"/>
      <point x="526" y="951" type="curve" smooth="yes"/>
      <point x="229" y="951"/>
      <point x="74" y="789"/>
      <point x="74" y="462" type="curve" smooth="yes"/>
      <point x="74" y="138"/>
      <point x="225" y="-25"/>
    </contour>
    <contour>
      <point x="635" y="-526" type="line"/>
      <point x="807" y="-526" type="line"/>
      <point x="807" y="1438" type="line"/>
      <point x="635" y="1438" type="line"/>
    </contour>
  </outline>
</glyph>
<glyph name="tse-cy" format="2">
  <advance width="1168"/>
  <unicode hex="0446"/>
  <anchor x="1077" y="928" name="bottomright"/>
  <outline>
    <contour>
      <point x="1124" y="0" type="line"/>
      <point x="1124" y="59" type="line"/>
      <point x="932" y="59" type="line"/>
      <point x="932" y="0" type="line"/>
    </contour>
    <component base="pe-cy" yScale="-1" xOffset="1" yOffset="928"/>
    <component base="_cyrillicdescender01" xScale="-1" xOffset="1179"/>
  </outline>
</glyph>
<glyph name="che-cy" format="2">
  <advance width="971"/>
  <unicode hex="0447"/>
  <anchor x="921" y="0" name="bottomright"/>
  <anchor x="486" y="914" name="top"/>
  <outline>
    <contour>
      <point x="656" y="0" type="line"/>
      <point x="845" y="0" type="line"/>
      <point x="845" y="928" type="line"/>
      <point x="657" y="928" type="line"/>
      <point x="657" y="605" type="line" smooth="yes"/>
      <point x="657" y="498"/>
      <point x="557" y="392"/>
      <point x="433" y="392" type="curve" smooth="yes"/>
      <point x="321" y="392"/>
      <point x="263" y="485"/>
      <point x="263" y="625" type="curve" smooth="yes"/>
      <point x="263" y="928" type="line"/>
      <point x="75" y="928" type="line"/>
      <point x="75" y="595" type="line" smooth="yes"/>
      <point x="75" y="419"/>
      <point x="188" y="320"/>
      <point x="376" y="320" type="curve" smooth="yes"/>
      <point x="533" y="320"/>
      <point x="665" y="389"/>
      <point x="698" y="560" type="curve"/>
      <point x="658" y="645" type="line"/>
    </contour>
  </outline>
</glyph>
<glyph name="sha-cy" format="2">
  <advance width="1360"/>
  <unicode hex="0448"/>
  <anchor x="1294" y="0" name="bottomright"/>
  <outline>
    <contour>
      <point x="121" y="0" type="line"/>
      <point x="1239" y="0" type="line"/>
      <point x="1239" y="928" type="line"/>
      <point x="1063" y="928" type="line"/>
      <point x="1063" y="60" type="line"/>
      <point x="297" y="60" type="line"/>
      <point x="297" y="928" type="line"/>
      <point x="121" y="928" type="line"/>
    </contour>
    <contour>
      <point x="592" y="0" type="line"/>
      <point x="768" y="0" type="line"/>
      <point x="768" y="928" type="line"/>
      <point x="592" y="928" type="line"/>
    </contour>
  </outline>
</glyph>
<glyph name="softsign-cy" format="2">
  <advance width="891"/>
  <unicode hex="044C"/>
  <outline>
    <contour>
      <point x="127" y="-1" type="line"/>
      <point x="482" y="0" type="line" smooth="yes"/>
      <point x="703" y="1"/>
      <point x="837" y="81"/>
      <point x="837" y="292" type="curve" smooth="yes"/>
      <point x="837" y="500"/>
      <point x="708" y="587"/>
      <point x="483" y="587" type="curve" smooth="yes"/>
      <point x="252" y="587" type="line"/>
      <point x="330" y="543" type="line"/>
      <point x="330" y="928" type="line"/>
      <point x="128" y="928" type="line"/>
    </contour>
    <contour>
      <point x="330" y="13" type="line"/>
      <point x="330" y="572" type="line"/>
      <point x="290" y="541" type="line"/>
      <point x="436" y="542" type="line" smooth="yes"/>
      <point x="580" y="543"/>
      <point x="657" y="452"/>
      <point x="657" y="292" type="curve" smooth="yes"/>
      <point x="657" y="131"/>
      <point x="583" y="46"/>
      <point x="436" y="45" type="curve" smooth="yes"/>
      <point x="156" y="44" type="line"/>
    </contour>
  </outline>
</glyph>
<glyph name="ereversed-cy" format="2">
  <advance width="1059"/>
  <unicode hex="044D"/>
  <anchor x="527" y="688" name="top"/>
  <outline>
    <contour>
      <point x="484" y="-33" type="curve" smooth="yes"/>
      <point x="793" y="-33"/>
      <point x="987" y="165"/>
      <point x="987" y="459" type="curve" smooth="yes"/>
      <point x="987" y="759"/>
      <point x="782" y="954"/>
      <point x="485" y="954" type="curve" smooth="yes"/>
      <point x="284" y="954"/>
      <point x="133" y="865"/>
      <point x="54" y="716" type="curve"/>
      <point x="244" y="714" type="line"/>
      <point x="296" y="836"/>
      <point x="382" y="906"/>
      <point x="490" y="906" type="curve" smooth="yes"/>
      <point x="664" y="906"/>
      <point x="787" y="729"/>
      <point x="787" y="458" type="curve" smooth="yes"/>
      <point x="787" y="193"/>
      <point x="666" y="15"/>
      <point x="489" y="15" type="curve" smooth="yes"/>
      <point x="378" y="15"/>
      <point x="292" y="86"/>
      <point x="238" y="215" type="curve"/>
      <point x="46" y="213" type="line"/>
      <point x="125" y="58"/>
      <point x="273" y="-33"/>
    </contour>
    <contour>
      <point x="359" y="440" type="line"/>
      <point x="837" y="440" type="line"/>
      <point x="837" y="481" type="line"/>
      <point x="359" y="481" type="line"/>
    </contour>
  </outline>
</glyph>
<glyph name="ia-cy" format="2">
  <advance width="976"/>
  <unicode hex="044F"/>
  <anchor x="488" y="927" name="top"/>
  <outline>
    <contour>
      <point x="668" y="-1" type="line"/>
      <point x="855" y="-1" type="line"/>
      <point x="855" y="929" type="line"/>
      <point x="496" y="929" type="line" smooth="yes"/>
      <point x="285" y="929"/>
      <point x="126" y="835"/>
      <point x="126" y="659" type="curve" smooth="yes"/>
      <point x="126" y="495"/>
      <point x="253" y="406"/>
      <point x="434" y="394" type="curve"/>
      <point x="476" y="392" type="line"/>
      <point x="751" y="392" type="line"/>
      <point x="668" y="428" type="line"/>
    </contour>
    <contour>
      <point x="668" y="415" type="line"/>
      <point x="720" y="438" type="line"/>
      <point x="513" y="438" type="line" smooth="yes"/>
      <point x="375" y="438"/>
      <point x="298" y="518"/>
      <point x="298" y="655" type="curve" smooth="yes"/>
      <point x="298" y="783"/>
      <point x="372" y="886"/>
      <point x="529" y="886" type="curve" smooth="yes"/>
      <point x="827" y="886" type="line"/>
      <point x="668" y="920" type="line"/>
    </contour>
    <contour>
      <point x="75" y="-1" type="curve"/>
      <point x="263" y="-1" type="line"/>
      <point x="276" y="52"/>
      <point x="284" y="101"/>
      <point x="297" y="147" type="curve" smooth="yes"/>
      <point x="333" y="269"/>
      <point x="351" y="303"/>
      <point x="399" y="341" type="curve" smooth="yes"/>
      <point x="440" y="373"/>
      <point x="499" y="391"/>
      <point x="572" y="394" type="curve"/>
      <point x="360" y="421" type="line"/>
      <point x="316" y="421"/>
      <point x="256" y="400"/>
      <point x="213" y="362" type="curve" smooth="yes"/>
      <point x="175" y="327"/>
      <point x="150" y="281"/>
      <point x="124" y="188" type="curve" smooth="yes"/>
      <point x="108" y="134"/>
      <point x="93" y="57"/>
    </contour>
  </outline>
</glyph>
<glyph name="dje-cy" format="2">
  <advance width="1120"/>
  <unicode hex="0452"/>
  <outline>
    <contour>
      <point x="142" y="0" type="line"/>
      <point x="344" y="0" type="line"/>
      <point x="344" y="462" type="line" smooth="yes"/>
      <point x="344" y="708"/>
      <point x="469" y="894"/>
      <point x="634" y="894" type="curve" smooth="yes"/>
      <point x="749" y="894"/>
      <point x="798" y="788"/>
      <point x="798" y="536" type="curve" smooth="yes"/>
      <point x="798" y="0" type="line"/>
      <point x="1000" y="0" type="line"/>
      <point x="1000" y="598" type="line" smooth="yes"/>
      <point x="1000" y="809"/>
      <point x="872" y="940"/>
      <point x="664" y="940" type="curve" smooth="yes"/>
      <point x="495" y="940"/>
      <point x="375" y="848"/>
      <point x="318" y="676" type="curve"/>
      <point x="342" y="647" type="line"/>
      <point x="344" y="1514" type="line"/>
      <point x="142" y="1514" type="line"/>
    </contour>
    <contour>
      <point x="3" y="1271" type="line"/>
      <point x="489" y="1271" type="line"/>
      <point x="489" y="1307" type="line"/>
      <point x="3" y="1307" type="line"/>
    </contour>
    <contour>
      <point x="763" y="-550" type="curve" smooth="yes"/>
      <point x="950" y="-550"/>
      <point x="1000" y="-421"/>
      <point x="1000" y="-138" type="curve" smooth="yes"/>
      <point x="1000" y="314" type="line"/>
      <point x="798" y="314" type="line"/>
      <point x="798" y="-138" type="line" smooth="yes"/>
      <point x="798" y="-252"/>
      <point x="798" y="-467"/>
      <point x="750" y="-506" type="curve"/>
      <point x="685" y="-504"/>
      <point x="627" y="-470"/>
      <point x="627" y="-385" type="curve" smooth="yes"/>
      <point x="627" y="-355"/>
      <point x="634" y="-306"/>
      <point x="642" y="-275" type="curve"/>
      <point x="555" y="-275" type="line"/>
      <point x="550" y="-310"/>
      <point x="547" y="-339"/>
      <point x="547" y="-362" type="curve" smooth="yes"/>
      <point x="547" y="-466"/>
      <point x="613" y="-550"/>
    </contour>
  </outline>
</glyph>
<glyph name="Yat-cy" format="2">
  <advance width="1104"/>
  <unicode hex="0462"/>
  <outline>
    <contour>
      <point x="258" y="0" type="line"/>
      <point x="591" y="-1" type="line" smooth="yes"/>
      <point x="722" y="-1"/>
      <point x="828" y="33"/>
      <point x="893" y="88" type="curve" smooth="yes"/>
      <point x="979" y="158"/>
      <point x="1013" y="274"/>
      <point x="1013" y="382" type="curve" smooth="yes"/>
      <point x="1013" y="488"/>
      <point x="981" y="606"/>
      <point x="893" y="676" type="curve" smooth="yes"/>
      <point x="829" y="729"/>
      <point x="722" y="765"/>
      <point x="591" y="765" type="curve" smooth="yes"/>
      <point x="358" y="765" type="line"/>
      <point x="451" y="746" type="line"/>
      <point x="451" y="1438" type="line"/>
      <point x="258" y="1438" type="line"/>
    </contour>
    <contour>
      <point x="451" y="16" type="line"/>
      <point x="451" y="736" type="line"/>
      <point x="390" y="718" type="line"/>
      <point x="566" y="718" type="line" smooth="yes"/>
      <point x="769" y="718"/>
      <point x="837" y="560"/>
      <point x="837" y="382" type="curve" smooth="yes"/>
      <point x="837" y="204"/>
      <point x="769" y="43"/>
      <point x="566" y="45" type="curve" smooth="yes"/>
      <point x="279" y="49" type="line"/>
    </contour>
    <contour>
      <point x="64" y="1252" type="line"/>
      <point x="645" y="1252" type="line"/>
      <point x="645" y="1298" type="line"/>
      <point x="64" y="1298" type="line"/>
    </contour>
  </outline>
</glyph>
<glyph name="yat-cy" format="2">
  <advance width="903"/>
  <unicode hex="0463"/>
  <anchor x="239" y="1171" name="center"/>
  <outline>
    <contour>
      <point x="139" y="-1" type="line"/>
      <point x="494" y="0" type="line" smooth="yes"/>
      <point x="715" y="1"/>
      <point x="849" y="81"/>
      <point x="849" y="292" type="curve" smooth="yes"/>
      <point x="849" y="500"/>
      <point x="720" y="587"/>
      <point x="495" y="587" type="curve" smooth="yes"/>
      <point x="264" y="587" type="line"/>
      <point x="342" y="543" type="line"/>
      <point x="342" y="1514" type="line"/>
      <point x="140" y="1514" type="line"/>
    </contour>
    <contour>
      <point x="342" y="13" type="line"/>
      <point x="342" y="572" type="line"/>
      <point x="302" y="541" type="line"/>
      <point x="448" y="542" type="line" smooth="yes"/>
      <point x="592" y="543"/>
      <point x="669" y="452"/>
      <point x="669" y="292" type="curve" smooth="yes"/>
      <point x="669" y="131"/>
      <point x="595" y="46"/>
      <point x="448" y="45" type="curve" smooth="yes"/>
      <point x="168" y="44" type="line"/>
    </contour>
    <component base="_cyrillic_bar" xOffset="-4" yOffset="672"/>
  </outline>
</glyph>
<glyph name="Fita-cy" format="2">
  <advance width="1578"/>
  <unicode hex="0472"/>
  <anchor x="789" y="0" name="bottom"/>
  <anchor x="789" y="715" name="center"/>
  <anchor x="932" y="0" name="ogonek"/>
  <anchor x="789" y="1430" name="top"/>
  <anchor x="51" y="1430" name="topleft"/>
  <anchor x="1406" y="1430" name="topright"/>
  <outline>
    <contour>
      <point x="985" y="646" type="curve" smooth="yes"/>
      <point x="1007" y="646"/>
      <point x="1237" y="638"/>
      <point x="1329" y="796" type="curve"/>
      <point x="1329" y="820" type="line"/>
      <point x="1305" y="772"/>
      <point x="1184" y="704"/>
      <point x="1055" y="704" type="curve" smooth="yes"/>
      <point x="820" y="704"/>
      <point x="791" y="792"/>
      <point x="595" y="792" type="curve" smooth="yes"/>
      <point x="546" y="792"/>
      <point x="342" y="796"/>
      <point x="249" y="640" type="curve"/>
      <point x="249" y="614" type="line"/>
      <point x="271" y="656"/>
      <point x="405" y="730"/>
      <point x="539" y="730" type="curve" smooth="yes"/>
      <point x="769" y="730"/>
      <point x="776" y="646"/>
    </contour>
    <component base="O"/>
  </outline>
</glyph>
<glyph name="Izhitsa-cy" format="2">
  <advance width="1569"/>
  <unicode hex="0474"/>
  <guideline x="434" y="369" angle="247.946"/>
  <guideline x="413" y="275" angle="67.9058"/>
  <anchor x="785" y="1438" name="top"/>
  <outline>
    <contour>
      <point x="670" y="-41" type="line"/>
      <point x="1111" y="1061" type="line" smooth="yes"/>
      <point x="1182" y="1237"/>
      <point x="1248" y="1408"/>
      <point x="1325" y="1408" type="curve" smooth="yes"/>
      <point x="1372" y="1408"/>
      <point x="1417" y="1362"/>
      <point x="1417" y="1293" type="curve" smooth="yes"/>
      <point x="1417" y="1264"/>
      <point x="1410" y="1217"/>
      <point x="1396" y="1190" type="curve"/>
      <point x="1482" y="1190" type="line"/>
      <point x="1493" y="1238"/>
      <point x="1496" y="1273"/>
      <point x="1496" y="1293" type="curve" smooth="yes"/>
      <point x="1496" y="1394"/>
      <point x="1422" y="1459"/>
      <point x="1334" y="1459" type="curve" smooth="yes"/>
      <point x="1195" y="1459"/>
      <point x="1110" y="1268"/>
      <point x="1030" y="1071" type="curve" smooth="yes"/>
      <point x="701" y="247" type="line"/>
      <point x="767" y="247" type="line"/>
      <point x="290" y="1438" type="line"/>
      <point x="69" y="1437" type="line"/>
    </contour>
  </outline>
</glyph>
<glyph name="izhitsa-cy" format="2">
  <advance width="1225"/>
  <unicode hex="0475"/>
  <guideline x="346" y="277" angle="245.7"/>
  <anchor x="613" y="914" name="top"/>
  <outline>
    <contour>
      <point x="464" y="-45" type="line"/>
      <point x="482" y="-45" type="line"/>
      <point x="741" y="529" type="line" smooth="yes"/>
      <point x="794" y="643"/>
      <point x="891" y="897"/>
      <point x="1035" y="897" type="curve" smooth="yes"/>
      <point x="1071" y="897"/>
      <point x="1117" y="881"/>
      <point x="1139" y="847" type="curve"/>
      <point x="1193" y="893" type="line"/>
      <point x="1156" y="923"/>
      <point x="1092" y="941"/>
      <point x="1032" y="941" type="curve" smooth="yes"/>
      <point x="863" y="941"/>
      <point x="813" y="797"/>
      <point x="693" y="529" type="curve" smooth="yes"/>
      <point x="518" y="138" type="line"/>
      <point x="570" y="192" type="line"/>
      <point x="250" y="914" type="line"/>
      <point x="41" y="914" type="line"/>
    </contour>
  </outline>
</glyph>
<glyph name="Shha-cy" format="2">
  <advance width="1244"/>
  <unicode hex="04BA"/>
  <anchor x="1224" y="0" name="bottomright"/>
  <outline>
    <contour>
      <point x="155" y="0" type="line"/>
      <point x="348" y="0" type="line"/>
      <point x="349" y="387" type="line" smooth="yes"/>
      <point x="350" y="624"/>
      <point x="474" y="806"/>
      <point x="656" y="806" type="curve" smooth="yes"/>
      <point x="824" y="806"/>
      <point x="912" y="657"/>
      <point x="912" y="358" type="curve" smooth="yes"/>
      <point x="912" y="0" type="line"/>
      <point x="1105" y="0" type="line"/>
      <point x="1105" y="377" type="line" smooth="yes"/>
      <point x="1105" y="732"/>
      <point x="916" y="856"/>
      <point x="677" y="856" type="curve" smooth="yes"/>
      <point x="466" y="856"/>
      <point x="362" y="729"/>
      <point x="317" y="511" type="curve"/>
      <point x="348" y="557" type="line"/>
      <point x="348" y="1438" type="line"/>
      <point x="155" y="1438" type="line"/>
    </contour>
  </outline>
</glyph>
<glyph name="Germandbls" format="2">
  <advance width="1490"/>
  <unicode hex="1E9E"/>
  <guideline x="1053" y="1075" angle="72.7999"/>
  <guideline x="957" y="1115" angle="252.7513"/>
  <anchor x="744" y="0" name="bottom"/>
  <anchor x="744" y="1430" name="top"/>
  <outline>
    <contour>
      <point x="917" y="-26" type="curve" smooth="yes"/>
      <point x="1243" y="-26"/>
      <point x="1399" y="152"/>
      <point x="1399" y="416" type="curve" smooth="yes"/>
      <point x="1399" y="701"/>
      <point x="1219" y="789"/>
      <point x="934" y="878" type="curve" smooth="yes"/>
      <point x="912" y="885"/>
      <point x="889" y="892"/>
      <point x="865" y="899" type="curve"/>
      <point x="914" y="787" type="line"/>
      <point x="1127" y="1477" type="line"/>
      <point x="1047" y="1494"/>
      <point x="927" y="1514"/>
      <point x="761" y="1514" type="curve" smooth="yes"/>
      <point x="422" y="1514"/>
      <point x="163" y="1430"/>
      <point x="163" y="1167" type="curve" smooth="yes"/>
      <point x="163" y="0" type="line"/>
      <point x="369" y="0" type="line"/>
      <point x="369" y="1268" type="line" smooth="yes"/>
      <point x="369" y="1374"/>
      <point x="511" y="1478"/>
      <point x="761" y="1478" type="curve" smooth="yes"/>
      <point x="820" y="1478"/>
      <point x="900" y="1472"/>
      <point x="979" y="1468" type="curve"/>
      <point x="915" y="1491" type="line"/>
      <point x="684" y="743" type="line"/>
      <point x="750" y="723"/>
      <point x="815" y="702"/>
      <point x="881" y="682" type="curve"/>
      <point x="1080" y="611"/>
      <point x="1255" y="571"/>
      <point x="1255" y="358" type="curve" smooth="yes"/>
      <point x="1255" y="172"/>
      <point x="1121" y="10"/>
      <point x="931" y="10" type="curve" smooth="yes"/>
      <point x="785" y="10"/>
      <point x="687" y="106"/>
      <point x="634" y="238" type="curve"/>
      <point x="584" y="76" type="line"/>
      <point x="677" y="-3"/>
      <point x="800" y="-26"/>
    </contour>
  </outline>
</glyph>
<glyph name="endash" format="2">
  <advance width="1492"/>
  <unicode hex="2013"/>
  <note>
endash
</note>
  <outline>
    <contour>
      <point x="77" y="400" type="line"/>
      <point x="1391" y="400" type="line"/>
      <point x="1415" y="490" type="line"/>
      <point x="101" y="490" type="line"/>
    </contour>
  </outline>
</glyph>
<glyph name="emdash" format="2">
  <advance width="2170"/>
  <unicode hex="2014"/>
  <note>
emdash
</note>
  <outline>
    <contour>
      <point x="77" y="410" type="line"/>
      <point x="2077" y="410" type="line"/>
      <point x="2093" y="480" type="line"/>
      <point x="93" y="480" type="line"/>
    </contour>
  </outline>
</glyph>
<glyph name="dagger" format="2">
  <advance width="1056"/>
  <unicode hex="2020"/>
  <note>
dagger
</note>
  <outline>
    <contour>
      <point x="528" y="-300" type="curve" smooth="yes"/>
      <point x="574" y="-300"/>
      <point x="608" y="-90"/>
      <point x="608" y="-23" type="curve" smooth="yes"/>
      <point x="608" y="628" type="line" smooth="yes"/>
      <point x="608" y="792"/>
      <point x="582" y="974"/>
      <point x="564" y="956" type="curve" smooth="yes"/>
      <point x="547" y="938"/>
      <point x="678" y="911"/>
      <point x="836" y="911" type="curve" smooth="yes"/>
      <point x="856" y="911"/>
      <point x="953" y="934"/>
      <point x="953" y="964" type="curve" smooth="yes"/>
      <point x="953" y="994"/>
      <point x="856" y="1016"/>
      <point x="836" y="1016" type="curve" smooth="yes"/>
      <point x="663" y="1016"/>
      <point x="543" y="994"/>
      <point x="564" y="972" type="curve" smooth="yes"/>
      <point x="586" y="951"/>
      <point x="608" y="1088"/>
      <point x="608" y="1227" type="curve" smooth="yes"/>
      <point x="608" y="1279"/>
      <point x="574" y="1379"/>
      <point x="528" y="1379" type="curve" smooth="yes"/>
      <point x="482" y="1379"/>
      <point x="448" y="1279"/>
      <point x="448" y="1227" type="curve" smooth="yes"/>
      <point x="448" y="1088"/>
      <point x="471" y="951"/>
      <point x="492" y="972" type="curve" smooth="yes"/>
      <point x="514" y="994"/>
      <point x="394" y="1016"/>
      <point x="221" y="1016" type="curve" smooth="yes"/>
      <point x="201" y="1016"/>
      <point x="103" y="994"/>
      <point x="103" y="964" type="curve" smooth="yes"/>
      <point x="103" y="934"/>
      <point x="201" y="911"/>
      <point x="221" y="911" type="curve" smooth="yes"/>
      <point x="379" y="911"/>
      <point x="510" y="938"/>
      <point x="492" y="956" type="curve" smooth="yes"/>
      <point x="475" y="974"/>
      <point x="448" y="792"/>
      <point x="448" y="628" type="curve" smooth="yes"/>
      <point x="448" y="-23" type="line" smooth="yes"/>
      <point x="448" y="-90"/>
      <point x="482" y="-300"/>
    </contour>
  </outline>
</glyph>
<glyph name="daggerdbl" format="2">
  <advance width="1077"/>
  <unicode hex="2021"/>
  <note>
daggerdbl
</note>
  <outline>
    <contour>
      <point x="538" y="-300" type="curve" smooth="yes"/>
      <point x="584" y="-300"/>
      <point x="618" y="-200"/>
      <point x="618" y="-148" type="curve" smooth="yes"/>
      <point x="618" y="-51"/>
      <point x="610" y="49"/>
      <point x="599" y="83" type="curve"/>
      <point x="635" y="72"/>
      <point x="729" y="63"/>
      <point x="845" y="63" type="curve" smooth="yes"/>
      <point x="865" y="63"/>
      <point x="963" y="86"/>
      <point x="963" y="116" type="curve" smooth="yes"/>
      <point x="963" y="146"/>
      <point x="865" y="168"/>
      <point x="845" y="168" type="curve" smooth="yes"/>
      <point x="729" y="168"/>
      <point x="626" y="156"/>
      <point x="592" y="142" type="curve"/>
      <point x="605" y="181"/>
      <point x="618" y="327"/>
      <point x="618" y="451" type="curve" smooth="yes"/>
      <point x="618" y="628" type="line" smooth="yes"/>
      <point x="618" y="752"/>
      <point x="605" y="899"/>
      <point x="592" y="937" type="curve"/>
      <point x="626" y="924"/>
      <point x="729" y="911"/>
      <point x="845" y="911" type="curve" smooth="yes"/>
      <point x="865" y="911"/>
      <point x="963" y="934"/>
      <point x="963" y="964" type="curve" smooth="yes"/>
      <point x="963" y="994"/>
      <point x="865" y="1016"/>
      <point x="845" y="1016" type="curve" smooth="yes"/>
      <point x="729" y="1016"/>
      <point x="635" y="1008"/>
      <point x="599" y="997" type="curve"/>
      <point x="610" y="1030"/>
      <point x="618" y="1130"/>
      <point x="618" y="1227" type="curve" smooth="yes"/>
      <point x="618" y="1279"/>
      <point x="584" y="1379"/>
      <point x="538" y="1379" type="curve" smooth="yes"/>
      <point x="492" y="1379"/>
      <point x="458" y="1279"/>
      <point x="458" y="1227" type="curve" smooth="yes"/>
      <point x="458" y="1130"/>
      <point x="466" y="1030"/>
      <point x="476" y="997" type="curve"/>
      <point x="441" y="1008"/>
      <point x="347" y="1016"/>
      <point x="230" y="1016" type="curve" smooth="yes"/>
      <point x="210" y="1016"/>
      <point x="113" y="994"/>
      <point x="113" y="964" type="curve" smooth="yes"/>
      <point x="113" y="934"/>
      <point x="210" y="911"/>
      <point x="230" y="911" type="curve" smooth="yes"/>
      <point x="347" y="911"/>
      <point x="450" y="924"/>
      <point x="483" y="937" type="curve"/>
      <point x="470" y="899"/>
      <point x="458" y="752"/>
      <point x="458" y="628" type="curve" smooth="yes"/>
      <point x="458" y="451" type="line" smooth="yes"/>
      <point x="458" y="327"/>
      <point x="470" y="181"/>
      <point x="483" y="142" type="curve"/>
      <point x="450" y="156"/>
      <point x="347" y="168"/>
      <point x="230" y="168" type="curve" smooth="yes"/>
      <point x="210" y="168"/>
      <point x="113" y="146"/>
      <point x="113" y="116" type="curve" smooth="yes"/>
      <point x="113" y="86"/>
      <point x="210" y="63"/>
      <point x="230" y="63" type="curve" smooth="yes"/>
      <point x="347" y="63"/>
      <point x="441" y="72"/>
      <point x="476" y="83" type="curve"/>
      <point x="466" y="49"/>
      <point x="458" y="-51"/>
      <point x="458" y="-148" type="curve" smooth="yes"/>
      <point x="458" y="-200"/>
      <point x="492" y="-300"/>
    </contour>
  </outline>
</glyph>
<glyph name="bullet" format="2">
  <advance width="808"/>
  <unicode hex="2022"/>
  <note>
bullet
</note>
  <outline>
    <contour>
      <point x="403" y="466" type="curve" smooth="yes"/>
      <point x="555" y="466"/>
      <point x="679" y="590"/>
      <point x="679" y="742" type="curve" smooth="yes"/>
      <point x="679" y="894"/>
      <point x="557" y="1016"/>
      <point x="405" y="1016" type="curve" smooth="yes"/>
      <point x="253" y="1016"/>
      <point x="129" y="894"/>
      <point x="129" y="742" type="curve" smooth="yes"/>
      <point x="129" y="590"/>
      <point x="251" y="466"/>
    </contour>
  </outline>
</glyph>
<glyph name="perthousand" format="2">
  <advance width="2089"/>
  <unicode hex="2030"/>
  <note>
perthousand
</note>
  <outline>
    <contour>
      <point x="234" y="0" type="line"/>
      <point x="306" y="0" type="line"/>
      <point x="1210" y="1430" type="line"/>
      <point x="1138" y="1430" type="line"/>
    </contour>
    <contour>
      <point x="1066" y="-20" type="curve" smooth="yes"/>
      <point x="1232" y="-20"/>
      <point x="1320" y="162"/>
      <point x="1320" y="354" type="curve" smooth="yes"/>
      <point x="1320" y="535"/>
      <point x="1224" y="728"/>
      <point x="1066" y="728" type="curve" smooth="yes"/>
      <point x="912" y="728"/>
      <point x="810" y="537"/>
      <point x="810" y="354" type="curve" smooth="yes"/>
      <point x="810" y="167"/>
      <point x="897" y="-20"/>
    </contour>
    <contour>
      <point x="1066" y="14" type="curve" smooth="yes"/>
      <point x="960" y="14"/>
      <point x="914" y="138"/>
      <point x="914" y="354" type="curve" smooth="yes"/>
      <point x="914" y="572"/>
      <point x="960" y="694"/>
      <point x="1066" y="694" type="curve" smooth="yes"/>
      <point x="1170" y="694"/>
      <point x="1218" y="572"/>
      <point x="1218" y="354" type="curve" smooth="yes"/>
      <point x="1218" y="138"/>
      <point x="1170" y="14"/>
    </contour>
    <contour>
      <point x="386" y="700" type="curve" smooth="yes"/>
      <point x="552" y="700"/>
      <point x="640" y="882"/>
      <point x="640" y="1074" type="curve" smooth="yes"/>
      <point x="640" y="1255"/>
      <point x="544" y="1448"/>
      <point x="386" y="1448" type="curve" smooth="yes"/>
      <point x="232" y="1448"/>
      <point x="130" y="1257"/>
      <point x="130" y="1074" type="curve" smooth="yes"/>
      <point x="130" y="887"/>
      <point x="217" y="700"/>
    </contour>
    <contour>
      <point x="386" y="734" type="curve" smooth="yes"/>
      <point x="280" y="734"/>
      <point x="234" y="858"/>
      <point x="234" y="1074" type="curve" smooth="yes"/>
      <point x="234" y="1292"/>
      <point x="280" y="1414"/>
      <point x="386" y="1414" type="curve" smooth="yes"/>
      <point x="490" y="1414"/>
      <point x="538" y="1292"/>
      <point x="538" y="1074" type="curve" smooth="yes"/>
      <point x="538" y="858"/>
      <point x="490" y="734"/>
    </contour>
    <contour>
      <point x="1706" y="-20" type="curve" smooth="yes"/>
      <point x="1872" y="-20"/>
      <point x="1960" y="162"/>
      <point x="1960" y="354" type="curve" smooth="yes"/>
      <point x="1960" y="535"/>
      <point x="1864" y="728"/>
      <point x="1706" y="728" type="curve" smooth="yes"/>
      <point x="1552" y="728"/>
      <point x="1450" y="537"/>
      <point x="1450" y="354" type="curve" smooth="yes"/>
      <point x="1450" y="167"/>
      <point x="1537" y="-20"/>
    </contour>
    <contour>
      <point x="1706" y="14" type="curve" smooth="yes"/>
      <point x="1600" y="14"/>
      <point x="1554" y="138"/>
      <point x="1554" y="354" type="curve" smooth="yes"/>
      <point x="1554" y="572"/>
      <point x="1600" y="694"/>
      <point x="1706" y="694" type="curve" smooth="yes"/>
      <point x="1810" y="694"/>
      <point x="1858" y="572"/>
      <point x="1858" y="354" type="curve" smooth="yes"/>
      <point x="1858" y="138"/>
      <point x="1810" y="14"/>
    </contour>
  </outline>
</glyph>
<glyph name="franc" format="2">
  <advance width="1578"/>
  <unicode hex="20A3"/>
  <note>
franc
</note>
  <outline>
    <contour>
      <point x="228" y="0" type="line"/>
      <point x="434" y="0" type="line"/>
      <point x="434" y="805" type="line"/>
      <point x="341" y="712" type="line"/>
      <point x="1018" y="712" type="line"/>
      <point x="1018" y="746" type="line"/>
      <point x="341" y="746" type="line"/>
      <point x="434" y="653" type="line"/>
      <point x="434" y="1417" type="line"/>
      <point x="341" y="1394" type="line"/>
      <point x="1018" y="1394" type="line"/>
      <point x="1018" y="1430" type="line"/>
      <point x="228" y="1430" type="line"/>
    </contour>
    <contour>
      <point x="816" y="0" type="line"/>
      <point x="1018" y="0" type="line"/>
      <point x="1018" y="414" type="line" smooth="yes"/>
      <point x="1018" y="577"/>
      <point x="1129" y="728"/>
      <point x="1260" y="728" type="curve" smooth="yes"/>
      <point x="1328" y="728"/>
      <point x="1365" y="687"/>
      <point x="1365" y="613" type="curve" smooth="yes"/>
      <point x="1365" y="571"/>
      <point x="1353" y="531"/>
      <point x="1330" y="498" type="curve"/>
      <point x="1433" y="475" type="line"/>
      <point x="1441" y="520"/>
      <point x="1445" y="556"/>
      <point x="1445" y="584" type="curve" smooth="yes"/>
      <point x="1445" y="700"/>
      <point x="1376" y="772"/>
      <point x="1266" y="772" type="curve" smooth="yes"/>
      <point x="1121" y="772"/>
      <point x="1002" y="645"/>
      <point x="971" y="456" type="curve"/>
      <point x="1018" y="477" type="line"/>
      <point x="1018" y="746" type="line"/>
      <point x="816" y="746" type="line"/>
    </contour>
  </outline>
</glyph>
<glyph name="peseta" format="2">
  <advance width="1403"/>
  <unicode hex="20A7"/>
  <anchor x="791" y="0" name="_bottom"/>
  <anchor x="791" y="465" name="bar"/>
  <anchor x="791" y="-261" name="bottom"/>
  <anchor x="791" y="1430" name="top"/>
  <outline>
    <contour>
      <point x="121" y="642" type="line"/>
      <point x="560" y="642" type="line"/>
      <point x="560" y="677" type="line"/>
      <point x="121" y="677" type="line"/>
    </contour>
    <component base="P" xOffset="232"/>
  </outline>
</glyph>
<glyph name="kip" format="2">
  <advance width="1523"/>
  <unicode hex="20AD"/>
  <outline>
    <contour>
      <point x="1146" y="0" type="line"/>
      <point x="1402" y="0" type="line"/>
      <point x="778" y="793" type="line"/>
      <point x="639" y="650" type="line"/>
    </contour>
    <contour>
      <point x="228" y="0" type="line"/>
      <point x="434" y="0" type="line"/>
      <point x="434" y="1430" type="line"/>
      <point x="228" y="1430" type="line"/>
    </contour>
    <contour>
      <point x="392" y="637" type="line"/>
      <point x="782" y="637" type="line"/>
      <point x="782" y="793" type="line"/>
      <point x="392" y="793" type="line"/>
    </contour>
    <contour>
      <point x="693" y="671" type="line"/>
      <point x="1270" y="1430" type="line"/>
      <point x="1112" y="1430" type="line"/>
      <point x="554" y="696" type="line"/>
    </contour>
  </outline>
</glyph>
<glyph name="peso" format="2">
  <advance width="1443"/>
  <unicode hex="20B1"/>
  <anchor x="702" y="3" name="_bottom"/>
  <anchor x="702" y="499" name="bar"/>
  <anchor x="702" y="-304" name="bottom"/>
  <anchor x="701" y="1430" name="top"/>
  <outline>
    <contour>
      <point x="127" y="1108" type="line"/>
      <point x="1316" y="1108" type="line"/>
      <point x="1316" y="1139" type="line"/>
      <point x="127" y="1139" type="line"/>
    </contour>
    <contour>
      <point x="127" y="908" type="line"/>
      <point x="1316" y="908" type="line"/>
      <point x="1316" y="939" type="line"/>
      <point x="127" y="939" type="line"/>
    </contour>
    <component base="P" xOffset="142"/>
  </outline>
</glyph>
<glyph name="guarani" format="2">
  <advance width="1649"/>
  <unicode hex="20B2"/>
  <anchor x="828" y="0" name="bottom"/>
  <anchor x="836" y="1430" name="top"/>
  <outline>
    <contour>
      <point x="838" y="-26" type="curve" smooth="yes"/>
      <point x="1206" y="-26"/>
      <point x="1481" y="257"/>
      <point x="1520" y="630" type="curve"/>
      <point x="1308" y="630" type="line"/>
      <point x="1286" y="253"/>
      <point x="1103" y="4"/>
      <point x="835" y="4" type="curve" smooth="yes"/>
      <point x="550" y="4"/>
      <point x="360" y="287"/>
      <point x="360" y="714" type="curve" smooth="yes"/>
      <point x="360" y="1141"/>
      <point x="550" y="1430"/>
      <point x="836" y="1430" type="curve" smooth="yes"/>
      <point x="1016" y="1430"/>
      <point x="1160" y="1314"/>
      <point x="1238" y="1118" type="curve"/>
      <point x="1416" y="1118" type="line"/>
      <point x="1299" y="1321"/>
      <point x="1063" y="1460"/>
      <point x="835" y="1460" type="curve" smooth="yes"/>
      <point x="453" y="1460"/>
      <point x="148" y="1118"/>
      <point x="148" y="718" type="curve" smooth="yes"/>
      <point x="148" y="302"/>
      <point x="433" y="-26"/>
    </contour>
    <contour>
      <point x="1040" y="594" type="line"/>
      <point x="1354" y="594" type="line"/>
      <point x="1354" y="630" type="line"/>
      <point x="1040" y="630" type="line"/>
    </contour>
    <contour>
      <point x="791" y="-166" type="line"/>
      <point x="861" y="-166" type="line"/>
      <point x="861" y="1590" type="line"/>
      <point x="791" y="1590" type="line"/>
    </contour>
  </outline>
</glyph>
<glyph name="rupeeIndian" format="2">
  <advance width="1290"/>
  <unicode hex="20B9"/>
  <outline>
    <contour>
      <point x="386" y="720" type="line"/>
      <point x="517" y="720"/>
      <point x="585" y="702"/>
      <point x="635" y="597" type="curve" smooth="yes"/>
      <point x="661" y="542"/>
      <point x="670" y="507"/>
      <point x="734" y="219" type="curve" smooth="yes"/>
      <point x="756" y="120"/>
      <point x="769" y="61"/>
      <point x="784" y="0" type="curve"/>
      <point x="1006" y="0" type="line"/>
      <point x="987" y="68"/>
      <point x="965" y="159"/>
      <point x="941" y="267" type="curve" smooth="yes"/>
      <point x="872" y="577"/>
      <point x="858" y="623"/>
      <point x="808" y="675" type="curve" smooth="yes"/>
      <point x="767" y="717"/>
      <point x="705" y="737"/>
      <point x="610" y="743" type="curve"/>
    </contour>
    <contour>
      <point x="148" y="756" type="line"/>
      <point x="148" y="720" type="line"/>
      <point x="386" y="720" type="line"/>
      <point x="609" y="742" type="line"/>
      <point x="804" y="735"/>
      <point x="940" y="854"/>
      <point x="940" y="1072" type="curve" smooth="yes"/>
      <point x="940" y="1319"/>
      <point x="765" y="1430"/>
      <point x="436" y="1430" type="curve" smooth="yes"/>
      <point x="162" y="1430" type="line"/>
      <point x="162" y="1394" type="line"/>
      <point x="436" y="1394" type="line" smooth="yes"/>
      <point x="692" y="1394"/>
      <point x="722" y="1218"/>
      <point x="722" y="1076" type="curve" smooth="yes"/>
      <point x="722" y="903"/>
      <point x="678" y="756"/>
      <point x="436" y="756" type="curve" smooth="yes"/>
    </contour>
    <contour>
      <point x="148" y="1394" type="line"/>
      <point x="1155" y="1394" type="line"/>
      <point x="1155" y="1430" type="line"/>
      <point x="148" y="1430" type="line"/>
    </contour>
    <contour>
      <point x="148" y="1055" type="line"/>
      <point x="1155" y="1055" type="line"/>
      <point x="1155" y="1091" type="line"/>
      <point x="148" y="1091" type="line"/>
    </contour>
  </outline>
</glyph>
<glyph name="manat" format="2">
  <advance width="1283"/>
  <unicode hex="20BC"/>
  <outline>
    <contour>
      <point x="174" y="0" type="line"/>
      <point x="325" y="0" type="line"/>
      <point x="325" y="453" type="line"/>
      <point x="325" y="713"/>
      <point x="455" y="904"/>
      <point x="642" y="904" type="curve" smooth="yes"/>
      <point x="828" y="904"/>
      <point x="959" y="707"/>
      <point x="959" y="453" type="curve"/>
      <point x="959" y="0" type="line"/>
      <point x="1109" y="0" type="line"/>
      <point x="1109" y="453" type="line"/>
      <point x="1109" y="745"/>
      <point x="922" y="954"/>
      <point x="641" y="954" type="curve" smooth="yes"/>
      <point x="360" y="954"/>
      <point x="174" y="744"/>
      <point x="174" y="453" type="curve"/>
    </contour>
    <contour>
      <point x="594" y="0" type="line"/>
      <point x="689" y="0" type="line"/>
      <point x="689" y="1274" type="line"/>
      <point x="594" y="1274" type="line"/>
    </contour>
  </outline>
</glyph>
<glyph name="ruble" format="2">
  <advance width="1416"/>
  <unicode hex="20BD"/>
  <anchor x="804" y="0" name="_bottom"/>
  <anchor x="804" y="465" name="bar"/>
  <anchor x="804" y="-261" name="bottom"/>
  <anchor x="804" y="1430" name="top"/>
  <outline>
    <contour>
      <point x="134" y="642" type="line"/>
      <point x="573" y="642" type="line"/>
      <point x="573" y="677" type="line"/>
      <point x="134" y="677" type="line"/>
    </contour>
    <contour>
      <point x="134" y="372" type="line"/>
      <point x="893" y="372" type="line"/>
      <point x="893" y="407" type="line"/>
      <point x="134" y="407" type="line"/>
    </contour>
    <component base="P" xOffset="245"/>
  </outline>
</glyph>
<glyph name="partialdiff" format="2">
  <advance width="1073"/>
  <unicode hex="2202"/>
  <note>
partialdiff
</note>
  <outline>
    <contour>
      <point x="459" y="-24" type="curve" smooth="yes"/>
      <point x="725" y="-24"/>
      <point x="921" y="296"/>
      <point x="921" y="732" type="curve" smooth="yes"/>
      <point x="921" y="1072"/>
      <point x="787" y="1284"/>
      <point x="565" y="1284" type="curve" smooth="yes"/>
      <point x="441" y="1284"/>
      <point x="349" y="1222"/>
      <point x="349" y="1146" type="curve" smooth="yes"/>
      <point x="349" y="1106"/>
      <point x="373" y="1084"/>
      <point x="411" y="1084" type="curve" smooth="yes"/>
      <point x="439" y="1084"/>
      <point x="465" y="1104"/>
      <point x="507" y="1146" type="curve" smooth="yes"/>
      <point x="549" y="1188"/>
      <point x="597" y="1198"/>
      <point x="631" y="1198" type="curve" smooth="yes"/>
      <point x="725" y="1198"/>
      <point x="789" y="1084"/>
      <point x="789" y="902" type="curve" smooth="yes"/>
      <point x="789" y="800"/>
      <point x="779" y="696"/>
      <point x="753" y="590" type="curve"/>
      <point x="707" y="718"/>
      <point x="627" y="778"/>
      <point x="497" y="778" type="curve" smooth="yes"/>
      <point x="291" y="778"/>
      <point x="131" y="592"/>
      <point x="131" y="346" type="curve" smooth="yes"/>
      <point x="131" y="130"/>
      <point x="267" y="-24"/>
    </contour>
    <contour>
      <point x="459" y="19" type="curve" smooth="yes"/>
      <point x="351" y="19"/>
      <point x="291" y="108"/>
      <point x="291" y="260" type="curve" smooth="yes"/>
      <point x="291" y="528"/>
      <point x="393" y="722"/>
      <point x="541" y="722" type="curve" smooth="yes"/>
      <point x="647" y="722"/>
      <point x="709" y="624"/>
      <point x="709" y="472" type="curve" smooth="yes"/>
      <point x="709" y="210"/>
      <point x="603" y="19"/>
    </contour>
  </outline>
</glyph>
<glyph name="product" format="2">
  <advance width="1612"/>
  <unicode hex="220F"/>
  <note>
product
</note>
  <outline>
    <contour>
      <point x="216" y="-384" type="line"/>
      <point x="410" y="-384" type="line"/>
      <point x="410" y="1270" type="line"/>
      <point x="1200" y="1270" type="line"/>
      <point x="1200" y="-384" type="line"/>
      <point x="1396" y="-384" type="line"/>
      <point x="1396" y="1438" type="line"/>
      <point x="216" y="1438" type="line"/>
    </contour>
  </outline>
</glyph>
<glyph name="summation" format="2">
  <advance width="1509"/>
  <unicode hex="2211"/>
  <note>
summation
</note>
  <outline>
    <contour>
      <point x="123" y="-384" type="line"/>
      <point x="1381" y="-384" type="line"/>
      <point x="1381" y="-224" type="line"/>
      <point x="371" y="-224" type="line"/>
      <point x="1073" y="550" type="line"/>
      <point x="399" y="1276" type="line"/>
      <point x="1365" y="1276" type="line"/>
      <point x="1365" y="1438" type="line"/>
      <point x="155" y="1438" type="line"/>
      <point x="155" y="1286" type="line"/>
      <point x="843" y="546" type="line"/>
      <point x="123" y="-248" type="line"/>
    </contour>
  </outline>
</glyph>
<glyph name="minus" format="2">
  <advance width="1050"/>
  <unicode hex="2212"/>
  <note>
minus
</note>
  <outline>
    <contour>
      <point x="139" y="632" type="line"/>
      <point x="975" y="632" type="line"/>
      <point x="975" y="704" type="line"/>
      <point x="139" y="704" type="line"/>
    </contour>
  </outline>
</glyph>
<glyph name="fraction" format="2">
  <unicode hex="2215"/>
  <note>
fraction
</note>
  <outline>
    <contour>
      <point x="-504" y="-46" type="line"/>
      <point x="-424" y="-46" type="line"/>
      <point x="504" y="1456" type="line"/>
      <point x="424" y="1456" type="line"/>
    </contour>
  </outline>
</glyph>
<glyph name="radical" format="2">
  <advance width="1415"/>
  <unicode hex="221A"/>
  <note>
radical
</note>
  <outline>
    <contour>
      <point x="559" y="-40" type="line"/>
      <point x="611" y="-40" type="line"/>
      <point x="1191" y="1528" type="line"/>
      <point x="1307" y="1528" type="line"/>
      <point x="1307" y="1608" type="line"/>
      <point x="1129" y="1608" type="line"/>
      <point x="619" y="234" type="line"/>
      <point x="361" y="946" type="line"/>
      <point x="105" y="856" type="line"/>
      <point x="127" y="790" type="line"/>
      <point x="243" y="832" type="line"/>
    </contour>
  </outline>
</glyph>
